<?xml version="1.0" encoding="utf-8"?>
<!-- Generator: Adobe Illustrator 19.1.0, SVG Export Plug-In . SVG Version: 6.00 Build 0)  -->
<svg version="1.1" id="Layer_2" xmlns="http://www.w3.org/2000/svg" xmlns:xlink="http://www.w3.org/1999/xlink" x="0px" y="0px"
	 viewBox="-118 -131 512 512" style="enable-background:new -118 -131 512 512;" xml:space="preserve">
<path d="M230.4,25.9c-24.9-23.3-57.1-36.1-91.3-36.5C101.9-10.9,67.6,4,42.7,28.7L42.2,29C14.8,56.5-2.2,94.4-2.2,136.3
	c0,83.7,67.9,151.6,151.6,151.6c42.1,0,80.1-17.1,107.6-44.7l-0.9,0.8c6.3-6.3,16.5-6.3,22.8,0c6.3,6.3,6.3,16.5,0,22.8l0.4-0.4
	C243.2,302.6,193.2,325,138,325C27.5,324.9-62,235.4-62,125C-62,69.8-39.6,19.8-3.4-16.4l0.1,0.1C33-52.6,83.1-75.1,138.4-75
	c53.4,0.1,101.9,21.1,137.8,55.4h0.2L305-48.4c12.2-12.2,33-3.6,33,13.7V73.4c0,10.7-8.6,19.4-19.4,19.4H210.5
	c-17.2,0-25.9-20.9-13.7-33L230.6,26L230.4,25.9L230.4,25.9z"/>
</svg>
