<?xml version="1.0" encoding="utf-8"?>
<!-- Generator: Adobe Illustrator 16.0.0, SVG Export Plug-In . SVG Version: 6.00 Build 0)  -->
<!DOCTYPE svg PUBLIC "-//W3C//DTD SVG 1.1//EN" "http://www.w3.org/Graphics/SVG/1.1/DTD/svg11.dtd">
<svg version="1.1" id="Layer_1" xmlns="http://www.w3.org/2000/svg" xmlns:xlink="http://www.w3.org/1999/xlink" x="0px" y="0px"
	 width="1024px" height="1024px" viewBox="0 0 1024 1024" enable-background="new 0 0 1024 1024" xml:space="preserve">
<g id="Warning">
	<path fill="#F9C426" d="M1005.968,811.237L599.894,105.952c-17.936-29.211-50.177-48.695-86.967-48.695
		c-36.866,0-69.161,19.561-87.075,48.87L18.063,811.211l-0.031,0.116C8.216,826.998,2.541,845.35,2.541,865.203
		C2.541,921.525,48.197,967,104.518,967h814.964c56.32,0,101.978-45.475,101.978-101.797
		C1021.459,845.35,1015.784,826.907,1005.968,811.237z M448,230h128l-10,458H458L448,230z M558.415,865.33
		c-12.633,12.625-28.107,18.945-46.415,18.945c-18.635,0-34.265-6.32-46.89-18.945c-12.634-12.625-18.945-28.418-18.945-47.363
		c0-17.68,6.468-32.991,19.419-45.941c12.943-12.943,28.418-19.419,46.416-19.419c17.997,0,33.464,6.476,46.415,19.419
		c12.943,12.95,19.42,28.418,19.42,46.416C577.835,836.757,571.358,852.387,558.415,865.33z"/>
</g>
</svg>
