<?xml version="1.0" encoding="UTF-8"?>
<svg width="27px" height="27px" viewBox="0 0 27 27" version="1.1" xmlns="http://www.w3.org/2000/svg" xmlns:xlink="http://www.w3.org/1999/xlink">
    <!-- Generator: Sketch 62 (91390) - https://sketch.com -->
    <title>ew-parentheses</title>
    <desc>Created with Sketch.</desc>
    <g id="ew-parentheses" stroke="none" stroke-width="1" fill="none" fill-rule="evenodd">
        <rect id="Rectangle" x="0" y="0" width="27" height="27"></rect>
        <path d="M9.08105469,19.2607422 L9.26660156,18.7333984 C8.81738281,18.3557943 8.42838542,17.7828776 8.09960938,17.0146484 C7.77083333,16.2464193 7.60644531,15.297526 7.60644531,14.1679688 L7.60644531,14.1044922 C7.60644531,12.9749349 7.77164714,12.0260417 8.10205078,11.2578125 C8.43245443,10.4895833 8.82063802,9.9313151 9.26660156,9.58300781 L9.08105469,9.01660156 L9.05175781,9.01171875 C8.48209635,9.31445312 7.93847656,9.91992188 7.42089844,10.828125 C6.90332031,11.7363281 6.64453125,12.8317057 6.64453125,14.1142578 L6.64453125,14.1582031 C6.64453125,15.4440104 6.90332031,16.5402018 7.42089844,17.4467773 C7.93847656,18.3533529 8.48209635,18.9580078 9.05175781,19.2607422 L9.08105469,19.2607422 Z M14.2926432,17 L14.2926432,9.890625 L11.875651,10.1542969 L11.875651,10.8476562 L13.3307291,10.828125 L13.3307291,17 L14.2926432,17 Z M18.4934895,19.2607422 C19.0598957,18.9580078 19.6027017,18.3533529 20.1219074,17.4467773 C20.6411131,16.5402018 20.900716,15.4440104 20.900716,14.1582031 L20.900716,14.1142578 C20.900716,12.8317057 20.6411131,11.7363281 20.1219074,10.828125 C19.6027017,9.91992188 19.0598957,9.31445312 18.4934895,9.01171875 L18.4641926,9.01171875 L18.2786457,9.5390625 C18.6985676,9.89713542 19.0802408,10.4692383 19.4236652,11.2553711 C19.7670897,12.0415039 19.938802,12.9912109 19.938802,14.1044922 L19.938802,14.1679688 C19.938802,15.3040365 19.7719725,16.2635091 19.4383137,17.0463867 C19.1046548,17.8292643 18.7180988,18.3916016 18.2786457,18.7333984 L18.4641926,19.2607422 L18.4934895,19.2607422 Z" id="(1)-black" fill="#000000" fill-rule="nonzero"></path>
    </g>
</svg>
