<?xml version="1.0" encoding="utf-8"?>
<!-- Generator: Adobe Illustrator 23.0.3, SVG Export Plug-In . SVG Version: 6.00 Build 0)  -->
<svg version="1.1" xmlns="http://www.w3.org/2000/svg" xmlns:xlink="http://www.w3.org/1999/xlink" x="0px" y="0px" width="64px"
	 height="32px" viewBox="0 0 64 32" style="enable-background:new 0 0 64 32;" xml:space="preserve">
<style type="text/css">
	.st0{display:none;}
	.st1{display:inline;fill:#00FF06;}
	.st2{opacity:0.5;}
	.st3{opacity:0.5;fill:#FFFFFF;}
</style>
<g id="Layer_2" class="st0">
	<rect x="-0.42" y="-0.7" class="st1" width="64.97" height="33.27"/>
</g>
<g id="Layer_1">
	<rect x="62" y="10.7" class="st2" width="2" height="2"/>
	<rect x="58" y="6.7" class="st2" width="2" height="2"/>
	<rect x="58" y="10.7" class="st2" width="2" height="2"/>
	<rect x="58" y="18.7" class="st2" width="2" height="2"/>
	<rect x="34" y="6.7" class="st2" width="2" height="2"/>
	<rect x="34" y="10.7" class="st2" width="2" height="2"/>
	<rect x="34" y="18.7" class="st2" width="2" height="2"/>
	<rect x="30" y="6.7" class="st2" width="2" height="2"/>
	<rect x="30" y="10.7" class="st2" width="2" height="2"/>
	<rect x="30" y="18.7" class="st2" width="2" height="2"/>
	<rect x="6" y="6.7" class="st2" width="2" height="2"/>
	<rect x="6" y="10.7" class="st2" width="2" height="2"/>
	<rect x="6" y="18.7" class="st2" width="2" height="2"/>
	<rect x="2" y="10.7" class="st2" width="2" height="2"/>
	<rect x="38" y="6.7" class="st2" width="2" height="2"/>
	<rect x="38" y="10.7" class="st2" width="2" height="2"/>
	<rect x="38" y="18.7" class="st2" width="2" height="2"/>
	<rect x="42" y="6.7" class="st2" width="2" height="2"/>
	<rect x="42" y="10.7" class="st2" width="2" height="2"/>
	<rect x="42" y="18.7" class="st2" width="2" height="2"/>
	<rect x="46" y="6.7" class="st2" width="2" height="2"/>
	<rect x="46" y="10.7" class="st2" width="2" height="2"/>
	<rect x="46" y="18.7" class="st2" width="2" height="2"/>
	<rect x="50" y="6.7" class="st2" width="2" height="2"/>
	<rect x="50" y="10.7" class="st2" width="2" height="2"/>
	<rect x="50" y="18.7" class="st2" width="2" height="2"/>
	<rect x="54" y="6.7" class="st2" width="2" height="2"/>
	<rect x="54" y="10.7" class="st2" width="2" height="2"/>
	<rect x="54" y="18.7" class="st2" width="2" height="2"/>
	<rect x="26" y="6.7" class="st2" width="2" height="2"/>
	<rect x="26" y="10.7" class="st2" width="2" height="2"/>
	<rect x="26" y="18.7" class="st2" width="2" height="2"/>
	<rect x="22" y="6.7" class="st2" width="2" height="2"/>
	<rect x="22" y="10.7" class="st2" width="2" height="2"/>
	<rect x="22" y="18.7" class="st2" width="2" height="2"/>
	<rect x="18" y="6.7" class="st2" width="2" height="2"/>
	<rect x="18" y="10.7" class="st2" width="2" height="2"/>
	<rect x="18" y="18.7" class="st2" width="2" height="2"/>
	<rect x="14" y="6.7" class="st2" width="2" height="2"/>
	<rect x="14" y="10.7" class="st2" width="2" height="2"/>
	<rect x="14" y="18.7" class="st2" width="2" height="2"/>
	<rect x="10" y="6.7" class="st2" width="2" height="2"/>
	<rect x="10" y="10.7" class="st2" width="2" height="2"/>
	<rect x="62" y="14.7" class="st2" width="2" height="2"/>
	<rect x="58" y="14.7" class="st2" width="2" height="2"/>
	<rect x="34" y="14.7" class="st2" width="2" height="2"/>
	<rect x="30" y="14.7" class="st2" width="2" height="2"/>
	<rect x="6" y="14.7" class="st2" width="2" height="2"/>
	<rect x="2" y="14.7" class="st2" width="2" height="2"/>
	<rect x="38" y="14.7" class="st2" width="2" height="2"/>
	<rect x="42" y="14.7" class="st2" width="2" height="2"/>
	<rect x="46" y="14.7" class="st2" width="2" height="2"/>
	<rect x="50" y="14.7" class="st2" width="2" height="2"/>
	<rect x="54" y="14.7" class="st2" width="2" height="2"/>
	<rect x="26" y="14.7" class="st2" width="2" height="2"/>
	<rect x="22" y="14.7" class="st2" width="2" height="2"/>
	<rect x="18" y="14.7" class="st2" width="2" height="2"/>
	<rect x="14" y="14.7" class="st2" width="2" height="2"/>
	<rect x="10" y="14.7" class="st2" width="2" height="2"/>
	<rect x="10" y="18.7" class="st2" width="2" height="2"/>
	<rect x="60" y="16.7" class="st3" width="2" height="2"/>
	<rect x="56" y="8.7" class="st3" width="2" height="2"/>
	<rect x="56" y="16.7" class="st3" width="2" height="2"/>
	<rect x="56" y="20.7" class="st3" width="2" height="2"/>
	<rect x="32" y="8.7" class="st3" width="2" height="2"/>
	<rect x="32" y="16.7" class="st3" width="2" height="2"/>
	<rect x="32" y="20.7" class="st3" width="2" height="2"/>
	<rect x="36" y="8.7" class="st3" width="2" height="2"/>
	<rect x="36" y="16.7" class="st3" width="2" height="2"/>
	<rect x="36" y="20.7" class="st3" width="2" height="2"/>
	<rect x="40" y="8.7" class="st3" width="2" height="2"/>
	<rect x="40" y="16.7" class="st3" width="2" height="2"/>
	<rect x="40" y="20.7" class="st3" width="2" height="2"/>
	<rect x="44" y="8.7" class="st3" width="2" height="2"/>
	<rect x="44" y="16.7" class="st3" width="2" height="2"/>
	<rect x="44" y="20.7" class="st3" width="2" height="2"/>
	<rect x="48" y="8.7" class="st3" width="2" height="2"/>
	<rect x="48" y="16.7" class="st3" width="2" height="2"/>
	<rect x="48" y="20.7" class="st3" width="2" height="2"/>
	<rect x="52" y="8.7" class="st3" width="2" height="2"/>
	<rect x="52" y="16.7" class="st3" width="2" height="2"/>
	<rect x="52" y="20.7" class="st3" width="2" height="2"/>
	<rect x="28" y="8.7" class="st3" width="2" height="2"/>
	<rect x="28" y="16.7" class="st3" width="2" height="2"/>
	<rect x="28" y="20.7" class="st3" width="2" height="2"/>
	<rect x="24" y="8.7" class="st3" width="2" height="2"/>
	<rect x="24" y="16.7" class="st3" width="2" height="2"/>
	<rect x="24" y="20.7" class="st3" width="2" height="2"/>
	<rect x="20" y="8.7" class="st3" width="2" height="2"/>
	<rect x="20" y="16.7" class="st3" width="2" height="2"/>
	<rect x="20" y="20.7" class="st3" width="2" height="2"/>
	<rect x="16" y="8.7" class="st3" width="2" height="2"/>
	<rect x="16" y="16.7" class="st3" width="2" height="2"/>
	<rect x="16" y="20.7" class="st3" width="2" height="2"/>
	<rect x="12" y="8.7" class="st3" width="2" height="2"/>
	<rect x="12" y="16.7" class="st3" width="2" height="2"/>
	<rect x="12" y="20.7" class="st3" width="2" height="2"/>
	<rect x="8" y="8.7" class="st3" width="2" height="2"/>
	<rect x="8" y="16.7" class="st3" width="2" height="2"/>
	<rect x="8" y="20.7" class="st3" width="2" height="2"/>
	<rect x="4" y="8.7" class="st3" width="2" height="2"/>
	<rect x="4" y="16.7" class="st3" width="2" height="2"/>
	<rect x="4" y="20.7" class="st3" width="2" height="2"/>
	<rect x="0" y="16.7" class="st3" width="2" height="2"/>
	<rect x="60" y="12.7" class="st3" width="2" height="2"/>
	<rect x="56" y="12.7" class="st3" width="2" height="2"/>
	<rect x="32" y="12.7" class="st3" width="2" height="2"/>
	<rect x="36" y="12.7" class="st3" width="2" height="2"/>
	<rect x="40" y="12.7" class="st3" width="2" height="2"/>
	<rect x="44" y="12.7" class="st3" width="2" height="2"/>
	<rect x="48" y="12.7" class="st3" width="2" height="2"/>
	<rect x="52" y="12.7" class="st3" width="2" height="2"/>
	<rect x="28" y="12.7" class="st3" width="2" height="2"/>
	<rect x="24" y="12.7" class="st3" width="2" height="2"/>
	<rect x="20" y="12.7" class="st3" width="2" height="2"/>
	<rect x="16" y="12.7" class="st3" width="2" height="2"/>
	<rect x="12" y="12.7" class="st3" width="2" height="2"/>
	<rect x="8" y="12.7" class="st3" width="2" height="2"/>
	<rect x="4" y="12.7" class="st3" width="2" height="2"/>
	<rect x="0" y="12.7" class="st3" width="2" height="2"/>
</g>
</svg>
