<?xml version="1.0" encoding="utf-8"?>
<!-- Generator: Adobe Illustrator 16.0.0, SVG Export Plug-In . SVG Version: 6.00 Build 0)  -->
<!DOCTYPE svg PUBLIC "-//W3C//DTD SVG 1.1//EN" "http://www.w3.org/Graphics/SVG/1.1/DTD/svg11.dtd">
<svg version="1.1" id="Layer_1" xmlns="http://www.w3.org/2000/svg" xmlns:xlink="http://www.w3.org/1999/xlink" x="0px" y="0px"
	 width="16px" height="800px" viewBox="0 0 16 800" enable-background="new 0 0 16 800" xml:space="preserve">
<g>
	<rect x="1" y="1" fill="#FFFFFF" width="6" height="6"/>
	<rect x="1" y="9" fill="#FFFFFF" width="6" height="6"/>
	<rect x="9" y="1" fill="#FFFFFF" width="6" height="6"/>
	<rect x="9" y="9" fill="#FFFFFF" width="6" height="6"/>
</g>
<g>
	<rect x="1" y="16.95" fill="#FFFFFF" width="6" height="6"/>
	<rect x="1" y="25" fill="#FFFFFF" width="5.95" height="5.95"/>
	<rect x="8.5" y="19.45" fill="#FFFFFF" width="6.5" height="1.55"/>
	<rect x="8.5" y="27.5" fill="#FFFFFF" width="6.5" height="1.55"/>
</g>
<g>
	<path fill="#FFFFFF" d="M13.1,62.6H2.9c-0.9,0-1.6-0.7-1.6-1.6V50.85c0-0.899,0.7-1.6,1.6-1.6h6v1.399h-6
		c-0.15,0-0.25,0.101-0.25,0.25v10.149c0,0.15,0.1,0.25,0.25,0.25h10.15c0.15,0,0.25-0.1,0.25-0.25V55.1h1.4v5.949
		C14.7,61.899,13.95,62.6,13.1,62.6z"/>
</g>
<polygon fill="#FFFFFF" points="10.7,58.049 10.7,56.649 8.25,56.649 14.7,50.2 13.7,49.2 7.25,55.649 7.25,53.2 5.85,53.2 
	5.85,58.049 "/>
<g>
	<path fill="#FFFFFF" d="M13.05,46.649H2.9c-0.9,0-1.6-0.699-1.6-1.6v-10.15C1.3,34,2,33.3,2.9,33.3h6v1.4h-6
		c-0.15,0-0.25,0.1-0.25,0.25V45.1c0,0.15,0.1,0.25,0.25,0.25h10.15c0.15,0,0.25-0.1,0.25-0.25v-5.95h1.4v5.95
		C14.65,45.899,13.9,46.649,13.05,46.649z"/>
</g>
<polygon fill="#FFFFFF" points="9.8,33.25 9.8,34.649 12.25,34.649 5.8,41.1 6.8,42.05 13.25,35.6 13.25,38.1 14.65,38.1 
	14.65,33.25 "/>
<path fill="#FFFFFF" d="M14.55,73.85l-1.2-0.7c0.101-0.649,0.101-1.351,0-2l1.2-0.7c0.15-0.1,0.2-0.25,0.15-0.4
	c-0.3-1-0.851-1.899-1.55-2.649c-0.101-0.101-0.301-0.149-0.4-0.05l-1.2,0.699c-0.5-0.449-1.1-0.75-1.7-1v-1.399
	c0-0.149-0.1-0.3-0.25-0.351c-1.05-0.25-2.1-0.199-3.1,0c-0.15,0.051-0.25,0.15-0.25,0.351v1.399c-0.65,0.201-1.2,0.551-1.7,1
	l-1.2-0.699c-0.15-0.1-0.3-0.051-0.4,0.05c-0.7,0.75-1.25,1.649-1.55,2.649c-0.05,0.15,0,0.301,0.15,0.4l1.2,0.7
	c-0.1,0.649-0.1,1.351,0,2l-1.2,0.7c-0.15,0.1-0.2,0.25-0.15,0.4c0.3,1,0.85,1.899,1.55,2.649c0.1,0.101,0.3,0.149,0.4,0.05
	l1.2-0.699c0.5,0.449,1.1,0.75,1.7,1v1.399c0,0.149,0.1,0.3,0.25,0.351c1.05,0.25,2.1,0.199,3.1,0c0.15-0.051,0.25-0.15,0.25-0.351
	V77.25c0.65-0.201,1.2-0.551,1.7-1l1.2,0.699c0.15,0.1,0.3,0.051,0.4-0.05c0.699-0.75,1.25-1.649,1.55-2.649
	C14.75,74.1,14.65,73.949,14.55,73.85z M8,74.449c-1.25,0-2.25-1-2.25-2.25s1-2.25,2.25-2.25s2.25,1,2.25,2.25S9.25,74.449,8,74.449
	z"/>
<polygon fill="#FFFFFF" points="8,81.85 10,85.85 14.5,86.5 11.25,89.6 12.05,94 8,91.899 3.95,94 4.75,89.6 1.5,86.5 6,85.85 "/>
<path fill="#FFFFFF" d="M8,97.049c-3.55,0-6.4,2.851-6.4,6.4L2.5,111h3.3l-0.75-7.5c0-1.851,1.05-2.951,2.95-2.951
	c1.9,0,2.95,1.101,2.95,2.951l-0.75,7.549h3.3l0.9-7.5C14.4,99.949,11.55,97.049,8,97.049z M5.15,108.35l0.25,2.3H2.9l-0.25-2.3
	H5.15z M13.15,110.649H10.55l0.25-2.3H13.4L13.15,110.649z"/>
<g id="Restore_Default" transform="translate(71.000000, 182.000000)">
	<path id="Combined-Shape_55_" fill="#FFFFFF" d="M-66.4-65.825l1.65,0.649l-4,3.25l-0.75-5.149l1.8,0.699
		c1.25-1.35,2.95-2.149,4.75-2.149c3.55,0,6.45,2.95,6.45,6.55s-2.85,6.55-6.4,6.55v-1.3c2.851,0,5.15-2.35,5.15-5.25
		s-2.3-5.25-5.15-5.25C-64.2-67.175-65.45-66.725-66.4-65.825z M-61.45-61.925c0,0.7-0.55,1.25-1.25,1.25s-1.25-0.55-1.25-1.25
		s0.55-1.25,1.25-1.25C-62.05-63.225-61.45-62.625-61.45-61.925z"/>
</g>
<g id="Clear-Drawings" transform="translate(126.000000, 182.000000)">
	<path id="Combined-Shape_56_" fill="#FFFFFF" d="M-123.45-49.125v-1.25h10.851v1.25H-123.45z M-120.75-51.175v-1.25h5.5v1.25
		H-120.75z M-122.55-48.075h9.149l-0.55,8.6H-122L-122.55-48.075z M-121.9-47.425l0.5,7.351h6.851l0.5-7.351H-121.9L-121.9-47.425z
		 M-118.3-41.825v-4h0.6v4H-118.3z M-120.25-41.825v-4h0.6v4H-120.25z M-116.35-41.775v-4h0.6v4H-116.35z"/>
</g>
<g>
</g>
<g>
</g>
<g>
</g>
<g>
</g>
<g>
</g>
<g>
</g>
<g>
</g>
<g>
</g>
<g>
</g>
<g>
</g>
<g>
</g>
<g>
</g>
<g>
</g>
<g>
</g>
<g>
</g>
</svg>
