<svg width="282" height="193" viewBox="0 0 282 193" fill="none" xmlns="http://www.w3.org/2000/svg">
<path d="M28 28V41.9H54.6V28H28ZM46.9 30.6H48.1V31.8H46.9V30.6ZM34.4 35.6H35.6V36.8H34.4V35.6ZM33.2 34.4V33.2H34.4V34.4H33.2ZM35.7 34.4V33.2H36.9V34.4H35.7ZM36.9 35.6H38.1V36.8H36.9V35.6ZM38.2 34.4V33.2H39.4V34.4H38.2ZM39.4 35.6H40.6V36.8H39.4V35.6ZM40.7 34.4V33.2H41.9V34.4H40.7ZM41.9 35.6H43.1V36.8H41.9V35.6ZM43.1 34.4V33.2H44.3V34.4H43.1ZM44.4 35.6H45.6V36.8H44.4V35.6ZM45.6 34.4V33.2H46.8V34.4H45.6ZM46.9 35.6H48.1V36.8H46.9V35.6ZM48.1 34.4V33.2H49.3V34.4H48.1ZM44.4 30.6H45.6V31.8H44.4V30.6ZM41.9 30.6H43.1V31.8H41.9V30.6ZM39.4 30.6H40.6V31.8H39.4V30.6ZM36.9 30.6H38.1V31.8H36.9V30.6ZM34.4 30.6H35.6V31.8H34.4V30.6ZM30.7 30.6H32H33.2V31.8H32H30.7V30.6ZM32 33.1V34.3H30.8V33.1H32ZM32 39.4H30.8V38.2H32V39.4ZM32 36.9H30.7V35.7H32H33.2V36.9H32ZM34.4 39.4H33.2V38.2H34.4V39.4ZM46.9 39.4H45.7H44.5H43.3H42H40.8H39.6H38.1H37H35.8V38.2H37H38.2H39.4H40.6H41.8H43H44.2H45.4H46.6V39.4H46.9ZM49.4 39.4H48.2V38.2H49.4V39.4ZM51.8 39.4H50.6V38.2H51.8V39.4ZM51.9 36.9H50.6H49.4V35.7H50.6H51.9V36.9ZM50.6 34.4V33.2H51.8V34.4H50.6ZM51.9 31.9H50.6H49.4V30.7H50.6H51.9V31.9Z" fill="black"/>
<path d="M28 52.8V66.7H54.6V52.8H28ZM46.9 55.4H48.1V56.6H46.9V55.4ZM34.4 60.4H35.6V61.6H34.4V60.4ZM33.2 59.1V57.9H34.4V59.1H33.2ZM35.7 59.1V57.9H36.9V59.1H35.7ZM36.9 60.4H38.1V61.6H36.9V60.4ZM38.2 59.1V57.9H39.4V59.1H38.2ZM39.4 60.4H40.6V61.6H39.4V60.4ZM40.7 59.1V57.9H41.9V59.1H40.7ZM41.9 60.4H43.1V61.6H41.9V60.4ZM43.1 59.1V57.9H44.3V59.1H43.1ZM44.4 60.4H45.6V61.6H44.4V60.4ZM45.6 59.1V57.9H46.8V59.1H45.6ZM46.9 60.4H48.1V61.6H46.9V60.4ZM48.1 59.1V57.9H49.3V59.1H48.1ZM44.4 55.4H45.6V56.6H44.4V55.4ZM41.9 55.4H43.1V56.6H41.9V55.4ZM39.4 55.4H40.6V56.6H39.4V55.4ZM36.9 55.4H38.1V56.6H36.9V55.4ZM34.4 55.4H35.6V56.6H34.4V55.4ZM30.7 55.4H32H33.2V56.6H32H30.7V55.4ZM32 57.9V59.1H30.8V57.9H32ZM32 64.1H30.8V62.9H32V64.1ZM32 61.6H30.7V60.4H32H33.2V61.6H32ZM34.4 64.1H33.2V62.9H34.4V64.1ZM46.9 64.1H45.7H44.5H43.3H42H40.8H39.6H38.1H37H35.8V62.9H37H38.2H39.4H40.6H41.8H43H44.2H45.4H46.6V64.1H46.9ZM49.4 64.1H48.2V62.9H49.4V64.1ZM51.8 64.1H50.6V62.9H51.8V64.1ZM51.9 61.6H50.6H49.4V60.4H50.6H51.9V61.6ZM50.6 59.1V57.9H51.8V59.1H50.6ZM51.9 56.6H50.6H49.4V55.4H50.6H51.9V56.6Z" fill="white"/>
</svg>
