<?xml version="1.0" encoding="utf-8"?>
<!-- Generator: Adobe Illustrator 25.2.0, SVG Export Plug-In . SVG Version: 6.00 Build 0)  -->
<svg version="1.1" id="Layer_1" xmlns="http://www.w3.org/2000/svg" xmlns:xlink="http://www.w3.org/1999/xlink" x="0px" y="0px"
	 width="960px" height="560px" viewBox="0 0 960 560" style="enable-background:new 0 0 960 560;" xml:space="preserve">
<style type="text/css">
	.st0{fill:none;stroke:#000000;stroke-miterlimit:10;}
	.st1{fill:#FFFFFF;}
	.st2{fill:none;stroke:#FFFFFF;stroke-miterlimit:10;}
	.st3{fill:#1461D4;}
	.st4{fill:#85C730;}
	.st5{fill:#231F20;}
	.st6{opacity:0.5;}
	.st7{opacity:0.5;fill:#231F20;enable-background:new    ;}
	.st8{opacity:0.5;fill:none;stroke:#231F20;stroke-miterlimit:10;enable-background:new    ;}
	.st9{opacity:0.5;fill:none;stroke:#FFFFFF;stroke-miterlimit:10;enable-background:new    ;}
	.st10{fill:#FF002A;}
	.st11{opacity:0.4;enable-background:new    ;}
	.st12{opacity:0.4;fill:#FFFFFF;enable-background:new    ;}
	.st13{fill:#1A5FD1;}
	.st14{fill:#6080C0;}
	.st15{clip-path:url(#SVGID_3_);fill:#FFFFFF;}
	.st16{opacity:0.4;clip-path:url(#SVGID_6_);fill:#FFFFFF;enable-background:new    ;}
	.st17{clip-path:url(#SVGID_8_);}
	.st18{clip-path:url(#SVGID_10_);fill:#717273;}
	.st19{clip-path:url(#SVGID_12_);fill:#717273;}
	.st20{clip-path:url(#SVGID_14_);fill:#717273;}
	.st21{clip-path:url(#SVGID_16_);fill:#717273;}
	.st22{clip-path:url(#SVGID_18_);fill:#717273;}
	.st23{clip-path:url(#SVGID_20_);fill:#717273;}
	.st24{clip-path:url(#SVGID_22_);fill:#717273;}
	.st25{clip-path:url(#SVGID_24_);fill:#717273;}
	.st26{clip-path:url(#SVGID_26_);fill:#717273;}
	.st27{clip-path:url(#SVGID_28_);fill:#717273;}
	.st28{clip-path:url(#SVGID_30_);fill:#E93F33;}
</style>
<g id="Layer_2_1_">
</g>
<g>
	<path d="M62,31c3.3,0,6,2.7,6,6s-2.7,6-6,6s-6-2.7-6-6S58.7,31,62,31z M62,30c-3.9,0-7,3.1-7,7s3.1,7,7,7s7-3.1,7-7S65.9,30,62,30z
		"/>
	<path class="st0" d="M67,42l4,4"/>
	<path class="st1" d="M62,56c3.3,0,6,2.7,6,6c0,3.3-2.7,6-6,6s-6-2.7-6-6S58.7,56,62,56z M62,55c-3.9,0-7,3.1-7,7s3.1,7,7,7
		s7-3.1,7-7S65.9,55,62,55z"/>
	<path class="st2" d="M67,67l4,4"/>
	<path class="st3" d="M581,36.1h2.5l1.7,2.6l4.2-7.7h2.5l-6.4,11h-0.7L581,36.1z"/>
	<path class="st4" d="M581,62.1h2.5l1.7,2.6l4.2-7.7h2.5l-6.4,11h-0.7L581,62.1z"/>
	<path d="M118,46h1V30h-1V46z"/>
	<path d="M106,38h13v-8h-13l3,4L106,38z"/>
	<path class="st1" d="M118,71h1V55h-1V71z"/>
	<path class="st1" d="M106,63h13v-8h-13l3,4L106,63z"/>
	<path class="st3" d="M542,39h-10v-2h10V39z"/>
	<path class="st3" d="M536,33h2v10h-2"/>
	<path class="st5" d="M220,40v-6h4l-7-7l-7,7h4v6H220z"/>
	<g class="st6">
		<path class="st7" d="M211,37v5v1h1h1.6l-4.6,4.6l-4.6-4.6h1.6h1v-1v-5H211z M212,36h-6v6h-4l7,7l7-7h-4V36z"/>
	</g>
	<path d="M267.7,29l-0.7,0.7l-2.3,2.1L254,42.4V47h4.6l10.6-10.8l2.1-2.2l0.7-0.7L267.7,29z M258.2,46H255v-3.2l10.5-10.3l2.9,3
		L258.2,46z"/>
	<path class="st8" d="M257,46.5h14"/>
	<path d="M358,34.5h-5v10h5V34.5z"/>
	<path class="st0" d="M355.5,31v17"/>
	<path d="M365,31.5h-5v10h5V31.5z"/>
	<path class="st0" d="M362.5,28v17"/>
	<path d="M372,34.5h-5v10h5V34.5z"/>
	<path class="st0" d="M369.5,31v17"/>
	<path d="M170.2,31.7c0,0,2.2,2.2,2.6,2.6c0.5,0.5,0.1,1.1-0.5,1.1c-0.5,0-1.5,0-1.5,0l-4.9,4.9l-0.1,3.2c0,0,0,0.4-0.4,0.7
		c-0.4,0.2-0.9-0.2-0.9-0.2l-2.6-2.6l-5,5l-2.1,0.8l0.8-2.1l5-5l-2.6-2.6c0,0-0.4-0.4-0.2-0.9c0.2-0.4,0.7-0.4,0.7-0.4l3.1-0.1
		l4.9-4.9c0,0,0-1,0-1.5c0-0.6,0.6-0.9,1.1-0.5C168,29.6,170.2,31.7,170.2,31.7z"/>
	<path class="st8" d="M153,31.5h8"/>
	<path class="st8" d="M153,33.5h8"/>
	<path class="st8" d="M153,35.5h3"/>
	<path class="st8" d="M153,29.5h8"/>
	<path class="st1" d="M220,65v-6h4l-7-7l-7,7h4v6H220z"/>
	<path class="st1" d="M211,62v5v1h1h1.6l-4.6,4.6l-4.6-4.6h1.6h1v-1v-5H211z M212,61h-6v6h-4l7,7l7-7h-4V61z"/>
	<path class="st9" d="M268,20.5h-14"/>
	<path class="st1" d="M267.7,54l-0.7,0.7l-2.3,2.1L254,67.4V72h4.6l10.6-10.8l2.1-2.2l0.7-0.7L267.7,54z M258.2,71H255v-3.2
		l10.5-10.3l2.9,3L258.2,71z"/>
	<path class="st9" d="M257,71.5h14"/>
	<path class="st1" d="M358,59.5h-5v10h5V59.5z"/>
	<path class="st2" d="M355.5,56v17"/>
	<path class="st1" d="M365,55.5h-5v10h5V55.5z"/>
	<path class="st2" d="M362.5,53v17"/>
	<path class="st1" d="M372,59.5h-5v10h5V59.5z"/>
	<path class="st2" d="M369.5,56v17"/>
	<path class="st1" d="M170.2,56.7c0,0,2.2,2.2,2.6,2.6c0.5,0.5,0.1,1.1-0.5,1.1c-0.5,0-1.5,0-1.5,0l-4.9,4.9l-0.1,3.2
		c0,0,0,0.4-0.4,0.7c-0.4,0.2-0.9-0.2-0.9-0.2l-2.6-2.6l-5,5l-2.1,0.8l0.8-2.1l5-5l-2.6-2.6c0,0-0.4-0.4-0.2-0.9
		c0.2-0.4,0.7-0.4,0.7-0.4l3.1-0.1l4.9-4.9c0,0,0-1,0-1.5c0-0.6,0.6-0.9,1.1-0.5C168,54.6,170.2,56.7,170.2,56.7z"/>
	<path class="st9" d="M153,56.5h8"/>
	<path class="st9" d="M153,58.5h8"/>
	<path class="st9" d="M153,60.5h3"/>
	<path class="st9" d="M153,54.5h8"/>
	<path d="M320.2,30.4c0,0.6-0.5,1-1.2,1c-0.6,0-0.9-0.2-1.1-0.5c-0.1-0.2-0.2-0.5-0.2-0.8c0-0.2-0.2-0.4-0.5-0.4
		c-0.4,0-0.9,0.3-1.2,0.6c-0.7,0.6-1.1,1.8-1.4,2.7c-0.1,0.4-0.3,0.8-0.4,1.2h2c0.3,0,0.6,0,0.6,0.2c0,0.1,0,0.2-0.1,0.4
		c0,0.2-0.4,0.2-0.6,0.2H314c-0.9,2.7-1.9,5.5-2.8,8.3c-0.4,1.3-1,2.5-1.9,3.5c-1.1,1.1-2.7,1.8-4.1,1.8c-1.3,0-2.2-0.5-2.2-1.4
		c0-0.6,0.4-1.1,1.2-1.1c0.7,0,1.1,0.4,1.2,0.8c0,0.2,0,0.3,0,0.5c0,0.3,0,0.6,0.4,0.6s1-0.4,1.3-0.9c0.6-0.9,1.2-2.6,1.5-3.6
		c1-2.9,2-5.7,2.9-8.5H310c-0.3,0-0.5,0-0.5-0.2s0.1-0.3,0.1-0.4c0.1-0.2,0.3-0.2,0.6-0.2h1.5c0.5-1.4,1.1-2.8,2.3-3.8
		c1-0.8,2.6-1.5,3.9-1.5C319.3,29,320.2,29.4,320.2,30.4z"/>
	<path d="M317.8,38l1.6-2.7h1.5l-2.4,3.6l2.5,3.7h-1.4l-1.7-2.7l-1.7,2.7h-1.5l2.5-3.7l-2.4-3.6h1.4L317.8,38z"/>
	<path class="st0" d="M305.5,28v5"/>
	<path class="st0" d="M303,30.5h5"/>
	<path class="st1" d="M320.2,55.4c0,0.6-0.5,1-1.2,1c-0.6,0-0.9-0.2-1.1-0.5c-0.1-0.2-0.2-0.5-0.2-0.8c0-0.2-0.2-0.4-0.5-0.4
		c-0.4,0-0.9,0.3-1.2,0.6c-0.7,0.6-1.1,1.8-1.4,2.7c-0.1,0.4-0.3,0.8-0.4,1.2h2c0.3,0,0.6,0,0.6,0.2c0,0.1,0,0.2-0.1,0.4
		c0,0.2-0.4,0.2-0.6,0.2H314c-0.9,2.7-1.9,5.5-2.8,8.3c-0.4,1.3-1,2.5-1.9,3.5c-1.1,1.1-2.7,1.8-4.1,1.8c-1.3,0-2.2-0.5-2.2-1.4
		c0-0.6,0.4-1.1,1.2-1.1c0.7,0,1.1,0.4,1.2,0.8c0,0.2,0,0.3,0,0.5c0,0.3,0,0.6,0.4,0.6s1-0.4,1.3-0.9c0.6-0.9,1.2-2.6,1.5-3.6
		c1-2.9,2-5.7,2.9-8.5H310c-0.3,0-0.5,0-0.5-0.2s0.1-0.3,0.1-0.4c0.1-0.2,0.3-0.2,0.6-0.2h1.5c0.5-1.4,1.1-2.8,2.3-3.8
		c1-0.8,2.6-1.5,3.9-1.5C319.3,54,320.2,54.4,320.2,55.4z"/>
	<path class="st1" d="M317.8,63l1.6-2.7h1.5l-2.4,3.6l2.5,3.7h-1.4l-1.7-2.7l-1.7,2.7h-1.5l2.5-3.7l-2.4-3.6h1.4L317.8,63z"/>
	<path class="st2" d="M305.5,53v5"/>
	<path class="st2" d="M303,55.5h5"/>
	<path class="st4" d="M633,38.6h2.6V42h3.7v-3.2h2.6l-4.4-5.8L633,38.6z"/>
	<path class="st10" d="M687.6,42l4.4-5.8h-2.6V33h-3.7v3.4H683L687.6,42z"/>
	<path class="st9" d="M416,37.5h3"/>
	<path class="st9" d="M416,39.5h3"/>
	<path class="st9" d="M416,35.5h3"/>
	<path class="st9" d="M406,37.5h8"/>
	<path class="st9" d="M406,39.5h8"/>
	<path class="st9" d="M406,35.5h8"/>
	<path class="st9" d="M406,33.5h5"/>
	<path d="M404,31v11h14l3,4v-4.2V31H404z M406,33h5v1h-5V33z M414,40h-8v-1h8V40z M414,38h-8v-1h8V38z M414,36h-8v-1h8V36z M419,40
		h-3v-1h3V40z M419,38h-3v-1h3V38z M419,36h-3v-1h3V36z"/>
	<path class="st11" d="M421,41.8V46l-3-4h-14V31h17V41.8z"/>
	<path class="st1" d="M404,56v11h14l3,4v-4.2V56H404z M406,58h5v1h-5V58z M414,65h-8v-1h8V65z M414,63h-8v-1h8V63z M414,61h-8v-1h8
		V61z M419,65h-3v-1h3V65z M419,63h-3v-1h3V63z M419,61h-3v-1h3V61z"/>
	<path class="st12" d="M421,66.8V71l-3-4h-14V56h17V66.8z"/>
	<rect x="454.6" y="29.7" width="1" height="6.4"/>
	<rect x="454.6" y="39.4" width="1" height="6.4"/>
	<rect x="456.8" y="37.2" width="6.4" height="1"/>
	<rect x="447.1" y="37.2" width="6.4" height="1"/>
	<rect x="454.6" y="55.3" class="st1" width="1" height="6.4"/>
	<rect x="454.6" y="65" class="st1" width="1" height="6.4"/>
	<rect x="456.8" y="62.8" class="st1" width="6.4" height="1"/>
	<rect x="447.1" y="62.8" class="st1" width="6.4" height="1"/>
	<path class="st13" d="M733,33.5v8.9l7.7-4.4L733,33.5z"/>
	<path class="st14" d="M782.9,34.8h1.8l-3-4.3l-3,4.3h1.8v5.4h-1.8l3,4.3l3-4.3h-1.8V34.8z"/>
	<path class="st5" d="M826,33.1c1.1,0,2-0.9,2-2s-0.9-2-2-2s-2,0.9-2,2C824,32.2,824.9,33.1,826,33.1z"/>
	<path class="st5" d="M826,38.5c1.1,0,2-0.9,2-2s-0.9-2-2-2s-2,0.9-2,2S824.9,38.5,826,38.5z"/>
	<path class="st5" d="M826,44c1.1,0,2-0.9,2-2s-0.9-2-2-2s-2,0.9-2,2S824.9,44,826,44z"/>
	<path class="st1" d="M826,59.1c1.1,0,2-0.9,2-2s-0.9-2-2-2s-2,0.9-2,2S824.9,59.1,826,59.1z"/>
	<path class="st1" d="M826,64.5c1.1,0,2-0.9,2-2s-0.9-2-2-2s-2,0.9-2,2S824.9,64.5,826,64.5z"/>
	<path class="st1" d="M826,70c1.1,0,2-0.9,2-2s-0.9-2-2-2s-2,0.9-2,2S824.9,70,826,70z"/>
	<g>
		<path id="SVGID_5_" d="M494.5,35c1.7,0,3,1.3,3,3s-1.3,3-3,3s-3-1.3-3-3S492.9,35,494.5,35z M494.5,33c-2.8,0-5,2.2-5,5s2.2,5,5,5
			s5-2.2,5-5S497.3,33,494.5,33z M494.5,31c3.7,0,7,2.3,10,7c-3,4.7-6.3,7-10,7s-7-2.3-10-7C487.5,33.3,490.9,31,494.5,31z"/>
	</g>
	<g>
		<g>
			<g>
				<g>
					<g>
						<defs>
							<path id="SVGID_2_" d="M856.4,60h-3v-1h3V60z M856.4,62h-3v-1h3V62z M856.4,68h-3v-1h3V68z M866.4,68h-8v-1h8V68z M856.4,66
								h-3v-1h3V66z M866.4,66h-8v-1h8V66z M856.4,64h-3v-1h3V64z M866.4,60h-8v-1h8V60z M866.4,62h-8v-1h8V62z M866.4,64h-8v-1h8
								V64z M851.4,58v11c0,1.1,0.9,2,2,2h13c1.1,0,2-0.9,2-2v-2.2V58c0-1.1-0.9-2-2-2h-13C852.3,56,851.4,56.9,851.4,58z"/>
						</defs>
						<clipPath id="SVGID_3_">
							<use xlink:href="#SVGID_2_"  style="overflow:visible;"/>
						</clipPath>
						<rect x="846.4" y="51" class="st15" width="27" height="25"/>
					</g>
				</g>
			</g>
		</g>
	</g>
	<g>
		<g>
			<g>
				<g>
					<g>
						<defs>
							<path id="SVGID_4_" d="M866.4,71h-13c-1.1,0-2-0.9-2-2V58c0-1.1,0.9-2,2-2h13c1.1,0,2,0.9,2,2v11
								C868.4,70.1,867.6,71,866.4,71z"/>
						</defs>
						<clipPath id="SVGID_6_">
							<use xlink:href="#SVGID_4_"  style="overflow:visible;"/>
						</clipPath>
						<rect x="846.4" y="51" class="st16" width="27" height="25"/>
					</g>
				</g>
			</g>
		</g>
		<line class="st2" x1="863.8" y1="37.7" x2="866.8" y2="37.7"/>
		<line class="st2" x1="863.8" y1="39.7" x2="866.8" y2="39.7"/>
		<line class="st2" x1="863.8" y1="35.7" x2="866.8" y2="35.7"/>
		<line class="st2" x1="853.8" y1="37.7" x2="861.8" y2="37.7"/>
		<line class="st2" x1="853.8" y1="39.7" x2="861.8" y2="39.7"/>
		<line class="st2" x1="853.8" y1="35.7" x2="861.8" y2="35.7"/>
		<line class="st2" x1="853.8" y1="33.7" x2="858.8" y2="33.7"/>
		<g>
			<g>
				<g>
					<g>
						<defs>
							<path id="SVGID_7_" d="M851.8,33.2v11c0,1.1,0.9,2,2,2l0,0h13c1.1,0,2-0.9,2-2v-11c0-1.1-0.9-2-2-2h-13
								C852.7,31.2,851.8,32.1,851.8,33.2z"/>
						</defs>
						<clipPath id="SVGID_8_">
							<use xlink:href="#SVGID_7_"  style="overflow:visible;"/>
						</clipPath>
						<rect x="846.8" y="26.2" class="st17" width="27" height="25"/>
					</g>
				</g>
			</g>
		</g>
	</g>
	<g>
		<g>
			<g>
				<g>
					<g>
						<defs>
							<rect id="SVGID_9_" x="858.8" y="34.2" width="8" height="1"/>
						</defs>
						<clipPath id="SVGID_10_">
							<use xlink:href="#SVGID_9_"  style="overflow:visible;"/>
						</clipPath>
						<rect x="853.8" y="29.2" class="st18" width="18" height="11"/>
					</g>
				</g>
			</g>
		</g>
	</g>
	<g>
		<g>
			<g>
				<g>
					<g>
						<defs>
							<rect id="SVGID_11_" x="858.8" y="36.2" width="8" height="1"/>
						</defs>
						<clipPath id="SVGID_12_">
							<use xlink:href="#SVGID_11_"  style="overflow:visible;"/>
						</clipPath>
						<rect x="853.8" y="31.2" class="st19" width="18" height="11"/>
					</g>
				</g>
			</g>
		</g>
	</g>
	<g>
		<g>
			<g>
				<g>
					<g>
						<defs>
							<rect id="SVGID_13_" x="853.8" y="34.2" width="3" height="1"/>
						</defs>
						<clipPath id="SVGID_14_">
							<use xlink:href="#SVGID_13_"  style="overflow:visible;"/>
						</clipPath>
						<rect x="848.8" y="29.2" class="st20" width="13" height="11"/>
					</g>
				</g>
			</g>
		</g>
	</g>
	<g>
		<g>
			<g>
				<g>
					<g>
						<defs>
							<rect id="SVGID_15_" x="853.8" y="36.2" width="3" height="1"/>
						</defs>
						<clipPath id="SVGID_16_">
							<use xlink:href="#SVGID_15_"  style="overflow:visible;"/>
						</clipPath>
						<rect x="848.8" y="31.2" class="st21" width="13" height="11"/>
					</g>
				</g>
			</g>
		</g>
	</g>
	<g>
		<g>
			<g>
				<g>
					<g>
						<defs>
							<rect id="SVGID_17_" x="858.8" y="38.2" width="8" height="1"/>
						</defs>
						<clipPath id="SVGID_18_">
							<use xlink:href="#SVGID_17_"  style="overflow:visible;"/>
						</clipPath>
						<rect x="853.8" y="33.2" class="st22" width="18" height="11"/>
					</g>
				</g>
			</g>
		</g>
	</g>
	<g>
		<g>
			<g>
				<g>
					<g>
						<defs>
							<rect id="SVGID_19_" x="853.8" y="38.2" width="3" height="1"/>
						</defs>
						<clipPath id="SVGID_20_">
							<use xlink:href="#SVGID_19_"  style="overflow:visible;"/>
						</clipPath>
						<rect x="848.8" y="33.2" class="st23" width="13" height="11"/>
					</g>
				</g>
			</g>
		</g>
	</g>
	<g>
		<g>
			<g>
				<g>
					<g>
						<defs>
							<rect id="SVGID_21_" x="858.8" y="40.2" width="8" height="1"/>
						</defs>
						<clipPath id="SVGID_22_">
							<use xlink:href="#SVGID_21_"  style="overflow:visible;"/>
						</clipPath>
						<rect x="853.8" y="35.2" class="st24" width="18" height="11"/>
					</g>
				</g>
			</g>
		</g>
	</g>
	<g>
		<g>
			<g>
				<g>
					<g>
						<defs>
							<rect id="SVGID_23_" x="853.8" y="40.2" width="3" height="1"/>
						</defs>
						<clipPath id="SVGID_24_">
							<use xlink:href="#SVGID_23_"  style="overflow:visible;"/>
						</clipPath>
						<rect x="848.8" y="35.2" class="st25" width="13" height="11"/>
					</g>
				</g>
			</g>
		</g>
	</g>
	<g>
		<g>
			<g>
				<g>
					<g>
						<defs>
							<rect id="SVGID_25_" x="858.8" y="42.2" width="8" height="1"/>
						</defs>
						<clipPath id="SVGID_26_">
							<use xlink:href="#SVGID_25_"  style="overflow:visible;"/>
						</clipPath>
						<rect x="853.8" y="37.2" class="st26" width="18" height="11"/>
					</g>
				</g>
			</g>
		</g>
	</g>
	<g>
		<g>
			<g>
				<g>
					<g>
						<defs>
							<rect id="SVGID_27_" x="853.8" y="42.2" width="3" height="1"/>
						</defs>
						<clipPath id="SVGID_28_">
							<use xlink:href="#SVGID_27_"  style="overflow:visible;"/>
						</clipPath>
						<rect x="848.8" y="37.2" class="st27" width="13" height="11"/>
					</g>
				</g>
			</g>
		</g>
	</g>
	<g>
		<path id="SVGID_1_" class="st1" d="M494.5,60.5c1.7,0,3,1.3,3,3c0,1.7-1.3,3-3,3s-3-1.3-3-3S492.9,60.5,494.5,60.5z M494.5,58.5
			c-2.8,0-5,2.2-5,5c0,2.8,2.2,5,5,5s5-2.2,5-5S497.3,58.5,494.5,58.5z M494.5,56.5c3.7,0,7,2.3,10,7c-3,4.7-6.3,7-10,7s-7-2.3-10-7
			C487.5,58.8,490.9,56.5,494.5,56.5z"/>
	</g>
	<path d="M889.8,31.8v13.9h26.6V31.8H889.8z M908.7,34.4h1.2v1.2h-1.2V34.4z M896.2,39.4h1.2v1.2h-1.2V39.4z M895,38.2V37h1.2v1.2
		H895z M897.5,38.2V37h1.2v1.2H897.5z M898.7,39.4h1.2v1.2h-1.2V39.4z M900,38.2V37h1.2v1.2H900z M901.2,39.4h1.2v1.2h-1.2V39.4z
		 M902.5,38.2V37h1.2v1.2H902.5z M903.7,39.4h1.2v1.2h-1.2V39.4z M904.9,38.2V37h1.2v1.2H904.9z M906.2,39.4h1.2v1.2h-1.2V39.4z
		 M907.4,38.2V37h1.2v1.2H907.4z M908.7,39.4h1.2v1.2h-1.2V39.4z M909.9,38.2V37h1.2v1.2H909.9z M906.2,34.4h1.2v1.2h-1.2V34.4z
		 M903.7,34.4h1.2v1.2h-1.2V34.4z M901.2,34.4h1.2v1.2h-1.2V34.4z M898.7,34.4h1.2v1.2h-1.2V34.4z M896.2,34.4h1.2v1.2h-1.2V34.4z
		 M892.5,34.4h1.3l0,0h1.2l0,0v1.2l0,0h-1.2l0,0h-1.3V34.4z M893.8,36.9v1.2h-1.2v-1.2H893.8z M893.8,43.2h-1.2V42h1.2V43.2z
		 M893.8,40.7h-1.3v-1.2h1.3l0,0h1.2l0,0v1.2l0,0H893.8L893.8,40.7z M896.2,43.2H895V42h1.2V43.2z M908.7,43.2h-1.2h-1.2h-1.2h-1.3
		h-1.2h-1.2h-1.5h-1.1h-1.2V42h1.2h1.2h1.2h1.2h1.2h1.2h1.2h1.2h1.2v1.2H908.7z M911.2,43.2H910V42h1.2V43.2z M913.6,43.2h-1.2V42
		h1.2V43.2z M913.7,40.7h-1.3l0,0h-1.2l0,0l0,0v-1.2l0,0l0,0h1.2l0,0h1.3V40.7z M912.4,38.2V37h1.2v1.2H912.4z M913.7,35.7h-1.3l0,0
		h-1.2l0,0l0,0v-1.2l0,0l0,0h1.2l0,0h1.3V35.7z"/>
	<path class="st1" d="M889.8,57.6v13.9h26.6V57.6H889.8z M908.7,60.2h1.2v1.2h-1.2V60.2z M896.2,65.2h1.2v1.2h-1.2V65.2z M895,63.9
		v-1.2h1.2v1.2H895z M897.5,63.9v-1.2h1.2v1.2H897.5z M898.7,65.2h1.2v1.2h-1.2V65.2z M900,63.9v-1.2h1.2v1.2H900z M901.2,65.2h1.2
		v1.2h-1.2V65.2z M902.5,63.9v-1.2h1.2v1.2H902.5z M903.7,65.2h1.2v1.2h-1.2V65.2z M904.9,63.9v-1.2h1.2v1.2H904.9z M906.2,65.2h1.2
		v1.2h-1.2V65.2z M907.4,63.9v-1.2h1.2v1.2H907.4z M908.7,65.2h1.2v1.2h-1.2V65.2z M909.9,63.9v-1.2h1.2v1.2H909.9z M906.2,60.2h1.2
		v1.2h-1.2V60.2z M903.7,60.2h1.2v1.2h-1.2V60.2z M901.2,60.2h1.2v1.2h-1.2V60.2z M898.7,60.2h1.2v1.2h-1.2V60.2z M896.2,60.2h1.2
		v1.2h-1.2V60.2z M892.5,60.2h1.3l0,0h1.2l0,0v1.2l0,0h-1.2l0,0h-1.3V60.2z M893.8,62.7v1.2h-1.2v-1.2H893.8z M893.8,68.9h-1.2v-1.2
		h1.2V68.9z M893.8,66.4h-1.3v-1.2h1.3l0,0h1.2l0,0v1.2l0,0H893.8L893.8,66.4z M896.2,68.9H895v-1.2h1.2V68.9z M908.7,68.9h-1.2
		h-1.2h-1.2h-1.3h-1.2h-1.2h-1.5h-1.1h-1.2v-1.2h1.2h1.2h1.2h1.2h1.2h1.2h1.2h1.2h1.2v1.2H908.7z M911.2,68.9H910v-1.2h1.2V68.9z
		 M913.6,68.9h-1.2v-1.2h1.2V68.9z M913.7,66.4h-1.3l0,0h-1.2l0,0l0,0v-1.2l0,0l0,0h1.2l0,0h1.3V66.4z M912.4,63.9v-1.2h1.2v1.2
		H912.4z M913.7,61.4h-1.3l0,0h-1.2l0,0l0,0v-1.2l0,0l0,0h1.2l0,0h1.3V61.4z"/>
</g>
<g>
	<defs>
		<rect id="SVGID_29_" x="532.3" y="64.2" width="8" height="1.9"/>
	</defs>
	<clipPath id="SVGID_30_">
		<use xlink:href="#SVGID_29_"  style="overflow:visible;"/>
	</clipPath>
	<rect x="527.3" y="59.2" class="st28" width="18" height="11.9"/>
</g>
</svg>
