<?xml version="1.0" encoding="UTF-8"?>
<svg width="32px" height="1627px" viewBox="0 0 32 1627" version="1.1" xmlns="http://www.w3.org/2000/svg" xmlns:xlink="http://www.w3.org/1999/xlink">
    <!-- Generator: Sketch 62 (91390) - https://sketch.com -->
    <title>stx-sprite-drawing-tools-white</title>
    <desc>Created with Sketch.</desc>
    <g id="stx-sprite-drawing-tools-white" stroke="none" stroke-width="1" fill="none" fill-rule="evenodd">
        <g id="Text_Annotation" transform="translate(3.000000, 0.000000)" fill="#FFFFFF" fill-rule="nonzero">
            <path d="M17.3,9.4 L14,9.4 L14,18.8 L11.8,18.8 L11.8,9.4 L8.4,9.4 L8.4,7.7 L17.3,7.7 C17.3,7.7 17.3,9.4 17.3,9.4 Z M0,26 L0,0 L26,0 L26,26 L0,26 Z M2.6,23.4 L23.4,23.4 L23.4,2.6 L2.6,2.6 L2.6,23.4 Z" id="Combined-Shape"></path>
        </g>
        <g id="Average_Line" transform="translate(3.000000, 35.000000)" fill="#FFFFFF" fill-rule="nonzero">
            <polygon id="Combined-Shape_1_" points="1.3 8.4 22.4 8.4 24.7 8.4 24.7 0.5 26 0.5 26 8.4 26 11.4 26 19.5 24.7 19.5 24.7 11.4 1.3 11.4 1.3 19.5 0 19.5 0 11.4 0 8.4 0 0.5 1.3 0.5"></polygon>
        </g>
        <g id="Callout" transform="translate(3.000000, 63.000000)" fill="#FFFFFF" fill-rule="nonzero">
            <path d="M20.8,0.9 L5.2,0.9 C2.3,0.9 0,3.2 0,6.1 L0,14.6 C0,17.5 2.3,19.8 5.2,19.8 L5.2,26.9 L13,19.8 L20.8,19.8 C23.7,19.8 26,17.5 26,14.6 L26,6.1 C26,3.2 23.7,0.9 20.8,0.9 M20.8,3.5 C22.3,3.5 23.4,4.6 23.4,6.1 L23.4,14.6 C23.4,16.1 22.3,17.2 20.8,17.2 L13,17.2 L12,17.2 L11.2,17.9 L7.7,21 L7.7,19.8 L7.7,17.2 L5.1,17.2 C3.6,17.2 2.5,16.1 2.5,14.6 L2.5,6.1 C2.5,4.6 3.6,3.5 5.1,3.5 L20.8,3.5" id="Fill-1"></path>
        </g>
        <g id="Channel" transform="translate(3.000000, 96.000000)" fill="#FFFFFF" fill-rule="nonzero">
            <path d="M24.9,0 L26,2.3 L1.1,14.8 L0,12.5 L24.9,0 Z M0,23.7 L24.9,11.3 L26,13.6 L1.1,26.1 L0,23.7 Z" id="Combined-Shape_2_"></path>
        </g>
        <g id="LineSans_Doodle" transform="translate(3.000000, 165.000000)" fill="#FFFFFF" fill-rule="nonzero">
            <path d="M8.4,6.6 L8.4,6.6 C7.7,8.1 7.4,9.8 7.5,11.4 C7.7,12.6 8.2,13.4 8.5,13.6 C8.8,13.3 9.4,12.3 9.4,10.8 C9.5,9.3 9,7.9 8.4,6.6 M8.5,16 C8,16 7.5,15.8 7,15.6 C6,14.9 5.2,13.4 5,11.7 C4.7,9.7 5.1,7.5 6,5.6 C6.2,5.3 6.3,4.9 6.6,4.6 C6.1,4.3 5.6,4.2 5.1,4.3 C4.1,4.6 2.8,6.4 2.5,8.9 L0,8.6 C0.4,5.3 2.2,2.6 4.3,1.9 C5.6,1.5 7,1.7 8.2,2.6 C8.5,2.3 8.7,2.1 9,1.9 C10,1 11.3,0.2 12.7,0.2 C14.4,0.2 15.9,1.4 16.5,3.3 C16.9,4.8 16.9,5.2 16.8,6.2 C16.8,6.5 16.7,6.9 16.7,7.4 C16.6,8.4 16.8,8.6 16.8,8.7 C16.9,8.8 17.1,8.9 17.2,9 C17.4,8.9 17.5,8.7 17.8,8.2 C18.1,7.8 18.2,7.4 18.4,7.2 C18.7,6.8 18.8,6.5 19,5.9 C19.7,3.7 20.6,2.5 21.9,2 C23.4,1.3 24.8,1.7 25.9,2.1 L25,4.4 C24,4.1 23.4,4.1 22.9,4.2 C22.4,4.5 21.9,5.3 21.3,6.7 C21,7.6 20.7,8.1 20.4,8.5 C20.2,8.8 20.1,9 20,9.4 C19.7,10 19,11.1 17.8,11.6 C17.2,11.8 16.6,11.7 16.1,11.4 C14.5,10.5 14,9.8 14.1,7.5 C14.1,6.9 14.2,6.5 14.2,6.1 C14.3,5.4 14.3,5.2 13.9,4.3 C13.5,3.4 13,2.9 12.6,2.9 L12.6,2.9 C12,2.9 11.1,3.5 10.5,4 C10.2,4.2 10,4.4 9.7,4.7 C9.9,5 10,5.1 10.1,5.4 C11.1,7 11.6,9.1 11.6,11 C11.5,13.2 10.6,15.8 8.7,16.2 C8.9,15.9 8.7,16 8.5,16" id="Fill-1_2_"></path>
        </g>
        <g id="LineSans_Horizontal" transform="translate(3.000000, 203.000000)" fill="#FFFFFF" fill-rule="nonzero">
            <polygon id="Path" points="0 3.3 26 3.3 26 0.7 0 0.7"></polygon>
        </g>
        <g id="LineSans" transform="translate(3.000000, 228.000000)" fill="#FFFFFF" fill-rule="nonzero">
            <polygon id="Path" points="24.7 0.3 0 15.5 1.3 17.7 26 2.5"></polygon>
        </g>
        <g id="LineSans_Segment" transform="translate(3.000000, 253.000000)" fill="#FFFFFF" fill-rule="nonzero">
            <path d="M0,12.8 L0.7,10.4 L20,16.1 L19.3,18.5 L0,12.8 Z M21.3,23.4 L21.3,21.6 L23.8,21.6 L23.8,23.4 L21.3,23.4 Z M16.3,23.4 L16.3,21.6 L18.8,21.6 L18.8,23.4 L16.3,23.4 Z M11.3,23.4 L11.3,21.6 L13.8,21.6 L13.8,23.4 L11.3,23.4 Z M6.3,23.4 L6.3,21.6 L8.8,21.6 L8.8,23.4 L6.3,23.4 Z M1.3,23.4 L1.3,21.6 L3.8,21.6 L3.8,23.4 L1.3,23.4 Z M24.2,2 L24.2,0.1 L25.5,0.1 L25.5,2 L24.2,2 Z M24.2,6.8 L24.2,4.4 L26,4.4 L26,6.8 L24.2,6.8 Z M24.2,11.6 L24.2,9.2 L26,9.2 L26,11.6 L24.2,11.6 Z M24.2,16.3 L24.2,13.9 L26,13.9 L26,16.3 L24.2,16.3 Z M24.2,21.2 L24.2,18.8 L26,18.8 L26,21.2 L24.2,21.2 Z M24.2,25.5 L24.2,23.6 L25.5,23.6 L25.5,25.5 L24.2,25.5 Z" id="Combined-Shape_8_"></path>
        </g>
        <g id="LineSans_Continuouos" transform="translate(3.000000, 294.000000)" fill="#FFFFFF" fill-rule="nonzero">
            <polygon id="Path" points="24.2 0.9 18.6 7.1 12.9 4.4 6.6 9.5 2.1 2.6 0 3.8 6.1 13.1 13.3 7.2 19.2 10 26 2.5"></polygon>
        </g>
        <g id="LineSans_Vertical" transform="translate(14.000000, 319.000000)" fill="#FFFFFF" fill-rule="nonzero">
            <polygon id="Path" points="0.3 26.9 3.7 26.9 3.7 0.9 0.3 0.9"></polygon>
        </g>
        <g id="Shape_Elipse" transform="translate(3.000000, 355.000000)" fill="#FFFFFF" fill-rule="nonzero">
            <path d="M13,0.4 C5.8,0.4 0,4.6 0,9.9 C0,15.2 5.8,19.4 13,19.4 C20.2,19.4 26,15.2 26,9.9 C26,4.6 20.2,0.4 13,0.4 M13,2.9 C18.6,2.9 23.4,6.1 23.4,9.9 C23.4,13.7 18.6,16.9 13,16.9 C7.4,16.9 2.6,13.7 2.6,9.9 C2.6,6.1 7.4,2.9 13,2.9" id="Fill-1_4_"></path>
        </g>
        <g id="Fib_Retracement" transform="translate(3.000000, 384.000000)" fill="#FFFFFF" fill-rule="nonzero">
            <path d="M23.4,2 L23.4,0.3 L25.8,0.3 L25.8,2 L23.4,2 Z M18.5,2 L18.5,0.3 L20.9,0.3 L20.9,2 L18.5,2 Z M10.5,13.2 L10.5,12 L25.4,12 L25.4,13.2 L10.5,13.2 Z M24.2,25.6 L24.2,23.9 L26,23.9 L26,25.6 L24.2,25.6 Z M19.3,25.6 L19.3,23.9 L21.7,23.9 L21.7,25.6 L19.3,25.6 Z M14.5,25.6 L14.5,23.9 L16.9,23.9 L16.9,25.6 L14.5,25.6 Z M9.7,25.6 L9.7,23.9 L12.1,23.9 L12.1,25.6 L9.7,25.6 Z M4.9,25.6 L4.9,23.9 L7.3,23.9 L7.3,25.6 L4.9,25.6 Z M0,25.6 L0,23.9 L2.4,23.9 L2.4,25.6 L0,25.6 Z M5.5,19.7 L5.5,17.2 L25.3,17.2 L25.3,19.7 L5.5,19.7 Z M15.4,8.5 L15.4,6 L25.4,6 L25.4,8.5 L15.4,8.5 Z" id="Combined-Shape_10_"></path>
        </g>
        <g id="Fib_Projection" transform="translate(3.000000, 416.000000)" fill="#FFFFFF" fill-rule="nonzero">
            <path d="M0.6,24.9 L0.6,23.7 L2.4,23.7 L2.4,24.9 L0.6,24.9 Z M19.1,25.4 L19.1,23.6 L21.5,23.6 L21.5,25.4 L19.1,25.4 Z M14.3,25.4 L14.3,23.6 L16.7,23.6 L16.7,25.4 L14.3,25.4 Z M9.5,25.4 L9.5,23.6 L11.9,23.6 L11.9,25.4 L9.5,25.4 Z M4.8,25.4 L4.8,23.6 L7.2,23.6 L7.2,25.4 L4.8,25.4 Z M23.8,24.9 L23.8,23.7 L25.6,23.7 L25.6,24.9 L23.8,24.9 Z M10.9,13.4 L10.9,11.6 L13.3,11.6 L13.3,13.4 L10.9,13.4 Z M6,13.4 L6,11.6 L8.4,11.6 L8.4,13.4 L6,13.4 Z M14.6,18.8 L14.6,17.6 L16.4,17.6 L16.4,18.8 L14.6,18.8 Z M18.7,18.8 L18.7,17.6 L21.1,17.6 L21.1,18.8 L18.7,18.8 Z M23.5,18.8 L23.5,17.6 L25.3,17.6 L25.3,18.8 L23.5,18.8 Z M1,18.8 L1,17.6 L3.4,17.6 L3.4,18.8 L1,18.8 Z M1.1,2.9 L1.1,0.5 L25.6,0.5 L25.6,2.9 L1.1,2.9 Z M1.1,7.3 L1.1,6.1 L20.1,6.1 L20.1,7.3 L1.1,7.3 Z M9.2,17.5 L24.5,5.4 L26.1,7.2 L9.2,20.6 L0.1,12.3 L1.7,10.6 L9.2,17.5 Z" id="Combined-Shape_11_"></path>
        </g>
        <g id="Fib_Arc" transform="translate(3.000000, 450.000000)" fill="#FFFFFF" fill-rule="nonzero">
            <path d="M17.9,21.3 L16.8,21.3 L16.8,20.7 C16.8,18.7 15.2,17 13.1,17 C11,17 9.4,18.6 9.4,20.7 L9.4,21.3 L8.3,21.3 L8.3,20.7 C8.3,18 10.5,15.8 13.2,15.8 C15.9,15.8 18.1,18 18.1,20.7 L18.1,21.3 L17.9,21.3 Z M11.9,12.8 L11.8,11.7 L12.4,11.7 C12.6,11.7 12.8,11.7 13,11.7 C13.2,11.7 13.3,11.7 13.6,11.7 L14.2,11.7 L14.1,12.8 L13.5,12.8 C13.3,12.8 13.2,12.8 13,12.8 C12.8,12.8 12.7,12.8 12.5,12.8 L11.9,12.8 Z M17,13.8 L16.5,13.6 C16.2,13.4 15.9,13.3 15.5,13.2 L15,13 L15.3,12 L15.8,12.2 C16.1,12.3 16.6,12.5 16.9,12.6 L17.4,12.9 L17,13.8 Z M8.9,13.9 L8.4,12.9 L8.9,12.6 C9.2,12.4 9.6,12.3 10,12.2 L10.5,12 L10.8,13 L10.3,13.2 C10,13.3 9.7,13.5 9.3,13.6 L8.9,13.9 Z M19.3,15.9 L19,15.5 C18.7,15.2 18.6,15 18.2,14.8 L17.8,14.5 L18.6,13.6 L19,13.9 C19.3,14.2 19.6,14.4 19.9,14.8 L20.2,15.2 L19.3,15.9 Z M6.7,15.9 L5.8,15.1 L6.1,14.7 C6.4,14.4 6.6,14.1 7,13.8 L7.4,13.5 L8.2,14.4 L7.8,14.7 C7.5,15 7.3,15.1 7.1,15.4 L6.7,15.9 Z M20.7,18.6 L20.5,18.1 C20.4,17.8 20.2,17.5 20.1,17.1 L19.8,16.6 L20.8,16.1 L21.1,16.6 C21.3,16.9 21.4,17.3 21.5,17.7 L21.7,18.2 L20.7,18.6 Z M5.3,18.7 L4.3,18.4 L4.5,17.9 C4.6,17.6 4.8,17.1 4.9,16.8 L5.2,16.3 L6.2,16.8 L5.9,17.3 C5.7,17.6 5.6,17.9 5.5,18.3 L5.3,18.7 Z M22.1,21.3 L21,21.3 L21,20.7 C21,20.5 21,20.4 21,20.2 L21,19.6 L22.1,19.5 L22.1,20.1 C22.1,20.3 22.1,20.5 22.1,20.7 L22.1,21.3 Z M14.7,8.6 L14.1,8.5 C13.8,8.5 13.4,8.4 13,8.4 L12.4,8.4 L12.4,7.3 L13,7.3 C13.4,7.3 13.8,7.3 14.2,7.4 L14.8,7.5 L14.7,8.6 Z M9.3,9.1 L9,8 L9.5,7.8 C9.8,7.7 10.3,7.6 10.6,7.5 L11.1,7.4 L11.3,8.5 L10.8,8.6 C10.5,8.7 10.1,8.8 9.8,8.9 L9.3,9.1 Z M17.9,9.5 L17.4,9.2 C17.1,9.1 16.7,8.9 16.4,8.9 L15.9,8.7 L16.2,7.6 L16.7,7.8 C17,7.9 17.5,8.1 17.8,8.1 L18.3,8.3 L17.9,9.5 Z M6.3,10.4 L5.7,9.4 L6.2,9.1 C6.5,8.9 6.9,8.8 7.2,8.6 L7.7,8.3 L8.2,9.3 L7.7,9.6 C7.4,9.8 7.1,9.9 6.7,10.1 L6.3,10.4 Z M20.6,11.2 L20.2,10.9 C19.9,10.7 19.6,10.5 19.3,10.3 L18.8,10 L19.4,9 L19.9,9.3 C20.2,9.5 20.6,9.7 20.9,10 L21.3,10.3 L20.6,11.2 Z M3.9,12.6 L3.1,11.8 L3.5,11.4 C3.8,11.1 4.1,10.9 4.4,10.6 L4.8,10.3 L5.5,11.2 L5.1,11.5 C4.8,11.8 4.6,12 4.3,12.3 L3.9,12.6 Z M22.9,13.5 L22.6,13.1 C22.3,12.8 22.2,12.6 21.9,12.3 L21.5,11.9 L22.3,11.1 L22.7,11.5 C23,11.8 23.2,12.1 23.5,12.4 L23.8,12.8 L22.9,13.5 Z M2.1,15.2 L1.1,14.7 L1.4,14.2 C1.6,13.9 1.8,13.5 2,13.2 L2.3,12.8 L3.3,13.4 L3,13.8 C2.8,14.1 2.6,14.4 2.4,14.8 L2.1,15.2 Z M24.2,15.8 L23.9,15.3 C23.8,15.1 23.7,15 23.7,15 L23.4,14.5 L24.4,14 L24.7,14.5 C24.8,14.7 24.9,14.8 25,14.9 L25.3,15.4 L24.2,15.8 Z M1.6,8 L0,6.4 L0.9,5.6 C4.2,2.5 8.5,0.7 13,0.7 C17.5,0.7 21.8,2.4 25.1,5.6 L26,6.4 L24.4,8 L23.5,7.2 C20.6,4.5 16.8,3 12.9,3 C8.9,3 5.2,4.5 2.3,7.2 L1.6,8 Z" id="Combined-Shape_12_"></path>
            <path d="M5,21.3 L3.9,21.3 L3.9,20.7 C3.9,20.5 3.9,20.3 3.9,20.1 L3.9,19.5 L5,19.6 L5,20.2 C5,20.4 5,20.5 5,20.7 L5,21.3 Z" id="Fill-3"></path>
        </g>
        <g id="Fib_Fan" transform="translate(2.000000, 480.000000)" fill="#FFFFFF" fill-rule="nonzero">
            <path d="M7.8,17.4 L23.9,2.1 L24.8,3 L6.2,20.8 L5,23.2 L26.9,23.2 L26.9,25.7 L0.9,25.7 L13.6,0.4 L15.9,1.5 L7.8,17.4 Z M7.5,22.4 L6.9,21.4 L8.5,20.4 L9.1,21.4 L7.5,22.4 Z M20.5,14.8 L19.9,13.8 L22.1,12.5 L22.7,13.5 L20.5,14.8 Z M15.9,17.5 L15.3,16.5 L17.5,15.2 L18.1,16.2 L15.9,17.5 Z M11.4,20.2 L10.8,19.2 L13,17.9 L13.6,18.9 L11.4,20.2 Z M24.4,11.1 L26,10.1 L26.6,11.1 L25,12.1 L24.4,11.1 Z M22,20.5 L21.7,19.3 L24.1,18.7 L24.4,19.9 L22,20.5 Z M17.2,21.7 L16.9,20.5 L19.3,19.9 L19.6,21.1 L17.2,21.7 Z M12.3,22.8 L12,21.6 L14.4,21 L14.7,22.2 L12.3,22.8 Z" id="Combined-Shape_13_"></path>
        </g>
        <g id="Fib_TimeZones" transform="translate(4.000000, 511.000000)" fill="#FFFFFF" fill-rule="nonzero">
            <path d="M11.7,9.4 L11.7,7.5 L12.9,7.5 L12.9,9.4 L11.7,9.4 Z M11.7,6.2 L11.7,4.1 L12.9,4.1 L12.9,6.2 L11.7,6.2 Z M11.7,2.8 L11.7,0.9 L12.9,0.9 L12.9,2.8 L11.7,2.8 Z M11.7,26.9 L11.7,25 L12.9,25 L12.9,26.9 L11.7,26.9 Z M11.7,22.9 L11.7,20.6 L12.9,20.6 L12.9,22.9 L11.7,22.9 Z M11.7,18.5 L11.7,16.6 L12.9,16.6 L12.9,18.5 L11.7,18.5 Z M17.2,5.8 L17.2,3.9 L18.4,3.9 L18.4,5.8 L17.2,5.8 Z M17.2,2.8 L17.2,0.9 L18.4,0.9 L18.4,2.8 L17.2,2.8 Z M17.2,26.9 L17.2,25 L18.4,25 L18.4,26.9 L17.2,26.9 Z M17.2,22.6 L17.2,20.1 L18.4,20.1 L18.4,22.6 L17.2,22.6 Z M17.2,17.6 L17.2,15.7 L18.4,15.7 L18.4,17.6 L17.2,17.6 Z M22.7,26.6 L22.7,24.7 L23.9,24.7 L23.9,26.6 L22.7,26.6 Z M22.7,7.7 L22.7,5.2 L23.9,5.2 L23.9,7.7 L22.7,7.7 Z M22.7,12.6 L22.7,10.2 L23.9,10.2 L23.9,12.6 L22.7,12.6 Z M22.7,17.5 L22.7,15 L23.9,15 L23.9,17.5 L22.7,17.5 Z M22.7,22.4 L22.7,19.9 L23.9,19.9 L23.9,22.4 L22.7,22.4 Z M22.7,2.8 L22.7,0.9 L23.9,0.9 L23.9,2.8 L22.7,2.8 Z M2.6,15.9 L20.5,8.4 L21.4,10.6 L2.7,18.4 L2.7,26.3 L0.3,26.3 L0.3,1.3 L2.7,1.3 L2.7,15.9 L2.6,15.9 Z M6.2,26.6 L6.2,18.7 L7.4,18.7 L7.4,26.6 L6.2,26.6 Z M6.2,12.5 L6.2,1 L7.4,1 L7.4,12.5 L6.2,12.5 Z" id="Combined-Shape_18_"></path>
        </g>
        <g id="Gann_Fan" transform="translate(3.000000, 543.000000)" fill="#FFFFFF" fill-rule="nonzero">
            <path d="M8.6,4.1 L8.3,4.8 L7.3,4.2 L8.3,2.3 L8,1.4 L10.4,0.7 L10.7,1.6 L10.9,1.3 L12.9,2.7 L12.2,3.7 L11.2,2.9 L11.3,3.2 L26,23.3 L25,24 L12.3,6.6 L17.9,26.1 L15.5,26.8 L9.6,6.7 L6.7,26.2 L5.5,26 L8.6,4.1 Z M14.1,5.3 L14.8,4.3 L16.8,5.7 L16.1,6.7 L14.1,5.3 Z M4.9,8.5 L6,6.4 L7,7 L5.9,9.1 L4.9,8.5 Z M18,8.1 L18.7,7.1 L20.7,8.5 L20,9.5 L18,8.1 Z M21.9,11 L22.6,10 L24.6,11.4 L23.9,12.4 L21.9,11 Z M2.5,12.7 L3.6,10.6 L4.6,11.2 L3.5,13.3 L2.5,12.7 Z M0.2,17 L1.3,14.9 L2.3,15.5 L1.2,17.6 L0.2,17 Z" id="Combined-Shape_19_"></path>
        </g>
        <g id="Gartley" transform="translate(3.000000, 575.000000)" fill="#FFFFFF" fill-rule="nonzero">
            <path d="M12.7,13 L8.4,5.3 L2.5,12.2 L0.6,10.6 L8.8,0.9 L22.8,25.6 L20.6,26.9 L13.7,14.7 L12.7,14.7 L12.7,13 L12.7,13 Z M7.9,14.2 L7.9,12.9 L9.8,12.9 L9.8,14.2 L7.9,14.2 Z M18.1,14.7 L18.1,13 L20.7,13 L20.7,14.6 L18.1,14.6 L18.1,14.7 Z M23.6,14.2 L23.6,12.9 L25.5,12.9 L25.5,14.2 L23.6,14.2 Z" id="Combined-Shape_20_"></path>
        </g>
        <g id="Pitchfork" transform="translate(3.000000, 607.000000)" fill="#FFFFFF" fill-rule="nonzero">
            <polygon id="Combined-Shape_24_" points="14.6 13.9 19.3 18.6 24.1 13.8 25.8 15.5 19.5 22 17.8 20.3 17.8 20.3 13.1 15.6 1.9 26.8 0.2 25.1 11.5 13.8 7.5 9.8 7.5 9.8 5.8 8.1 13.1 0.8 14.8 2.5 9.2 8.1 13.2 12.1 24.3 1 26 2.7"></polygon>
        </g>
        <g id="Quadrant_Lines" transform="translate(3.000000, 640.000000)" fill="#FFFFFF" fill-rule="nonzero">
            <path d="M1,14.1 L1,11.5 L25,11.5 L25,14.1 L1,14.1 Z M0,25.4 L0,24.1 L2,24.1 L2,25.4 L0,25.4 Z M19.1,25.8 L19.1,24.1 L21.6,24.1 L21.6,25.8 L19.1,25.8 Z M14.2,25.8 L14.2,24.1 L16.7,24.1 L16.7,25.8 L14.2,25.8 Z M9.3,25.8 L9.3,24.1 L11.8,24.1 L11.8,25.8 L9.3,25.8 Z M4.3,25.8 L4.3,24.1 L6.8,24.1 L6.8,25.8 L4.3,25.8 Z M24,25.4 L24,24.1 L26,24.1 L26,25.4 L24,25.4 Z M0,1.5 L0,0.2 L2,0.2 L2,1.5 L0,1.5 Z M19.1,1.9 L19.1,0.2 L21.6,0.2 L21.6,1.9 L19.1,1.9 Z M14.2,1.9 L14.2,0.2 L16.7,0.2 L16.7,1.9 L14.2,1.9 Z M9.3,1.9 L9.3,0.2 L11.8,0.2 L11.8,1.9 L9.3,1.9 Z M4.3,1.9 L4.3,0.2 L6.8,0.2 L6.8,1.9 L4.3,1.9 Z M24,1.5 L24,0.2 L26,0.2 L26,1.5 L24,1.5 Z M1,6.2 L1,4.9 L25,4.9 L25,6.2 L1,6.2 Z M1.3,20.7 L1.3,19.4 L24.8,19.4 L24.8,20.7 L1.3,20.7 Z" id="Combined-Shape_26_"></path>
        </g>
        <g id="Ray" transform="translate(3.000000, 671.000000)" fill="#FFFFFF" fill-rule="nonzero">
            <path d="M20,7.9 L21.8,7.9 L21.8,9.6 L19.5,9.6 L1.8,20.6 L0.6,18.5 L14.9,9.5 L14.6,9.5 L14.6,7.8 L17,7.8 L17,8.2 L18.2,7.4 L18.2,5.6 L19.9,5.6 L20,7.9 L20,7.9 Z M24.3,9.6 L24.3,7.9 L25.8,7.9 L25.8,9.6 L24.3,9.6 Z M9.9,9.6 L9.9,7.9 L12.3,7.9 L12.3,9.6 L9.9,9.6 Z M5,9.6 L5,7.9 L7.4,7.9 L7.4,9.6 L5,9.6 Z M0.2,9.6 L0.2,7.9 L2.6,7.9 L2.6,9.6 L0.2,9.6 Z M18.3,3.3 L18.3,0.9 L20,0.9 L20,3.3 L18.3,3.3 Z M18.3,13.1 L18.3,10.7 L20,10.7 L20,13.1 L18.3,13.1 Z M18.3,18 L18.3,15.6 L20,15.6 L20,18 L18.3,18 Z M18.3,22.9 L18.3,20.5 L20,20.5 L20,22.9 L18.3,22.9 Z M18.3,26.8 L18.3,25.3 L20,25.3 L20,26.8 L18.3,26.8 Z" id="Combined-Shape_27_"></path>
        </g>
        <g id="Shape_Rectangle" transform="translate(3.000000, 707.000000)" fill="#FFFFFF" fill-rule="nonzero">
            <path d="M0,19.3 L0,0.2 L26,0.2 L26,19.3 L0,19.3 Z M2.6,16.8 L23.4,16.8 L23.4,2.8 L2.6,2.8 L2.6,16.8 Z" id="Combined-Shape_28_"></path>
        </g>
        <g id="Regression_Line" transform="translate(3.000000, 736.000000)" fill="#FFFFFF" fill-rule="nonzero">
            <path d="M24.7,10.9 L1.3,18.2 L1.3,15.2 L24.7,7.9 L24.7,0.7 L26,0.7 L26,17.3 L24.7,17.3 L24.7,10.9 Z M0,24.9 L0,8.3 L1.3,8.3 L1.3,24.9 L0,24.9 Z" id="Combined-Shape_29_"></path>
        </g>
        <g id="Shape_Check" transform="translate(3.000000, 771.000000)" fill="#FFFFFF" fill-rule="nonzero">
            <polygon id="Fill-1_6_" points="22.9 0.3 9 12.8 3.2 7.3 0 10.8 8.9 19.3 26 3.9"></polygon>
        </g>
        <g id="Shape_Cross" transform="translate(3.000000, 800.000000)" fill="#FFFFFF" fill-rule="nonzero">
            <polygon id="Combined-Shape_30_" points="13 10.8 23.8 0 26 2.1 15.2 13 26 23.8 23.9 26 13 15.2 2.2 26 0 23.9 10.8 13 0 2.2 2.1 0"></polygon>
        </g>
        <g id="Shape_Focus" transform="translate(3.000000, 833.000000)" fill="#FFFFFF" fill-rule="nonzero">
            <path d="M0,0.6 L0,0.6 L11,12 L0,23.4 L0,0.6 Z M2.6,7.1 L2.6,17 L7.3,12.1 L2.6,7.1 Z M26,0.6 L26,0.6 L26,23.6 L15,12.2 L26,0.6 Z M18.7,12 L23.4,16.9 L23.4,7 L18.7,12 Z" id="Combined-Shape_31_"></path>
        </g>
        <g id="Shape_Heart" transform="translate(2.000000, 864.000000)" fill="#FFFFFF" fill-rule="nonzero">
            <path d="M8.2,3.3 C7.4,3.3 6.6,3.5 5.9,3.9 C4.5,4.6 3.6,6.2 3.6,7.9 L3.6,8.2 C3.6,8.7 3.8,9.4 4,10.2 C5.8,15.2 11.9,20.3 14.1,21.9 C16.2,20.2 22.2,15.2 24,10.2 C24.3,9.3 24.4,8.5 24.4,7.9 L24.4,7.7 C24.4,6 23.5,4.5 22.1,3.8 C20.6,3 19.1,3 17.8,3.6 C16.5,4.2 15.5,5.4 15.3,6.8 C15.1,7.4 14.7,7.8 14,7.8 C13.4,7.8 12.9,7.4 12.8,6.8 C12.5,5.4 11.5,4.2 10.3,3.6 C9.5,3.5 8.9,3.3 8.2,3.3 M14.1,24.9 C13.8,24.9 13.6,24.8 13.3,24.6 C13,24.3 4,17.8 1.6,11.1 C1.6,11.1 1.5,11 1.5,10.9 C1.2,9.9 1,8.9 0.9,8 L0.9,7.7 C0.9,5 2.4,2.5 4.6,1.4 C6.8,0.3 9.1,0.3 11.2,1.2 C12.2,1.7 13.2,2.5 13.9,3.5 C14.6,2.5 15.6,1.8 16.6,1.2 C18.7,0.2 21,0.2 23.2,1.4 C25.5,2.5 26.9,5.1 26.9,7.7 L26.9,7.9 C26.9,8.9 26.6,9.9 26.3,11 C23.9,17.8 15.1,24.1 14.7,24.5 C14.6,24.8 14.3,24.9 14.1,24.9" id="Fill-1_7_"></path>
        </g>
        <g id="Shape_Star" transform="translate(3.000000, 896.000000)" fill="#FFFFFF" fill-rule="nonzero">
            <path d="M13,0.7 L17,8.7 L26,10 L19.5,16.2 L21.1,25 L13,20.8 L4.9,25 L6.5,16.2 L0,10 L9,8.7 L13,0.7 Z M8.9,16.5 L8.2,20.5 L11.8,18.6 L12.9,18 L14,18.6 L17.6,20.5 L16.9,16.5 L16.6,15.3 L17.6,14.4 L20.5,11.6 L16.4,11 L15.1,10.8 L14.5,9.7 L12.7,6.1 L10.9,9.7 L10.3,10.8 L9,11 L4.9,11.6 L7.8,14.4 L8.8,15.3 L8.9,16.5 Z" id="Combined-Shape_32_"></path>
        </g>
        <g id="Shape_Arrow" transform="translate(3.000000, 933.000000)" fill="#FFFFFF" fill-rule="nonzero">
            <polygon id="Combined-Shape_33_" points="17.7 3.9 16 0.3 26.1 0.8 20.6 9.7 18.9 6.1 1.2 15.5 0.1 13.2"></polygon>
        </g>
        <g id="SpeedResistance_Arc" transform="translate(2.000000, 964.000000)" fill="#FFFFFF" fill-rule="nonzero">
            <path d="M11.7,13.1 L14.7,17.2 L13.7,17.9 L10.7,13.8 C9.7,14.7 9.1,15.9 9.1,17.3 L6.6,17.3 C6.6,15.1 7.6,13.2 9.2,11.9 L6.9,8.9 C6.4,9.3 5.9,9.9 5.3,10.4 L4.3,9.6 C4.8,9 5.4,8.4 6,7.9 L6.1,8 L0.8,1 L1.8,0.3 L10,11.2 C11.1,10.5 12.5,10.1 14,10.1 C18.1,10.1 21.6,13.4 21.6,17.4 L19.1,17.4 C19.1,14.7 16.9,12.6 14.1,12.6 C13.3,12.4 12.4,12.6 11.7,13.1 Z M2.8,17.2 L1.5,17.2 C1.5,16.8 1.5,16.3 1.6,15.9 L2.8,16 C2.8,16.4 2.8,16.9 2.8,17.2 Z M13.1,6.2 L13,5 C13.8,4.9 14.6,4.9 15.5,5 L15.4,6.2 C14.6,6.1 13.8,6.1 13.1,6.2 Z M19.6,7.4 C18.9,7.1 18.2,6.8 17.5,6.6 L17.8,5.5 C18.6,5.8 19.4,6 20.1,6.5 L19.6,7.4 Z M8.8,7.5 L8.2,6.5 C8.9,6.2 9.7,5.8 10.5,5.5 L10.8,6.6 C10.2,6.8 9.5,7.2 8.8,7.5 Z M23.1,10.2 C22.6,9.7 22.1,9.2 21.5,8.6 L22.3,7.6 C22.9,8.1 23.5,8.6 24,9.2 L23.1,10.2 Z M25.1,13.9 C24.8,13.2 24.6,12.5 24.2,11.9 L25.3,11.3 C25.7,12 26,12.8 26.3,13.5 L25.1,13.9 Z M3.3,14 L2.1,13.7 C2.4,12.9 2.7,12.2 3.1,11.5 L4.2,12.1 C3.8,12.6 3.5,13.3 3.3,14 Z M27,17.2 L25.7,17.2 C25.7,16.9 25.7,16.4 25.6,16.1 L26.8,16 C27,16.3 27,16.8 27,17.2 Z" id="Combined-Shape_34_"></path>
        </g>
        <g id="Time_Cycle" transform="translate(3.000000, 991.000000)" fill="#FFFFFF" fill-rule="nonzero">
            <path d="M24.9,26.8 L24.9,0.8 L25.6,0.8 L25.6,26.8 L24.9,26.8 Z M12.8,26.8 L12.8,0.8 L14.1,0.8 L14.1,26.8 L12.8,26.8 Z M19.1,26.8 L19.1,0.8 L19.8,0.8 L19.8,26.8 L19.1,26.8 Z M0.4,26.8 L0.4,0.8 L3.1,0.8 L3.1,26.8 L0.4,26.8 Z M6.9,26.8 L6.9,0.8 L8.2,0.8 L8.2,26.8 L6.9,26.8 Z" id="Combined-Shape_35_"></path>
        </g>
        <g id="Tirone_Levels" transform="translate(3.000000, 1024.000000)" fill="#FFFFFF" fill-rule="nonzero">
            <path d="M1.4,20.4 L1.4,19.1 L24.7,19.1 L24.7,20.4 L1.4,20.4 Z M1.4,5.8 L1.4,4.5 L24.7,4.5 L24.7,5.8 L1.4,5.8 Z M4.2,10.3 L4.2,9.6 L21.9,9.6 L21.9,10.3 L4.2,10.3 Z M4.3,15.2 L4.3,14.6 L21.6,14.6 L21.6,15.2 L4.3,15.2 Z M0,26 L0,0 L26,0 L26,26 L0,26 Z M1.3,24.7 L24.7,24.7 L24.7,1.3 L1.3,1.3 L1.3,24.7 Z" id="Combined-Shape_36_"></path>
        </g>
        <g id="Trend_Line" transform="translate(3.000000, 1056.000000)" fill="#FFFFFF" fill-rule="nonzero">
            <path d="M10.1,5.6 L8.1,5.6 L8.1,11 L6.9,11 L6.9,5.6 L5,5.6 L5,4.6 L10.1,4.6 L10.1,5.6 L10.1,5.6 Z M0,15.2 L0,0.1 L15,0.1 L15,15.2 L0,15.2 Z M1.3,13.9 L13.8,13.9 L13.8,1.3 L1.3,1.3 L1.3,13.9 Z M8.9,23.6 L24.4,10.9 L26,12.8 L10.5,25.5 L8.9,23.6 Z" id="Combined-Shape_37_"></path>
        </g>
        <g id="SpeedResistance_Line" transform="translate(2.000000, 1088.000000)" fill="#FFFFFF" fill-rule="nonzero">
            <path d="M5.2,22.6 L6.9,21.7 L7.4,22.7 L5.4,23.7 L4.9,22.7 L3.9,23.7 L3.1,25.3 L2.7,25.1 L2.3,25.3 L2,24.8 L0.9,24.3 L13.1,0.1 L15.3,1.1 L5.6,20.4 L26.1,0.1 L27,1 L5.2,22.6 Z M21.7,15.8 L21.2,14.8 L23.2,13.8 L23.7,14.8 L21.7,15.8 Z M17.6,17.8 L17.1,16.8 L19.1,15.8 L19.6,16.8 L17.6,17.8 Z M13.5,19.9 L13,18.9 L15,17.9 L15.5,18.9 L13.5,19.9 Z M9.5,21.9 L9,20.9 L11,19.9 L11.5,20.9 L9.5,21.9 Z M25.2,12.6 L26.3,12.1 L26.8,13.1 L25.7,13.6 L25.2,12.6 Z" id="Combined-Shape_38_"></path>
        </g>
        <g id="Direct_Select2" transform="translate(2.000000, 1312.000000)" fill="#FFFFFF" fill-rule="nonzero">
            <path d="M18.1,19.1 L12.7,24.8 L6.1,5 L25.9,11.6 L20.2,17 L27,23.8 L24.8,26 L18.1,19.1 Z M10.9,9.9 L14,19.1 L16.9,16 L17,15.9 L17.1,15.8 L20.2,12.9 L10.9,9.9 Z M1,0 L8.9,0 L8.9,3.7 L7.4,3.7 L7.4,1.5 L2.5,1.5 L2.5,6.4 L4.7,6.4 L4.7,7.9 L0.9,7.9 L1,0 L1,0 Z" id="Combined-Shape_39_"></path>
        </g>
        <polygon id="Path" fill="#FFFFFF" fill-rule="nonzero" points="14.8 1358.1 11 1361.7 9.4 1347 21.7 1355.2 16.8 1356.9 22.6 1365.7 20.6 1367"></polygon>
        <g id="Measure" transform="translate(3.000000, 1119.000000)" fill="#FFFFFF" fill-rule="nonzero">
            <path d="M10.1,11.7 L8.7,13.1 L11.4,15.8 L10.5,16.7 L7.8,14 L6.4,15.4 L9.1,18.1 L8.2,19 L5.5,16.3 L4.1,17.7 L6.8,20.4 L5.9,21.3 L3.2,18.6 L1.8,20 L6.8,25 L24.1,7.7 L19.1,2.7 L17.7,4.1 L20.4,6.8 L19.5,7.7 L17,4.8 L15.6,6.2 L18.3,8.9 L17.4,9.8 L14.7,7 L13.3,8.4 L16,11.1 L15.2,12 L12.5,9.3 L11.1,10.7 L13.8,13.4 L12.9,14.3 L10.1,11.7 Z M19.2,0.8 L26,7.6 L6.8,26.8 L0,20 L19.2,0.8 Z" id="Combined-Shape_54_"></path>
        </g>
        <g id="Restore_Default" transform="translate(3.000000, 1151.000000)" fill="#FFFFFF" fill-rule="nonzero">
            <path d="M6.2,6.2 L9.5,7.5 L1.5,14 L0,3.7 L3.6,5.1 C6.1,2.4 9.5,0.8 13.1,0.8 C20.2,0.8 26,6.7 26,13.9 C26,21.1 20.3,27 13.2,27 L13.2,24.4 C18.9,24.4 23.5,19.7 23.5,13.9 C23.5,8.1 18.9,3.4 13.2,3.4 C10.6,3.5 8.1,4.4 6.2,6.2 Z M16.1,14 C16.1,15.4 15,16.5 13.6,16.5 C12.2,16.5 11.1,15.4 11.1,14 C11.1,12.6 12.2,11.5 13.6,11.5 C14.9,11.4 16.1,12.6 16.1,14 Z" id="Combined-Shape_55_"></path>
        </g>
        <g id="Clear-Drawings" transform="translate(5.000000, 1184.000000)" fill="#FFFFFF" fill-rule="nonzero">
            <path d="M0.1,6.6 L0.1,4.1 L21.8,4.1 L21.8,6.6 L0.1,6.6 Z M5.5,2.5 L5.5,0 L16.5,0 L16.5,2.5 L5.5,2.5 Z M1.9,8.7 L20.2,8.7 L19.1,25.9 L3,25.9 L1.9,8.7 Z M3.2,10 L4.2,24.7 L17.9,24.7 L18.9,10 L3.2,10 L3.2,10 Z M10.4,21.2 L10.4,13.2 L11.6,13.2 L11.6,21.2 L10.4,21.2 Z M6.5,21.2 L6.5,13.2 L7.7,13.2 L7.7,21.2 L6.5,21.2 Z M14.3,21.3 L14.3,13.3 L15.5,13.3 L15.5,21.3 L14.3,21.3 Z" id="Combined-Shape_56_"></path>
        </g>
        <g id="Cancel-Copy" transform="translate(3.000000, 1215.000000)" fill="#FFFFFF" fill-rule="nonzero">
            <g id="Cancel">
                <path d="M4.9,20.2 L19.3,5.6 C17.6,4.2 15.4,3.4 13.1,3.4 C7.5,3.4 2.9,8.1 2.9,13.8 C2.8,16.2 3.6,18.5 4.9,20.2 Z M6.8,22 C8.5,23.4 10.7,24.2 13,24.2 C18.6,24.2 23.2,19.5 23.2,13.8 C23.2,11.4 22.4,9.2 21,7.4 L6.8,22 Z M13,26.8 C6,26.8 0.3,21 0.3,13.8 C0.3,6.6 6,0.8 13,0.8 C20,0.8 25.7,6.6 25.7,13.8 C25.7,21 20,26.8 13,26.8 Z" id="Combined-Shape_57_"></path>
            </g>
        </g>
        <g id="Undo" transform="translate(2.000000, 1254.000000)" fill="#FFFFFF" fill-rule="nonzero">
            <path d="M7.2,5.5 L10.5,6.8 L2.7,13.6 L0.9,3.1 L4.5,4.5 C6.8,1.7 10,0.3 14.1,0.3 C26.7,0.3 26.8,13.6 26.8,13.6 L24.3,13.6 L25.6,13.6 L24.3,13.6 C24.3,13.2 24.1,2.9 14.1,2.9 C11.3,2.9 9,3.8 7.2,5.5 Z" id="Combined-Shape_58_"></path>
        </g>
        <g id="Redo" transform="translate(3.000000, 1286.000000)" fill="#FFFFFF" fill-rule="nonzero">
            <path d="M22.4,4.6 L26,3.3 L24.2,13.1 L16.4,6.7 L19.7,5.5 C18,3.9 15.6,3.1 12.7,3.1 C2.6,3.1 2.5,12.7 2.5,13.1 L0.1,13.1 C0.1,13 0.3,0.6 12.8,0.6 C16.8,0.7 20.1,2 22.4,4.6 Z" id="Combined-Shape_59_"></path>
        </g>
        <g id="Crosshair" transform="translate(3.000000, 128.000000)" fill="#FFFFFF" fill-rule="nonzero">
            <polygon id="Combined-Shape_3_" points="13.7 16.4 0.3 16.4 0.3 13.6 13.7 13.6 13.7 0 16.4 0 16.4 13.6 25.8 13.6 25.8 16.4 16.4 16.4 16.4 26 13.7 26"></polygon>
        </g>
        <g id="Group" transform="translate(2.000000, 1375.000000)" fill="#FFFFFF" fill-rule="nonzero">
            <rect id="Rectangle" x="0" y="0" width="12" height="12"></rect>
            <rect id="Rectangle" x="0" y="16" width="12" height="12"></rect>
            <rect id="Rectangle" x="16" y="0" width="12" height="12"></rect>
            <rect id="Rectangle" x="16" y="16" width="12" height="12"></rect>
        </g>
        <g id="Group" transform="translate(2.000000, 1406.000000)" fill="#FFFFFF" fill-rule="nonzero">
            <rect id="Rectangle" x="0" y="0.9" width="12" height="12"></rect>
            <rect id="Rectangle" x="0" y="17" width="11.9" height="11.9"></rect>
            <rect id="Rectangle" x="15" y="5.9" width="13" height="3.1"></rect>
            <rect id="Rectangle" x="15" y="22" width="13" height="3.1"></rect>
        </g>
        <path d="M26.2,1498.2 L5.9,1498.2 C4.1,1498.2 2.7,1496.8 2.7,1495 L2.7,1474.7 C2.7,1472.9 4.1,1471.5 5.9,1471.5 L17.9,1471.5 L17.9,1474.3 L5.9,1474.3 C5.6,1474.3 5.4,1474.5 5.4,1474.8 L5.4,1495.1 C5.4,1495.4 5.6,1495.6 5.9,1495.6 L26.2,1495.6 C26.5,1495.6 26.7,1495.4 26.7,1495.1 L26.7,1483.2 L29.5,1483.2 L29.5,1495.1 C29.4,1496.8 28,1498.2 26.2,1498.2 Z" id="Path" fill="#FFFFFF" fill-rule="nonzero"></path>
        <polygon id="Path" fill="#FFFFFF" fill-rule="nonzero" points="21.5 1489.1 21.5 1486.3 16.5 1486.3 29.4 1473.4 27.5 1471.4 14.6 1484.3 14.6 1479.4 11.8 1479.4 11.8 1489.1"></polygon>
        <path d="M26.1,1466.3 L5.8,1466.3 C4,1466.3 2.6,1464.9 2.6,1463.1 L2.6,1442.8 C2.6,1441 4,1439.6 5.8,1439.6 L17.8,1439.6 L17.8,1442.4 L5.8,1442.4 C5.5,1442.4 5.3,1442.6 5.3,1442.9 L5.3,1463.2 C5.3,1463.5 5.5,1463.7 5.8,1463.7 L26.1,1463.7 C26.4,1463.7 26.6,1463.5 26.6,1463.2 L26.6,1451.3 L29.4,1451.3 L29.4,1463.2 C29.4,1464.8 27.9,1466.3 26.1,1466.3 Z" id="Path" fill="#FFFFFF" fill-rule="nonzero"></path>
        <polygon id="Path" fill="#FFFFFF" fill-rule="nonzero" points="19.6 1439.5 19.6 1442.3 24.6 1442.3 11.7 1455.2 13.7 1457.1 26.6 1444.2 26.6 1449.2 29.3 1449.2 29.3 1439.5"></polygon>
        <path d="M29.1,1520.8 L26.7,1519.4 C26.9,1518.1 26.9,1516.7 26.7,1515.4 L29.1,1514 C29.4,1513.8 29.5,1513.5 29.4,1513.2 C28.8,1511.2 27.7,1509.4 26.3,1507.9 C26.1,1507.7 25.7,1507.6 25.5,1507.8 L23.1,1509.2 C22.1,1508.3 20.9,1507.7 19.7,1507.2 L19.7,1504.4 C19.7,1504.1 19.5,1503.8 19.2,1503.7 C17.1,1503.2 15,1503.3 13,1503.7 C12.7,1503.8 12.5,1504 12.5,1504.4 L12.5,1507.2 C11.2,1507.6 10.1,1508.3 9.1,1509.2 L6.7,1507.8 C6.4,1507.6 6.1,1507.7 5.9,1507.9 C4.5,1509.4 3.4,1511.2 2.8,1513.2 C2.7,1513.5 2.8,1513.8 3.1,1514 L5.5,1515.4 C5.3,1516.7 5.3,1518.1 5.5,1519.4 L3.1,1520.8 C2.8,1521 2.7,1521.3 2.8,1521.6 C3.4,1523.6 4.5,1525.4 5.9,1526.9 C6.1,1527.1 6.5,1527.2 6.7,1527 L9.1,1525.6 C10.1,1526.5 11.3,1527.1 12.5,1527.6 L12.5,1530.4 C12.5,1530.7 12.7,1531 13,1531.1 C15.1,1531.6 17.2,1531.5 19.2,1531.1 C19.5,1531 19.7,1530.8 19.7,1530.4 L19.7,1527.6 C21,1527.2 22.1,1526.5 23.1,1525.6 L25.5,1527 C25.8,1527.2 26.1,1527.1 26.3,1526.9 C27.7,1525.4 28.8,1523.6 29.4,1521.6 C29.5,1521.2 29.4,1520.9 29.1,1520.8 Z M16.1,1521.9 C13.6,1521.9 11.6,1519.9 11.6,1517.4 C11.6,1514.9 13.6,1512.9 16.1,1512.9 C18.6,1512.9 20.6,1514.9 20.6,1517.4 C20.6,1519.9 18.5,1521.9 16.1,1521.9 Z" id="Shape" fill="#FFFFFF" fill-rule="nonzero"></path>
        <polygon id="Path" fill="#FFFFFF" fill-rule="nonzero" points="16 1536.7 20 1544.7 29 1546 22.5 1552.2 24.1 1561 16 1556.8 7.9 1561 9.5 1552.2 3 1546 12 1544.7"></polygon>
        <path d="M16,1567.1 C8.9,1567.1 3.2,1572.8 3.2,1579.9 L5,1595 L11.6,1595 L10.1,1580 C10.1,1576.3 12.2,1574.1 16,1574.1 C19.8,1574.1 21.9,1576.3 21.9,1580 L20.4,1595.1 L27,1595.1 L28.8,1580.1 C28.8,1572.9 23.1,1567.1 16,1567.1 Z M10.3,1589.7 L10.8,1594.3 L5.8,1594.3 L5.3,1589.7 L10.3,1589.7 Z M26.3,1594.3 L21.1,1594.3 L21.6,1589.7 L26.8,1589.7 L26.3,1594.3 Z" id="Shape" fill="#FFFFFF" fill-rule="nonzero"></path>
        <polygon id="Stroke-68" fill="#FFFFFF" fill-rule="nonzero" points="27.0113204 1601 28.9870672 1602.17747 22.1289949 1613.68508 19.5191938 1609.77173 11.5745617 1623.1473 8.98419382 1619.16173 4.99838763 1626.15804 3 1625.01942 8.85506732 1614.74318 11.4861938 1618.79173 19.4075054 1605.45646 22.0191938 1609.37473"></polygon>
    </g>
</svg>