<?xml version="1.0" encoding="UTF-8"?>
<svg width="537px" height="200px" viewBox="0 0 537 200" version="1.1" xmlns="http://www.w3.org/2000/svg" xmlns:xlink="http://www.w3.org/1999/xlink">
    <title>Asset 6</title>
    <defs>
        <filter id="filter-1">
            <feColorMatrix in="SourceGraphic" type="matrix" values="0 0 0 0 1.000000 0 0 0 0 1.000000 0 0 0 0 1.000000 0 0 0 1.000000 0"></feColorMatrix>
        </filter>
        <filter id="filter-2">
            <feColorMatrix in="SourceGraphic" type="matrix" values="0 0 0 0 0.000000 0 0 0 0 0.000000 0 0 0 0 0.000000 0 0 0 1.000000 0"></feColorMatrix>
        </filter>
    </defs>
    <g id="Templates-and-Lo-Fi-Mocks" stroke="none" stroke-width="1" fill="none" fill-rule="evenodd">
        <g filter="url(#filter-1)" id="Asset-6">
            <g>
                <path d="M0,86.11 C0,58.7 21.66,36.39 48.8,36.39 C63.63,36.39 76.39,42.68 84.8,52.86 L75.65,60.8 C68.9931494,52.8522338 59.1672481,48.2485154 48.8,48.22 C28.63,48.22 12.8,65.29 12.8,86.11 C12.8,106.77 28.67,123.99 48.8,123.99 C59.1646993,123.959857 68.9886782,119.360698 75.65,111.42 L84.84,119.35 C75.9078187,129.948678 62.6995254,135.991473 48.84,135.82 C21.66,135.68 0,113.51 0,86.11" id="Path" fill="#313638" fill-rule="nonzero"></path>
                <path d="M160.05,96.29 L160.05,134.29 L147.88,134.29 L147.88,97 C147.88,86.07 141.21,79.33 132.16,79.33 C123.11,79.33 112.28,84.57 112.28,98.8 L112.28,134.44 L100.12,134.44 L100.12,32.64 L112.28,32.64 L112.28,78.47 C116.14,70.38 126.82,67.09 133.94,67.09 C150.11,67.24 160.19,77.87 160.05,96.29" id="Path" fill="#313638" fill-rule="nonzero"></path>
                <path d="M244,68.59 L244,134.33 L231.84,134.33 L231.84,123.84 C227.53,131.48 218.04,135.67 208.7,135.67 C190.9,135.67 176.07,122.05 176.07,101.38 C176.07,80.71 190.75,67.24 208.55,67.24 C218.34,67.24 227.55,71.13 231.84,78.92 L231.84,68.59 L244,68.59 Z M231.84,101.23 C231.947493,95.3033857 229.665353,89.5828717 225.507912,85.3577086 C221.350472,81.1325455 215.667577,78.7582771 209.74,78.7699568 C197.87,78.7699568 188.38,88.05 188.38,101.23 C188.38,114.23 197.87,124.14 209.74,124.14 C221.3,124.14 231.84,115.31 231.84,101.23" id="Shape" fill="#313638" fill-rule="nonzero"></path>
                <path d="M302.74,69.78 L300.81,81.32 C297.847053,79.891267 294.608991,79.1235495 291.32,79.07 C278.41,79.07 273.22,93 273.22,110.37 L273.22,134.48 L260.91,134.48 L260.91,68.59 L273.22,68.59 L273.22,83.59 C276.63,72.06 282.86,67.27 291.46,67.27 C296.06,67.27 300.81,68.47 302.74,69.81" id="Path" fill="#313638" fill-rule="nonzero"></path>
                <path d="M314.75,106.32 L314.75,50.92 L326.91,47.17 L326.91,68.74 L340.71,68.74 L340.71,79.22 L326.91,79.22 L326.91,106.22 C326.77,114.01 328.25,122.85 339.08,122.85 L342.79,122.85 L342.79,134.38 L338,134.38 C320.5,134.38 314.71,122.7 314.71,106.38" id="Path" fill="#313638" fill-rule="nonzero"></path>
                <rect id="Rectangle" fill="#FDB913" fill-rule="nonzero" x="402.11" y="37.29" width="12.76" height="97.04"></rect>
                <path d="M343.23,161.13 L532.34,161.13 C534.658711,161.24127 536.481493,163.153621 536.481493,165.475 C536.481493,167.796379 534.658711,169.70873 532.34,169.82 L343.23,169.82 C340.911289,169.70873 339.088507,167.796379 339.088507,165.475 C339.088507,163.153621 340.911289,161.24127 343.23,161.13" id="Path" fill="#FDB913" fill-rule="nonzero"></path>
                <path d="M368.45,195.13 L368.45,4.34 C368.45,1.96517558 370.375176,0.04 372.75,0.04 C375.124824,0.04 377.050012,1.96517558 377.050012,4.34 L377.050012,195.28 C377.055562,197.663625 375.133574,199.603492 372.75,199.62 C370.335502,199.538677 368.426915,197.545756 368.45,195.13" id="Path" fill="#FDB913" fill-rule="nonzero"></path>
                <path d="M535.76,123 C529.176329,122.977657 522.77699,120.823493 517.52,116.86 C524.266063,108.048807 527.914845,97.2571285 527.9,86.16 C527.9,58.6 506.54,36.29 479.1,36.29 C451.66,36.29 430.6,58.6 430.6,86.16 C430.6,113.56 451.81,135.870002 479.1,135.870002 C489.752343,135.872964 500.115517,132.40453 508.62,125.99 C516.240598,132.342462 525.839003,135.83665 535.76,135.870002 L536.5,135.870002 L536.5,123.1 L535.76,123.1 L535.76,123 Z M443.2,86.11 C443.2,65.29 458.78,48.11 479.1,48.11 C499.42,48.11 515.1,65.33 515.1,86.11 C515.165034,93.8887295 512.9089,101.510146 508.62,108 C500.766601,100.792503 490.499438,96.7862406 479.84,96.77 L479.1,96.77 L479.1,109.5 L479.84,109.5 C487.223069,109.480297 494.350414,112.202942 499.84,117.14 C493.842935,121.595822 486.550756,123.963322 479.08,123.88 C458.76,123.88 443.18,106.8 443.18,86.14" id="Shape" fill="#FDB913" fill-rule="nonzero"></path>
            </g>
        </g>
    </g>
</svg>