<svg width="154" height="101" viewBox="0 0 154 101" fill="none" xmlns="http://www.w3.org/2000/svg">
<path d="M19.8125 25.3252H11.6445V36H8.60645V11.8281H21.1904V14.4512H11.6445V22.7188H19.8125V25.3252ZM24.9424 36V11.8281H30.7031C33.5254 11.8281 35.7168 12.7135 37.2773 14.4844C38.8379 16.2441 39.6182 18.7233 39.6182 21.9219V25.9727C39.6182 29.1712 38.8268 31.6449 37.2441 33.3936C35.6615 35.1312 33.3649 36 30.3545 36H24.9424ZM27.9805 14.4512V33.3936H30.4209C32.557 33.3936 34.1175 32.7848 35.1025 31.5674C36.0876 30.3389 36.5911 28.5238 36.6133 26.1221V21.8389C36.6133 19.2933 36.1208 17.4284 35.1357 16.2441C34.1618 15.0488 32.6842 14.4512 30.7031 14.4512H27.9805ZM59.5234 28.3301C59.3906 30.9199 58.6602 32.901 57.332 34.2734C56.015 35.6458 54.1501 36.332 51.7373 36.332C49.3135 36.332 47.3877 35.4134 45.96 33.5762C44.5322 31.7279 43.8184 29.2266 43.8184 26.0723V21.6895C43.8184 18.5462 44.5488 16.0615 46.0098 14.2354C47.4818 12.4092 49.485 11.4961 52.0195 11.4961C54.3548 11.4961 56.1589 12.1989 57.4316 13.6045C58.7155 14.999 59.4128 16.9967 59.5234 19.5977H56.4521C56.3193 17.6276 55.9043 16.222 55.207 15.3809C54.5098 14.5397 53.4473 14.1191 52.0195 14.1191C50.3704 14.1191 49.1032 14.7666 48.2178 16.0615C47.3324 17.3454 46.8896 19.2324 46.8896 21.7227V26.1553C46.8896 28.6012 47.2992 30.4772 48.1182 31.7832C48.9482 33.0892 50.1546 33.7422 51.7373 33.7422C53.32 33.7422 54.46 33.3493 55.1572 32.5635C55.8545 31.7777 56.2861 30.3665 56.4521 28.3301H59.5234Z" fill="#0A8CF4"/>
<path d="M15.9111 66.2217H11.6611V76H8.60645V51.8281H15.3799C17.7484 51.8281 19.5413 52.4479 20.7588 53.6875C21.9762 54.916 22.585 56.7201 22.585 59.0996C22.585 60.5938 22.2529 61.8997 21.5889 63.0176C20.9359 64.1243 20.0062 64.96 18.7998 65.5244L23.4814 75.8008V76H20.2109L15.9111 66.2217ZM11.6611 63.6152H15.3467C16.6195 63.6152 17.6322 63.2057 18.3848 62.3867C19.1484 61.5677 19.5303 60.472 19.5303 59.0996C19.5303 56.0007 18.1247 54.4512 15.3135 54.4512H11.6611V63.6152ZM32.6787 76.332C30.443 76.332 28.7275 75.668 27.5322 74.3398C26.3369 73.0007 25.7282 71.0417 25.7061 68.4629V66.2881C25.7061 63.6097 26.2871 61.5124 27.4492 59.9961C28.6224 58.4688 30.2549 57.7051 32.3467 57.7051C34.4495 57.7051 36.0212 58.3747 37.0615 59.7139C38.1019 61.0531 38.6331 63.1393 38.6553 65.9727V67.8984H28.6279V68.3135C28.6279 70.2393 28.9876 71.6393 29.707 72.5137C30.4375 73.388 31.4834 73.8252 32.8447 73.8252C33.708 73.8252 34.4661 73.6647 35.1191 73.3438C35.7832 73.0117 36.403 72.4915 36.9785 71.7832L38.5059 73.6426C37.2331 75.4355 35.2907 76.332 32.6787 76.332ZM32.3467 60.2285C31.1292 60.2285 30.2272 60.6491 29.6406 61.4902C29.054 62.3203 28.722 63.6152 28.6445 65.375H35.7168V64.9766C35.6393 63.2721 35.3294 62.0547 34.7871 61.3242C34.2559 60.5938 33.4424 60.2285 32.3467 60.2285ZM50.9238 71.4014C50.9238 70.7705 50.6859 70.2282 50.21 69.7744C49.734 69.3206 48.8154 68.7894 47.4541 68.1807C45.8714 67.5277 44.7536 66.9688 44.1006 66.5039C43.4587 66.0391 42.9772 65.5133 42.6562 64.9268C42.3353 64.3291 42.1748 63.6208 42.1748 62.8018C42.1748 61.3408 42.7061 60.1289 43.7686 59.166C44.8421 58.1921 46.209 57.7051 47.8691 57.7051C49.6178 57.7051 51.0234 58.2142 52.0859 59.2324C53.1484 60.2507 53.6797 61.5566 53.6797 63.1504H50.7578C50.7578 62.3424 50.4867 61.6562 49.9443 61.0918C49.402 60.5163 48.7103 60.2285 47.8691 60.2285C47.0059 60.2285 46.3252 60.4554 45.8271 60.9092C45.3402 61.3519 45.0967 61.9495 45.0967 62.7021C45.0967 63.2998 45.2738 63.7812 45.6279 64.1465C45.9932 64.5117 46.862 64.9932 48.2344 65.5908C50.4147 66.443 51.8978 67.2786 52.6836 68.0977C53.4694 68.9056 53.8623 69.9349 53.8623 71.1855C53.8623 72.7461 53.3255 73.9967 52.252 74.9375C51.1784 75.8672 49.7396 76.332 47.9355 76.332C46.0651 76.332 44.5488 75.7952 43.3867 74.7217C42.2246 73.6481 41.6436 72.2868 41.6436 70.6377H44.5986C44.6318 71.6338 44.9362 72.4141 45.5117 72.9785C46.0872 73.543 46.8952 73.8252 47.9355 73.8252C48.9095 73.8252 49.651 73.6094 50.1602 73.1777C50.6693 72.735 50.9238 72.1429 50.9238 71.4014ZM57.083 66.1885C57.083 63.5765 57.7139 61.5124 58.9756 59.9961C60.2484 58.4688 61.9251 57.7051 64.0059 57.7051C66.0866 57.7051 67.7578 58.4466 69.0195 59.9297C70.2923 61.4128 70.9453 63.4326 70.9785 65.9893V67.8818C70.9785 70.4827 70.3477 72.5413 69.0859 74.0576C67.8242 75.5739 66.1419 76.332 64.0391 76.332C61.9583 76.332 60.2871 75.596 59.0254 74.124C57.7747 72.652 57.1273 70.6598 57.083 68.1475V66.1885ZM60.0215 67.8818C60.0215 69.7301 60.3812 71.1855 61.1006 72.248C61.8311 73.2995 62.8105 73.8252 64.0391 73.8252C66.6289 73.8252 67.9626 71.9548 68.04 68.2139V66.1885C68.04 64.3512 67.6748 62.9014 66.9443 61.8389C66.2139 60.7653 65.2344 60.2285 64.0059 60.2285C62.7995 60.2285 61.8311 60.7653 61.1006 61.8389C60.3812 62.9014 60.0215 64.3457 60.0215 66.1719V67.8818ZM77.9346 76H74.9961V50.5H77.9346V76ZM87.6631 71.5342L91.0664 58.0371H94.0547L88.7256 76H86.5342L81.1387 58.0371H84.127L87.6631 71.5342ZM103.302 76.332C101.066 76.332 99.3506 75.668 98.1553 74.3398C96.96 73.0007 96.3512 71.0417 96.3291 68.4629V66.2881C96.3291 63.6097 96.9102 61.5124 98.0723 59.9961C99.2454 58.4688 100.878 57.7051 102.97 57.7051C105.073 57.7051 106.644 58.3747 107.685 59.7139C108.725 61.0531 109.256 63.1393 109.278 65.9727V67.8984H99.251V68.3135C99.251 70.2393 99.6107 71.6393 100.33 72.5137C101.061 73.388 102.106 73.8252 103.468 73.8252C104.331 73.8252 105.089 73.6647 105.742 73.3438C106.406 73.0117 107.026 72.4915 107.602 71.7832L109.129 73.6426C107.856 75.4355 105.914 76.332 103.302 76.332ZM102.97 60.2285C101.752 60.2285 100.85 60.6491 100.264 61.4902C99.6771 62.3203 99.3451 63.6152 99.2676 65.375H106.34V64.9766C106.262 63.2721 105.952 62.0547 105.41 61.3242C104.879 60.5938 104.065 60.2285 102.97 60.2285ZM120.235 60.793C119.826 60.7155 119.383 60.6768 118.907 60.6768C117.402 60.6768 116.351 61.5013 115.753 63.1504V76H112.814V58.0371H115.67L115.72 59.8633C116.506 58.4245 117.618 57.7051 119.057 57.7051C119.521 57.7051 119.909 57.7826 120.219 57.9375L120.235 60.793Z" fill="white"/>
<path d="M66.8496 14.0703H63.7676V13.1738H68.1387V13.8652L66.3164 16.2324C66.8633 16.3262 67.3145 16.6172 67.6699 17.1055C68.0293 17.5898 68.209 18.1758 68.209 18.8633C68.209 19.8359 67.957 20.6094 67.4531 21.1836C66.9492 21.7578 66.2773 22.0449 65.4375 22.0449C64.7734 22.0449 64.0977 21.8438 63.4102 21.4414L63.6973 20.627C64.2246 20.9707 64.7715 21.1426 65.3379 21.1426C65.8848 21.1426 66.3262 20.9453 66.6621 20.5508C66.998 20.1562 67.166 19.6367 67.166 18.9922C67.166 18.332 67.0254 17.8398 66.7441 17.5156C66.4668 17.1875 66.0195 17.0234 65.4023 17.0234H65.1211V16.4199L66.8496 14.0703Z" fill="#0A8CF4"/>
<path d="M118.631 38.5741V16.3289L100.691 26.6866C100.702 26.7809 100.746 26.8624 100.746 26.96C100.746 28.0746 99.9949 28.9804 98.9805 29.2886V49.92L118.631 38.5741V38.5741ZM100.2 25.4752L117.889 15.2618V15.2066L98.275 4L78.6606 15.2066V15.2618L96.3505 25.4752C96.8021 24.8903 97.4787 24.4888 98.275 24.4888C99.0713 24.4879 99.7479 24.8903 100.2 25.4752ZM95.859 26.6866L77.9187 16.3289V38.5741L97.5695 49.9191V29.2877C96.5559 28.9796 95.8038 28.0738 95.8038 26.9591C95.8038 26.8624 95.8479 26.7809 95.859 26.6866V26.6866Z" fill="white"/>
<line x1="8" y1="94.5" x2="146" y2="94.5" stroke="#434343"/>
</svg>
