<?xml version="1.0" encoding="UTF-8"?>
<svg width="35px" height="34px" viewBox="0 0 35 34" version="1.1" xmlns="http://www.w3.org/2000/svg" xmlns:xlink="http://www.w3.org/1999/xlink">
    <title>icons/app-manual</title>
    <g id="icons/app-manual" stroke="none" stroke-width="1" fill="none" fill-rule="evenodd">
        <path d="M22.7,0 C22.6,0 22.4,0 22.3,0.1 C19.7,1.6 18.1,4.3 18.1,7.3 C18.1,8.3 18.3,9.3 18.7,10.3 L18.4,10.6 C18.1,10.9 18.1,11.4 18.4,11.7 C18.7,12 19.2,12 19.5,11.7 L20.1,11.1 C20.3,10.9 20.4,10.5 20.3,10.2 C19.9,9.3 19.7,8.3 19.7,7.4 C19.7,5.5 20.5,3.6 22,2.4 L22,7.5 C22,7.8 22.1,8 22.3,8.1 L26,10.6 C26.3,10.8 26.6,10.8 26.9,10.6 L30.6,8.1 C30.8,8 30.9,7.7 30.9,7.5 L30.9,2.4 C32.3,3.7 33.2,5.5 33.2,7.4 C33.2,9.2 32.5,10.9 31.2,12.2 C29.9,13.5 28.2,14.2 26.4,14.2 L26.4,14.2 C25.8,14.2 24.6,13.9 24.2,13.8 C23.9,13.7 23.6,13.8 23.4,14 L21,16.4 C20.7,16.7 20.7,17.2 21,17.5 C21.2,17.7 21.3,17.7 21.5,17.7 C21.7,17.7 21.9,17.6 22,17.5 L24,15.5 C24.6,15.6 25.5,15.9 26.2,15.9 L26.2,15.9 C28.4,15.9 30.5,15 32.1,13.5 C33.7,11.9 34.5,9.9 34.5,7.6 C34.5,4.6 32.9,1.9 30.3,0.4 C30.1,0.3 29.8,0.3 29.5,0.4 C29.3,0.5 29.1,0.8 29.1,1.1 L29.1,7.3 L26.2,9.3 L23.3,7.3 L23.3,1.1 C23.3,0.8 23.2,0.6 22.9,0.4 C22.9,0 22.8,0 22.7,0 L22.7,0 Z M4.4,0.3 C3.4,0.3 2.4,0.7 1.6,1.4 C0.9,2.1 0.5,3.1 0.5,4.2 C0.5,5.2 0.9,6.2 1.6,7 L13.8,19.2 C13.7,19.5 13.7,19.8 14,20.1 C14.3,20.4 14.8,20.4 15.1,20.1 L16.4,18.8 L24.4,26.8 L25.2,29 C25.2,29.1 25.3,29.2 25.4,29.3 L29.9,33.8 C30.1,34 30.2,34 30.4,34 C30.6,34 30.8,33.9 30.9,33.8 L33.8,30.9 C33.9,30.8 34,30.6 34,30.4 C34,30.2 33.9,30 33.8,29.9 L29.3,25.4 C29.2,25.3 29.1,25.3 29,25.2 L26.8,24.4 L18.8,16.4 L20.1,15.1 C20.4,14.8 20.4,14.3 20.1,14 C19.9,13.8 19.5,13.7 19.2,13.8 L7.1,1.5 C6.4,0.7 5.4,0.3 4.4,0.3 L4.4,0.3 Z M4.4,1.9 L4.4,1.9 C5,1.9 5.6,2.1 6.1,2.6 L18.2,14.7 L17.2,15.7 C17.2,15.7 17.2,15.7 17.2,15.7 C17.2,15.7 17.2,15.7 17.2,15.7 L14.8,18.1 L2.7,5.9 C2.3,5.5 2,4.9 2,4.2 C2,3.6 2.2,3 2.7,2.5 C3.2,2.1 3.8,1.9 4.4,1.9 L4.4,1.9 Z M4.4,3.4 C4.2,3.4 4,3.5 3.9,3.6 C3.6,3.9 3.6,4.4 3.9,4.7 L14.6,15.4 C14.8,15.6 15,15.6 15.1,15.6 C15.3,15.6 15.5,15.5 15.6,15.4 C15.9,15.1 15.9,14.6 15.6,14.3 L4.9,3.7 C4.8,3.5 4.6,3.4 4.4,3.4 Z M17.8,17.3 L26,25.5 C26.1,25.6 26.2,25.6 26.3,25.7 L28.5,26.5 L32.3,30.3 L30.5,32.1 L26.7,28.3 L25.9,26.1 C25.9,26 25.8,25.9 25.7,25.8 L17.5,17.6 L17.8,17.3 L17.8,17.3 Z M11.2,18 C11,18 10.8,18.1 10.7,18.2 L1.4,27.5 C0.7,28.2 0.3,29.1 0.3,30.1 C0.3,31.1 0.7,32 1.4,32.7 C2.1,33.4 3,33.8 4,33.8 L4,33.8 C5,33.8 5.9,33.4 6.6,32.7 L17.4,21.9 C17.7,21.6 17.7,21.1 17.4,20.8 C17.1,20.5 16.6,20.5 16.3,20.8 L5.6,31.6 C5.2,32 4.7,32.2 4.1,32.2 L4.1,32.2 C3.5,32.2 3,32 2.6,31.6 C2.2,31.2 2,30.7 2,30.1 C2,29.5 2.2,29 2.6,28.6 L11.9,19.3 C12.2,19 12.2,18.5 11.9,18.2 C11.6,18 11.4,18 11.2,18 Z M4,29.1 C3.7,29.1 3.5,29.2 3.3,29.4 C2.9,29.8 2.9,30.4 3.3,30.7 C3.3,30.7 3.3,30.7 3.3,30.7 C3.5,30.9 3.7,31 4,31 C4.2,31 4.5,30.9 4.7,30.7 C5.1,30.3 5.1,29.7 4.7,29.4 C4.5,29.2 4.3,29.1 4,29.1 L4,29.1 L4,29.1 Z" id="Shape" fill="#FFFFFF" fill-rule="nonzero"></path>
    </g>
</svg>