<?xml version="1.0" encoding="UTF-8"?>
<svg width="9px" height="9px" viewBox="0 0 9 9" version="1.1" xmlns="http://www.w3.org/2000/svg" xmlns:xlink="http://www.w3.org/1999/xlink">
    <title>icons/plus-round</title>
    <g id="icons/plus-round" stroke="none" stroke-width="1" fill="none" fill-rule="evenodd">
        <path d="M4.54707812,0 C4.92207812,0 5.22642594,0.30421005 5.22642594,0.67904029 L5.226,3.865 L8.32065217,3.86597939 C8.69565217,3.86597939 9,4.17018944 9,4.54501968 C9,4.921208 8.69565217,5.22405997 8.32065217,5.22405997 L5.226,5.224 L5.22642594,8.32095971 C5.22642594,8.69578995 4.92207812,9 4.54707812,9 C4.17071942,9 3.86773029,8.69578995 3.86773029,8.32095971 L3.867,5.224 L0.679347826,5.22405997 C0.304347826,5.22405997 6.14619466e-13,4.921208 6.14619466e-13,4.54501968 C6.14619466e-13,4.17018944 0.304347826,3.86597939 0.679347826,3.86597939 L3.867,3.865 L3.86773029,0.67904029 C3.86773029,0.30421005 4.17071942,0 4.54707812,0 Z" id="Fill-17" fill="#FFFFFF"></path>
    </g>
</svg>