<svg xmlns="http://www.w3.org/2000/svg" width="14" height="14" viewBox="0 0 14 14">
    <g fill="none" fill-rule="evenodd">
        <g fill="#ACB2C0">
            <g>
                <path d="M23.241 10.758c1.012 1.01 1.012 2.655 0 3.666l-8.253 8.242c-.05.086-.132.15-.231.177l-2.725.729-1.552.415c-.131.035-.272-.002-.368-.099-.097-.096-.134-.236-.099-.368l.416-1.55.708-2.64c.002-.095.04-.189.111-.26l8.322-8.312c1.012-1.01 2.659-1.01 3.671 0zm-11.349 9.614l-.498 1.858-.138.514.518-.138 2.015-.54-1.897-1.694zm8.385-8.906l-1.143 1.14-6.736 6.727 2.365 2.144 7.618-7.608.153-.153c.621-.62.621-1.63 0-2.25-.621-.621-1.635-.621-2.257 0z" transform="translate(-10 -18) translate(0 8)"/>
            </g>
        </g>
    </g>
</svg>
