<?xml version="1.0" encoding="UTF-8"?>
<svg width="35px" height="35px" viewBox="0 0 35 35" version="1.1" xmlns="http://www.w3.org/2000/svg" xmlns:xlink="http://www.w3.org/1999/xlink">
    <title>icons/welcome-start</title>
    <defs>
        <polygon id="path-1" points="0 0 35 0 35 31 0 31"></polygon>
    </defs>
    <g id="icons/welcome-start" stroke="none" stroke-width="1" fill="none" fill-rule="evenodd">
        <g id="Group-3" transform="translate(0.000000, 2.000000)">
            <mask id="mask-2" fill="white">
                <use xlink:href="#path-1"></use>
            </mask>
            <g id="Clip-2"></g>
            <path d="M32.209483,12.9358369 C30.9017692,14.0269097 29.3280984,14.7183939 27.6286222,14.9475591 L27.4200501,14.9678648 C25.7275631,15.1313989 24.0229369,15.052714 22.3506818,14.7343484 C20.2759966,14.3532525 18.1597441,14.2600635 16.0611484,14.4576822 C13.7926052,14.6527627 11.6263248,15.2786157 9.6160137,16.3196493 L3.51960265,6.45321796 C5.18817929,5.63409747 6.97557211,5.13551815 8.8391103,4.97017112 C10.7250875,4.79684682 12.6239394,4.88459678 14.4837991,5.23160799 C16.3800761,5.58695906 18.3153454,5.66963258 20.2403149,5.47926593 C22.3606138,5.23052018 24.3495895,4.41611353 26.0200054,3.11763169 L32.209483,12.9358369 Z M34.8157144,12.4753309 L27.3439047,0.57795931 C27.1721178,0.302018321 26.9013788,0.108750849 26.5817154,0.0336919992 C26.2609485,-0.0417294536 25.9317209,0.0104853983 25.6521534,0.180183667 C25.5311301,0.253429501 25.424453,0.346618507 25.3541933,0.435093673 C23.9342846,1.928656 22.0137294,2.8645347 19.9482404,3.07013068 C18.2553856,3.23366469 16.5507594,3.15461721 14.8785043,2.83625165 C12.8041869,2.45551836 10.6871987,2.36269196 8.58897095,2.55958546 C6.3634664,2.75285293 4.23433907,3.3609384 2.25492751,4.36861252 C2.08350848,4.11624073 1.82637994,3.93856519 1.52474131,3.86604457 C1.20581363,3.7891727 0.874746837,3.83921193 0.592972211,4.00745979 C0.31193329,4.17570765 0.114028919,4.44222095 0.0356764445,4.75696048 C-0.0423081776,5.0720626 0.00845539719,5.39840543 0.179138721,5.67579683 L15.4181432,30.4201976 C15.6458435,30.7828007 16.0394452,30.9996374 16.472407,31 C16.6975324,31 16.9175079,30.9379949 17.1047445,30.8234123 C17.3861513,30.6562522 17.5847914,30.3908267 17.6638796,30.0768124 C17.7429677,29.7624355 17.6929399,29.4364553 17.5222566,29.1572509 L10.8917244,18.40498 C12.5871542,17.5532252 14.4076537,17.0383288 16.3105521,16.8740695 C18.1965293,16.7025583 20.0953812,16.7906708 21.9559766,17.1355064 C23.8515179,17.4901323 25.7860515,17.5738936 27.7077103,17.3831644 C30.3992834,17.1025095 32.8885378,15.8642198 34.7340512,13.8764294 C35.0559217,13.4743025 35.0886605,12.9111798 34.8157144,12.4753309 L34.8157144,12.4753309 Z" id="Fill-1" fill="#FFFFFF" mask="url(#mask-2)"></path>
        </g>
    </g>
</svg>