<?xml version="1.0" encoding="UTF-8"?>
<svg width="20px" height="23px" viewBox="0 0 20 23" version="1.1" xmlns="http://www.w3.org/2000/svg" xmlns:xlink="http://www.w3.org/1999/xlink">
    <title>copy</title>
    <g id="Jumpstart" stroke="none" stroke-width="1" fill="none" fill-rule="evenodd">
        <g id="mm_export--publish--complete" transform="translate(-692.000000, -373.000000)" fill="#ACB2C0" fill-rule="nonzero">
            <g id="copy" transform="translate(692.000000, 373.000000)">
                <path d="M15.482422,4.88330078 L17.5883217,4.88330078 L17.5900492,4.88688151 C18.2551611,4.88867188 18.8580807,5.16796875 19.2934266,5.62093099 C19.7253174,6.0703125 19.9948173,6.69156901 19.9965449,7.37906901 L20,20.500651 C19.9948173,21.1899414 19.7253174,21.8147786 19.2882439,22.2677409 C18.8546256,22.715332 18.2551611,22.9946289 17.5917768,22.9964193 L6.92925628,23 C6.26414442,22.9946289 5.65949728,22.715332 5.22415133,22.2623698 C4.79226052,21.8129883 4.52276065,21.1917318 4.52103308,20.5042318 L4.51757796,17.5626628 L2.41167833,17.5626628 C1.74656647,17.5572917 1.14191932,17.2779948 0.706573378,16.8250326 C0.27468256,16.375651 0.00518268982,15.7543945 0.00345512654,15.0668945 L0,15.0633138 L0,2.49934896 C0.00518268982,1.80826823 0.276410124,1.18343099 0.711756068,0.732259115 C1.14537445,0.284667969 1.7448389,0.00537109375 2.4082232,0.00358072917 L13.0707437,0 C13.7375831,0.00537109375 14.3405027,0.284667969 14.7758487,0.737630208 C15.2077395,1.18701172 15.4772394,1.80826823 15.4789669,2.49576823 L15.482422,4.88330078 Z M13.9964953,2.61748634 L13.9964953,2.61384335 C14,2.44808743 13.9316589,2.29508197 13.823014,2.18214936 C13.7161215,2.07103825 13.5671729,2 13.4077103,2 L2.59404206,2.00364299 C2.43107477,2 2.2838785,2.07103825 2.17523364,2.18397086 C2.06834112,2.29508197 2,2.44990893 2,2.61566485 L2.00350467,15.3825137 L2.00350467,14.786157 C2,14.9519129 2.06834112,15.1049184 2.17698598,15.217851 C2.2838785,15.3289621 2.4328271,15.4 2.59228972,15.4 L4.43014,15.396357 L4.43014,7.568306 C4.43539701,6.86520946 4.5,6 5,5.5 C5.5,5 6.5,5.03096539 7.1728972,5.0291439 L7.17640187,5.02550091 L13.9964953,5.02550091 L13.9964953,2.61748634 Z M17.9964953,7.59287945 C18,7.43023111 17.9316589,7.28332292 17.823014,7.17489069 C17.7161215,7.06820737 17.5671729,7 17.4077103,7 L7.094042,7.00349781 C6.93107471,7 6.78387886,7.06820737 6.675234,7.1766396 C6.56834148,7.28332292 6.5,7.43198001 6.5,7.59113054 L6.503505,20.4071205 C6.5,20.5697689 6.56834114,20.7166771 6.676986,20.8251093 C6.78387852,20.9317926 6.93282738,21 7.09229,21 L17.4059579,20.9965022 C17.5689252,21 17.7161215,20.9317926 17.8247664,20.8233604 C17.9316589,20.7166771 18,20.56802 18,20.4088695 L17.9964953,7.59287945 Z" id="Shape"></path>
            </g>
        </g>
    </g>
</svg>