<svg xmlns="http://www.w3.org/2000/svg" width="15" height="16" viewBox="0 0 15 16">
    <g fill-rule="evenodd">
        <g>
            <g>
                <g>
                    <path d="M.943 4.627C.43 4.627 0 4.213 0 3.69V2.8c0-.513.42-.937.943-.937h12.084c.534 0 .961.441.929.937v.89c0 .513-.42.937-.944.937h-.341l-1.023 8.115c-.102.924-.89 1.612-1.826 1.612H4.134c-.924 0-1.702-.69-1.826-1.604L1.285 4.627H.943zM1 2.863v.764h1.167l.055.438L3.3 12.62c.056.416.413.733.834.733h5.688c.43 0 .787-.31.833-.729l1.134-8.998h1.167v-.764H1z" transform="translate(-733 -194) translate(722.5 184.5) translate(10.515 10.073)"/>
                    <path d="M5.966 11.142c0 .291-.236.525-.532.525-.295 0-.532-.234-.532-.525V6.038c0-.292.237-.526.532-.526.296 0 .532.234.532.526v5.104zM9.083 11.142c0 .291-.236.525-.532.525-.295 0-.532-.234-.532-.525V6.038c0-.292.237-.526.532-.526.296 0 .532.234.532.526v5.104zM8.994.438C8.994.19 8.787 0 8.551 0H5.42c-.25 0-.443.204-.443.438v1.035H9.01V.437h-.015z" transform="translate(-733 -194) translate(722.5 184.5) translate(10.515 10.073)"/>
                </g>
            </g>
        </g>
    </g>
</svg>
