<?xml version="1.0" encoding="UTF-8"?>
<svg width="14px" height="14px" viewBox="0 0 14 14" version="1.1" xmlns="http://www.w3.org/2000/svg" xmlns:xlink="http://www.w3.org/1999/xlink">
    <title>icons/search</title>
    <g id="icons/search" stroke="none" stroke-width="1" fill="none" fill-rule="evenodd">
        <path d="M12.7842655,11.7702703 L10.4511371,9.45454545 C12.2728949,7.12285012 12.0811309,3.8009828 9.98770744,1.70884521 C8.88506454,0.606879607 7.414874,0 5.84880148,0 C4.28272895,0 2.81253841,0.606879607 1.70989551,1.70884521 C0.607252612,2.81081081 0,4.28009828 0,5.84520885 C0,7.41031941 0.607252612,8.87960688 1.70989551,9.98157248 C2.81253841,11.0835381 4.28272895,11.6904177 5.84880148,11.6904177 C7.14320836,11.6904177 8.42163491,11.2592138 9.44437615,10.4447174 L11.7615243,12.7923833 C11.9053473,12.9361179 12.0811309,13 12.2728949,13 C12.4646589,13 12.6404425,12.9201474 12.7842655,12.7923833 C13.0719115,12.5208845 13.0719115,12.0577396 12.7842655,11.7702703 Z M10.2593731,5.84520885 C10.2593731,7.02702703 9.79594345,8.12899263 8.9649662,8.95945946 C8.13398894,9.78992629 7.0153657,10.2530713 5.84880148,10.2530713 C4.68223725,10.2530713 3.56361401,9.78992629 2.73263675,8.95945946 C1.9016595,8.12899263 1.43822987,7.01105651 1.43822987,5.84520885 C1.43822987,4.66339066 1.9016595,3.56142506 2.73263675,2.73095823 C3.56361401,1.9004914 4.68223725,1.43734644 5.84880148,1.43734644 C7.03134604,1.43734644 8.13398894,1.9004914 8.9649662,2.73095823 C9.79594345,3.56142506 10.2593731,4.66339066 10.2593731,5.84520885 Z" id="magnifying-glass" fill="#FFFFFF" fill-rule="nonzero"></path>
    </g>
</svg>