<?xml version="1.0" encoding="utf-8"?>
<!-- Generator: Adobe Illustrator 22.1.0, SVG Export Plug-In . SVG Version: 6.00 Build 0)  -->
<svg version="1.1" id="Capa_1" xmlns="http://www.w3.org/2000/svg" xmlns:xlink="http://www.w3.org/1999/xlink" x="0px" y="0px"
	 viewBox="0 0 380 380" style="enable-background:new 0 0 380 380;" xml:space="preserve">
<style type="text/css">
	.st0{fill:#FFFFFF;}
</style>
<path class="st0" d="M377.1,101.6c-25.9-25.9-60.4-40.2-97.1-40.2c-33.4,0-65,11.9-90,33.6c-25-21.7-56.6-33.6-90-33.6
	c-36.7,0-71.1,14.3-97.1,40.2C1.1,103.4,0,106,0,108.6v200c0,4,2.4,7.7,6.2,9.2c3.7,1.5,8,0.7,10.9-2.2
	c22.2-22.2,51.6-34.4,82.9-34.4s60.8,12.2,82.9,34.4c0,0,0.1,0.1,0.1,0.1c0.2,0.2,0.4,0.4,0.6,0.6c0.1,0.1,0.3,0.2,0.4,0.3
	c0.1,0.1,0.3,0.2,0.4,0.3c0.1,0.1,0.3,0.2,0.5,0.3c0.1,0.1,0.3,0.2,0.4,0.2c0.2,0.1,0.3,0.2,0.5,0.2c0.1,0.1,0.3,0.1,0.4,0.2
	c0.2,0.1,0.3,0.1,0.5,0.2c0.2,0.1,0.3,0.1,0.5,0.2c0.2,0,0.3,0.1,0.5,0.1c0.2,0,0.3,0.1,0.5,0.1c0.2,0,0.4,0.1,0.6,0.1
	c0.1,0,0.3,0,0.4,0.1c0.7,0.1,1.3,0.1,2,0c0.1,0,0.3,0,0.4-0.1c0.2,0,0.4,0,0.6-0.1c0.2,0,0.3-0.1,0.5-0.1c0.2,0,0.3-0.1,0.5-0.1
	c0.2,0,0.3-0.1,0.5-0.2c0.2-0.1,0.3-0.1,0.5-0.2c0.1-0.1,0.3-0.1,0.4-0.2c0.2-0.1,0.3-0.1,0.5-0.2c0.1-0.1,0.3-0.2,0.4-0.2
	c0.2-0.1,0.3-0.2,0.5-0.3c0.1-0.1,0.3-0.2,0.4-0.3c0.1-0.1,0.3-0.2,0.4-0.3c0.2-0.2,0.4-0.4,0.6-0.6c0,0,0.1-0.1,0.1-0.1
	c22.2-22.2,51.6-34.4,82.9-34.4s60.8,12.2,82.9,34.4c1.9,1.9,4.5,2.9,7.1,2.9c1.3,0,2.6-0.2,3.8-0.8c3.7-1.5,6.2-5.2,6.2-9.2v-200
	C380,106,378.9,103.4,377.1,101.6z M20,287V112.9c21.8-20.4,50-31.5,80-31.5c30,0,58.2,11.2,80,31.5V287
	c-23.2-16.7-50.9-25.7-80-25.7C70.9,261.4,43.2,270.4,20,287z M360,287c-23.2-16.7-50.9-25.7-80-25.7c-29.1,0-56.8,9-80,25.7V112.9
	c21.8-20.4,50-31.5,80-31.5c30,0,58.2,11.2,80,31.5V287z"/>
</svg>
