<?xml version="1.0" encoding="utf-8"?>
<!-- Generator: Adobe Illustrator 22.1.0, SVG Export Plug-In . SVG Version: 6.00 Build 0)  -->
<svg version="1.1" id="Layer_1" xmlns="http://www.w3.org/2000/svg" xmlns:xlink="http://www.w3.org/1999/xlink" x="0px" y="0px"
	 width="12px" height="29px" viewBox="0 0 12 29" style="enable-background:new 0 0 12 29;" xml:space="preserve">
<title>Workspace Copy 13</title>
<desc>Created with Sketch.</desc>
<g id="AppMenu-Catalog-_x28_P_x29_">
	<g id="menu_apps-catalog-tagMenu" transform="translate(-26.000000, -130.000000)">
		
			<g id="carat_down_white" transform="translate(32.000000, 144.500000) rotate(90.000000) translate(-32.000000, -144.500000) translate(17.500000, 138.500000)">
			<path id="Fill-116" d="M14.4,11.4L14.4,11.4c-0.3,0-0.7-0.1-0.9-0.2l-13-9.6C0.2,1.3,0.3,0.9,0.7,0.7c0.5-0.2,1.2-0.1,1.5,0.1
				l12.1,9l12.1-8.9c0.4-0.3,1-0.3,1.5-0.1c0.5,0.2,0.6,0.6,0.2,0.8l-13,9.6C15.1,11.3,14.7,11.4,14.4,11.4"/>
		</g>
	</g>
</g>
</svg>
