<svg width="15px" height="15px" viewBox="2 1 13 13" 
    xmlns="http://www.w3.org/2000/svg" 
    xmlns:xlink="http://www.w3.org/1999/xlink">
    <title>Linker</title>
    <defs>
        <path id="prefix__b" d="M17.925 15.425h-1v-2.5a2.5 2.5 0 0 0-5 0v2.5h-1v-2.5a3.5 3.5 0 1 1 7 0v2.5zm0 2v2.5a3.5 3.5 0 1 1-7 0v-2.5h1v2.5a2.5 2.5 0 0 0 5 0v-2.5h1zm-3.5-4a.5.5 0 0 1 .5.5v5a.5.5 0 0 1-1 0v-5a.5.5 0 0 1 .5-.5z"/>
        <filter id="prefix__a" x="-28.6%" y="-7.1%" width="157.1%" height="128.6%">
            <feOffset dy="1" in="SourceAlpha" result="shadowOffsetOuter1"/>
            <feGaussianBlur in="shadowOffsetOuter1" result="shadowBlurOuter1" stdDeviation=".5"/>
            <feColorMatrix in="shadowBlurOuter1" values="0 0 0 0 0 0 0 0 0 0 0 0 0 0 0 0 0 0 0.5 0"/>
        </filter>
    </defs>
    <g transform="rotate(45 22.289 4.682)" fillRule="nonzero" fill="none">
        <use fill="#000" filter="url(#prefix__a)" xlink:href="#prefix__b"/>
        <use fill="#FFF" xlink:href="#prefix__b"/>
    </g>
</svg>