<?xml version="1.0" encoding="iso-8859-1"?>
<!-- Generator: Adobe Illustrator 19.0.0, SVG Export Plug-In . SVG Version: 6.00 Build 0)  -->
<svg version="1.1" id="Capa_1" xmlns="http://www.w3.org/2000/svg" xmlns:xlink="http://www.w3.org/1999/xlink" x="0px" y="0px"
	 viewBox="0 0 504.123 504.123" style="enable-background:new 0 0 504.123 504.123;" xml:space="preserve">
<circle style="fill:#E1E6E8;" cx="252.062" cy="252.062" r="252.062"/>
<path style="fill:#4EBD9E;" d="M445.834,445.834l-12.603-100.037c14.966-29.145,24.418-62.228,24.418-96.886
	C456.862,133.12,363.914,39.385,248.123,39.385S39.385,133.12,39.385,248.123s93.735,208.738,208.738,208.738
	c35.446,0,68.529-8.665,96.886-24.418L445.834,445.834z"/>
<path style="fill:#183651;" d="M248.123,464.738c-118.942,0-216.615-96.886-216.615-216.615S129.182,31.508,248.123,31.508
	c119.729,0,216.615,96.886,216.615,216.615c0,33.871-7.877,68.529-23.631,98.462l11.815,97.674c0,2.363-0.788,4.726-2.363,6.302
	c-1.575,1.575-3.938,2.363-6.302,2.363l-97.674-11.815C316.652,456.862,282.782,464.738,248.123,464.738z M248.123,47.262
	c-110.277,0-200.862,90.585-200.862,200.862s90.585,200.862,200.862,200.862c32.295,0,64.591-7.877,93.735-22.843
	c1.575-0.788,3.151-0.788,4.726-0.788l89.797,11.028l-11.028-89.797c0-1.575,0-3.151,0.788-4.726
	c14.966-28.357,22.843-60.652,22.843-93.735C448.985,137.846,359.188,47.262,248.123,47.262z"/>
<path style="fill:#FFFFFF;" d="M248.123,425.354c-97.674,0-177.231-79.557-177.231-177.231S150.449,70.892,248.123,70.892
	s177.231,79.557,177.231,177.231c0,43.323-14.178,70.892-25.206,91.372l8.665,69.317l-69.317-8.665
	C325.317,408.025,295.385,425.354,248.123,425.354z"/>
<g>
	<polygon style="fill:#F05F50;" points="225.28,120.517 225.28,258.363 237.095,304.837 258.363,304.837 270.966,258.363 
		270.966,120.517 	"/>
	<rect x="225.28" y="330.043" style="fill:#F05F50;" width="45.686" height="45.686"/>
</g>
<g>
	<rect x="137.846" y="183.532" style="fill:#183651;" width="15.754" height="15.754"/>
	<rect x="137.846" y="240.246" style="fill:#183651;" width="15.754" height="15.754"/>
	<rect x="137.846" y="296.96" style="fill:#183651;" width="15.754" height="15.754"/>
	<rect x="342.646" y="183.532" style="fill:#183651;" width="15.754" height="15.754"/>
	<rect x="342.646" y="240.246" style="fill:#183651;" width="15.754" height="15.754"/>
	<rect x="342.646" y="296.96" style="fill:#183651;" width="15.754" height="15.754"/>
</g>
<g>
</g>
<g>
</g>
<g>
</g>
<g>
</g>
<g>
</g>
<g>
</g>
<g>
</g>
<g>
</g>
<g>
</g>
<g>
</g>
<g>
</g>
<g>
</g>
<g>
</g>
<g>
</g>
<g>
</g>
</svg>
