<?xml version="1.0" encoding="utf-8"?>
<!-- Generator: Adobe Illustrator 24.3.0, SVG Export Plug-In . SVG Version: 6.00 Build 0)  -->
<svg version="1.1" id="Layer_1" xmlns="http://www.w3.org/2000/svg" xmlns:xlink="http://www.w3.org/1999/xlink" x="0px" y="0px"
	 viewBox="0 0 595 375" style="enable-background:new 0 0 595 375;" xml:space="preserve">
<style type="text/css">
	.st0{fill:url(#SVGID_1_);stroke:#000000;stroke-miterlimit:10;}
	.st1{fill:#FFFFFF;}
	.st2{fill:#43A5BA;}
</style>
<linearGradient id="SVGID_1_" gradientUnits="userSpaceOnUse" x1="297.4074" y1="-0.4712" x2="297.4074" y2="375.5288">
	<stop  offset="0" style="stop-color:#131B30"/>
	<stop  offset="1" style="stop-color:#22445E"/>
</linearGradient>
<rect x="-0.1" y="-0.5" class="st0" width="595" height="376"/>
<g>
	<path class="st1" d="M194,165.4v15.8h17.2v6H194v20.9h-6.4v-48.6h28v5.9C215.7,165.4,194,165.4,194,165.4z"/>
	<path class="st1" d="M221.9,163c0-2.3,2-4.1,4.3-4.1c2.4,0,4.3,1.7,4.3,4.1s-2,4.1-4.3,4.1C223.8,167.1,221.9,165.4,221.9,163z
		 M223.1,175.2h6.1v33h-6.1V175.2z"/>
	<path class="st1" d="M268.4,189.1v19.1h-6.1v-18.8c0-5.5-3.4-8.9-7.9-8.9s-10,2.6-10,9.8v17.9h-6.1v-33h6.1v5
		c2-4.1,7.2-5.8,10.8-5.8C263.4,174.5,268.5,179.9,268.4,189.1z"/>
	<path class="st1" d="M276,198.3h5.7c0.1,2.9,2.5,5.2,6.5,5.2c4.1,0,6.5-1.9,6.5-4.6c0-2.5-1.9-3.8-4.5-4.3l-4.5-1.1
		c-5.4-1.5-8.6-4.1-8.6-9.5c0-5.4,4.6-9.6,11.1-9.6c5.5,0,11.2,2.9,11.2,9.6h-5.9c-0.1-2.6-2.7-4.2-5.2-4.2c-3.1,0-5.2,1.9-5.2,4.4
		c0,2.3,2.1,3.5,4.2,4l4.8,1.2c6.8,1.7,8.6,5.8,8.6,9.5c0,6.2-5.9,9.9-12.6,9.9C282.3,208.9,276.3,205.1,276,198.3z"/>
	<path class="st1" d="M341.1,194.3h-26.5c0.9,5.9,5.1,8.8,10.7,8.8c4,0,7.7-1.7,9.5-5l5.3,2.1c-2.9,5.7-8.7,8.7-15,8.7
		c-9.3,0-16.8-6.8-16.8-17.3c0-10.4,7.5-17.1,16.8-17.1s16.2,6.6,16.2,17.1C341.2,192.5,341.1,193.4,341.1,194.3z M335.1,189
		c-0.8-5.6-4.8-8.8-10.1-8.8c-5.5,0-9.4,2.9-10.4,8.8H335.1z"/>
	<path class="st1" d="M400.9,189.1v19.1h-6.1v-18.8c0-5.5-3-9-7.7-9c-5.8-0.1-9.3,4.9-8.7,11.2l-0.1-0.3v16.9h-6.1v-18.7
		c0-5.6-3-9-7.4-9c-4.6,0-9.2,2.9-9.2,9.9v17.9h-6.1v-33h6.2v5c1.7-3.5,5.9-5.7,10.5-5.7c4.8,0,8.9,2.5,10.8,6.8
		c2.9-5.8,8.1-6.8,11.4-6.8C396.4,174.5,400.9,179.9,400.9,189.1z"/>
	<path class="st1" d="M443.6,191.7c0,10.4-7.4,17.2-16.4,17.2c-4.7,0-9.4-2.1-11.6-5.9v5.3h-6.1v-51h6.1v23.1
		c2.2-3.9,6.8-5.9,11.7-5.9C436.3,174.5,443.6,181.1,443.6,191.7z M437.5,191.6c0-6.6-4.8-11.3-10.8-11.3c-5.3,0-11.1,4.1-11.1,11.3
		c0,7.1,5.2,11.5,11.1,11.5C432.8,203.1,437.5,198.1,437.5,191.6z"/>
	<path class="st1" d="M450.7,157.2h6.1v51h-6.1V157.2z"/>
	<path class="st1" d="M496.6,194.3H470c0.9,5.9,5.1,8.8,10.7,8.8c4,0,7.7-1.7,9.5-5l5.3,2.1c-2.9,5.7-8.7,8.7-15,8.7
		c-9.3,0-16.8-6.8-16.8-17.3c0-10.4,7.5-17.1,16.8-17.1s16.2,6.6,16.2,17.1C496.7,192.5,496.6,193.4,496.6,194.3z M490.6,189
		c-0.8-5.6-4.8-8.8-10.1-8.8c-5.5,0-9.4,2.9-10.4,8.8H490.6z"/>
	<path class="st2" d="M117.8,233.4c-0.2,0-0.5-0.1-0.8-0.2L72.4,216c-0.8-0.3-1.3-1.2-1.3-2v-26.1c0,0,0,0,0-0.1
		c0-0.3,0.1-0.5,0.2-0.8c0,0,0,0,0-0.1c0.2-0.5,0.6-0.8,1.1-1.1h0.1l5.9-2.3l-5.8-2.3c-0.9-0.3-1.4-1.2-1.4-2v-26.1
		c0-0.2,0-0.5,0.1-0.7c0-0.1,0.1-0.2,0.1-0.3c0.2-0.4,0.5-0.8,0.8-0.9c0.1-0.1,0.2-0.2,0.4-0.2l44.6-17.3c0.5-0.2,1.1-0.2,1.5,0
		l44.6,17.3c0.8,0.3,1.4,1.1,1.4,2c0,0.8-0.5,1.7-1.4,2l-39.5,15.3l39.5,15.3c0.8,0.3,1.4,1.1,1.4,2c0,0.8-0.5,1.7-1.4,2l-43.3,16.8
		v24.6c0,0.7-0.4,1.4-0.9,1.7C118.7,233.2,118.3,233.4,117.8,233.4z M75.3,212.5l40.4,15.6v-21.5L75.3,191V212.5z M79.1,187.9
		l38.8,15l38.8-15L120,173.7v22.9c0,0.7-0.4,1.4-0.9,1.7c-0.6,0.4-1.4,0.5-2,0.2l-32.9-12.7L79.1,187.9z M85,181.6l30.8,11.9v-21.5
		l-40.5-15.6v21.5L85,181.6z M79.1,153.3l38.8,15l38.8-15l-38.8-15L79.1,153.3z"/>
	<path class="st1" d="M419.2,232.8c0,3-2.2,4.9-4.6,4.9c-1.1,0-2.4-0.5-3-1.4v1.2h-2.6V223h2.6v6.2c0.7-1,2-1.4,3-1.4
		C417,227.9,419.2,229.8,419.2,232.8z M416.5,232.8c0-1.4-1.1-2.5-2.4-2.5c-1.2,0-2.4,1-2.4,2.5c0,1.4,1.2,2.5,2.4,2.5
		C415.3,235.3,416.5,234.2,416.5,232.8z"/>
	<path class="st1" d="M427,228.1h2.8l-5.8,13.9h-2.8l2.2-5.5l-3.7-8.5h2.9l2.2,5.4L427,228.1z"/>
	<path class="st1" d="M435.3,230.6c0-3.9,3.1-7.1,7-7.1c2.4,0,4.4,1.1,5.6,2.9l-2.1,1.6c-0.8-1.1-2-1.8-3.4-1.8
		c-2.5,0-4.3,2.1-4.3,4.5s1.8,4.5,4.3,4.5c1.5,0,2.7-0.7,3.4-1.8l2.1,1.6c-1.3,1.8-3.3,2.9-5.6,2.9
		C438.4,237.8,435.3,234.5,435.3,230.6z"/>
	<path class="st1" d="M449.1,232.9c0-3,2.4-4.9,5-4.9s5,2,5,4.9s-2.4,4.9-5,4.9C451.5,237.8,449.1,235.8,449.1,232.9z M456.5,232.9
		c0-1.5-1.1-2.5-2.4-2.5c-1.3,0-2.4,1-2.4,2.5c0,1.5,1.1,2.5,2.4,2.5S456.5,234.3,456.5,232.9z"/>
	<path class="st1" d="M460.7,234.6h2.5c0,0.6,0.5,1.1,1.4,1.1c0.8,0,1.4-0.4,1.4-0.9c0-0.4-0.3-0.6-1-0.8l-1.3-0.3
		c-2.4-0.7-2.7-2-2.7-3c0-1.5,1.5-2.8,3.7-2.8c1.7,0,3.7,0.8,3.7,3.1h-2.5c0-0.7-0.5-1-1.2-1c-0.6,0-1.1,0.4-1.1,0.8
		c0,0.5,0.4,0.7,0.9,0.8l1.6,0.4c2.3,0.6,2.5,2,2.5,2.8c0,2-2,3-3.9,3C462.6,237.8,460.7,236.6,460.7,234.6z"/>
	<path class="st1" d="M477.6,228.1h2.6v9.4h-2.6v-1.4c-0.6,1-1.8,1.6-3.1,1.6c-2.6,0-4.5-2-4.5-4.9s1.9-4.9,4.6-4.9
		c1.2,0,2.4,0.5,3,1.5L477.6,228.1L477.6,228.1z M477.5,232.9c0-1.4-1.2-2.5-2.5-2.5c-1.4,0-2.4,1.1-2.4,2.5c0,1.3,1,2.5,2.4,2.5
		C476.4,235.3,477.5,234.2,477.5,232.9z"/>
	<path class="st1" d="M482.6,224.9c0-0.9,0.8-1.6,1.7-1.6s1.7,0.7,1.7,1.6c0,0.9-0.8,1.6-1.7,1.6
		C483.3,226.5,482.6,225.8,482.6,224.9z M482.9,237.5v-9.4h2.6v9.4H482.9z"/>
	<path class="st1" d="M487.6,232.8c0-3,2.4-4.9,5.1-4.9c1.7,0,3.1,0.8,4,2l-2,1.4c-0.4-0.6-1.2-1-2-1c-1.5,0-2.5,1.1-2.5,2.5
		c0,1.4,1,2.5,2.5,2.5c0.8,0,1.5-0.4,2-1l2,1.4c-0.9,1.2-2.3,2-4,2C490,237.8,487.6,235.8,487.6,232.8z"/>
</g>
</svg>
