<svg width="25" height="25" viewBox="0 0 25 25" fill="none" xmlns="http://www.w3.org/2000/svg">
<path d="M12.5 13.7207C8.86528 13.7207 5.9082 10.7636 5.9082 7.12891C5.9082 3.49419 8.86528 0.537109 12.5 0.537109C16.1347 0.537109 19.0918 3.49419 19.0918 7.12891C19.0918 10.7636 16.1347 13.7207 12.5 13.7207Z" fill="#F4F4F6"/>
<path d="M19.0918 7.12891C19.0918 3.49419 16.1347 0.537109 12.5 0.537109V13.7207C16.1347 13.7207 19.0918 10.7636 19.0918 7.12891Z" fill="#E2DFF4"/>
<path d="M11.1328 10.791C11.0143 10.791 10.8955 10.7623 10.7872 10.7044C10.5491 10.5769 10.4004 10.3287 10.4004 10.0586V4.19923C10.4004 3.92911 10.5491 3.68092 10.7872 3.55347C11.0254 3.42598 11.3144 3.44 11.5391 3.5898L15.9336 6.51949C16.1374 6.65533 16.2598 6.88404 16.2598 7.12891C16.2598 7.37379 16.1374 7.6025 15.9336 7.73834L11.5391 10.668C11.4166 10.7497 11.2749 10.791 11.1328 10.791Z" fill="#FF7038"/>
<path d="M15.9336 6.51947L12.5 4.23041V10.0274L15.9336 7.73832C16.1374 7.60248 16.2598 7.37377 16.2598 7.1289C16.2598 6.88402 16.1374 6.65531 15.9336 6.51947Z" fill="#FF1F3D"/>
<path d="M22.7539 24.4629H2.24609C1.00762 24.4629 0 23.4553 0 22.2168V14.502C0 13.2635 1.00762 12.2559 2.24609 12.2559H22.7539C23.9924 12.2559 25 13.2635 25 14.502V22.2168C25 23.4553 23.9924 24.4629 22.7539 24.4629Z" fill="#E2DFF4"/>
<path d="M22.7539 12.2559H12.5V24.4629H22.7539C23.9924 24.4629 25 23.4553 25 22.2168V14.502C25 13.2635 23.9924 12.2559 22.7539 12.2559Z" fill="#BEBCDD"/>
<path d="M2.24609 13.7207C1.81533 13.7207 1.46484 14.0712 1.46484 14.502V22.2168C1.46484 22.6476 1.81533 22.998 2.24609 22.998H22.7539C23.1847 22.998 23.5352 22.6476 23.5352 22.2168V14.502C23.5352 14.0712 23.1847 13.7207 22.7539 13.7207H2.24609Z" fill="#FF7038"/>
<path d="M22.7539 13.7207H12.5V22.998H22.7539C23.1847 22.998 23.5352 22.6476 23.5352 22.2168V14.502C23.5352 14.0712 23.1847 13.7207 22.7539 13.7207Z" fill="#FF1F3D"/>
<path d="M7.26743 16.1562C7.2642 15.8211 6.9916 15.5518 6.65722 15.5518C6.65522 15.5518 6.65317 15.5518 6.65121 15.5518C6.31415 15.555 6.0435 15.8309 6.04677 16.168L6.07075 18.6469L4.12099 15.8235C3.96918 15.6037 3.69208 15.5081 3.4371 15.5876C3.18207 15.6671 3.00839 15.9032 3.00839 16.1703V20.5566C3.00839 20.8937 3.28168 21.167 3.61874 21.167C3.95585 21.167 4.2291 20.8937 4.2291 20.5566V18.1283L6.08251 20.8121C6.25947 21.0677 6.55551 21.1761 6.83686 21.0882C7.12343 20.9987 7.30854 20.7319 7.30854 20.4086C7.30854 20.4066 7.30854 20.4046 7.30854 20.4027L7.26743 16.1562Z" fill="#F4F4F6"/>
<path d="M10.7052 16.7725C11.0423 16.7725 11.3156 16.4992 11.3156 16.1621C11.3156 15.825 11.0423 15.5518 10.7052 15.5518H8.85358C8.51647 15.5518 8.24323 15.825 8.24323 16.1621V20.5566C8.24323 20.8937 8.51647 21.167 8.85358 21.167H10.7052C11.0423 21.167 11.3156 20.8937 11.3156 20.5566C11.3156 20.2196 11.0423 19.9463 10.7052 19.9463H9.46393V18.9697H10.5687C10.9058 18.9697 11.1791 18.6965 11.1791 18.3594C11.1791 18.0223 10.9058 17.749 10.5687 17.749H9.46393V16.7725H10.7052Z" fill="#F4F4F6"/>
<path d="M20.9447 17.8214C20.4154 17.6262 19.922 17.4138 19.7596 17.3428C19.6703 17.2661 19.6735 17.1619 19.6799 17.1179C19.6893 17.0519 19.7382 16.8904 19.9866 16.8156C20.5791 16.637 21.1347 17.0799 21.1402 17.0844L21.1363 17.0811L21.1368 17.0805C21.2431 17.1701 21.3802 17.2243 21.53 17.2243C21.8671 17.2243 22.1403 16.951 22.1403 16.6139C22.1403 16.4183 22.048 16.2447 21.905 16.133C21.7637 16.0201 20.7966 15.2966 19.6345 15.6468C19.0048 15.8365 18.5593 16.3337 18.4716 16.9444C18.3892 17.519 18.6382 18.0717 19.1217 18.3869C19.1487 18.4045 19.1769 18.4199 19.2063 18.433C19.2318 18.4444 19.8388 18.7146 20.5222 18.9666C20.6613 19.018 21.1111 19.2078 21.0595 19.4969C21.02 19.7178 20.7446 19.9463 20.3519 19.9463C19.932 19.9463 19.5287 19.7777 19.2727 19.4954C19.0464 19.2456 18.6604 19.2266 18.4106 19.453C18.1608 19.6793 18.1418 20.0653 18.3682 20.3151C18.8588 20.8565 19.5818 21.167 20.3519 21.167C21.3076 21.167 22.1106 20.5549 22.2612 19.7115C22.3749 19.0744 22.0888 18.2434 20.9447 17.8214V17.8214Z" fill="#E2DFF4"/>
<path d="M17.3971 15.5716C17.0665 15.5059 16.7451 15.7204 16.6793 16.0511L16.2172 18.373L15.4807 15.9825C15.3815 15.6603 15.04 15.4795 14.7177 15.5788C14.5006 15.6457 14.3482 15.8228 14.302 16.0296L13.5765 18.3735L13.1157 16.0437C13.0502 15.713 12.7292 15.4979 12.3985 15.5634C12.0678 15.6288 11.8528 15.9499 11.9182 16.2806L12.7744 20.6091C12.7802 20.6383 12.7881 20.6669 12.798 20.6949C12.8985 20.9778 13.1667 21.167 13.4666 21.167H13.4714C13.7732 21.1649 14.0412 20.9717 14.1384 20.6859C14.1402 20.6806 14.1419 20.6752 14.1436 20.6699L14.8972 18.2349L15.6476 20.6703C15.6502 20.6786 15.6528 20.6868 15.6557 20.6949C15.7562 20.9778 16.0245 21.167 16.3243 21.167H16.3291C16.6309 21.1649 16.8989 20.9717 16.9961 20.6859C17.0047 20.6606 17.0116 20.6347 17.0169 20.6085L17.8765 16.2893C17.9424 15.9587 17.7277 15.6373 17.3971 15.5716V15.5716Z" fill="#F4F4F6"/>
<path d="M17.3971 15.5716C17.0665 15.5059 16.7451 15.7204 16.6793 16.0511L16.2172 18.373L15.4808 15.9825C15.3815 15.6603 15.04 15.4795 14.7177 15.5788C14.5006 15.6457 14.3482 15.8228 14.302 16.0296L13.5765 18.3735L13.1157 16.0437C13.057 15.7471 12.7925 15.5441 12.5 15.5526V19.2218L12.7744 20.6091C12.7801 20.6383 12.788 20.6669 12.798 20.6949C12.8984 20.9778 13.1667 21.167 13.4666 21.167H13.4713C13.7731 21.1649 14.0412 20.9717 14.1383 20.6859C14.1401 20.6806 14.1419 20.6752 14.1436 20.6699L14.8972 18.2349L15.6476 20.6703C15.6501 20.6786 15.6528 20.6868 15.6557 20.6949C15.7562 20.9778 16.0245 21.167 16.3243 21.167H16.3291C16.6309 21.1649 16.8989 20.9717 16.996 20.6859C17.0047 20.6606 17.0116 20.6347 17.0168 20.6085L17.8765 16.2893C17.9424 15.9587 17.7277 15.6373 17.3971 15.5716V15.5716Z" fill="#E2DFF4"/>
</svg>
