<svg id="Layer_1" data-name="Layer 1" xmlns="http://www.w3.org/2000/svg" width="24" height="24" viewBox="0 0 24 24">
  <defs>
    <style>
      .cls-1 {
        fill: #fff;
      }
    </style>
  </defs>
  <title>ff-close</title>
  <g>
    <path class="cls-1" d="M22.66,23.52a.67.67,0,0,1-.49-.21L1.09,2.23a.71.71,0,0,1,0-1,.69.69,0,0,1,1,0L23.16,22.32a.69.69,0,0,1,0,1,.7.7,0,0,1-.5.21"/>
    <path class="cls-1" d="M1.59,23.52a.71.71,0,0,1-.5-1.2L22.17,1.24a.7.7,0,0,1,1,1L2.08,23.31a.67.67,0,0,1-.49.21"/>
  </g>
</svg>
