<?xml version="1.0" encoding="utf-8"?>
<!-- Generator: Adobe Illustrator 24.3.0, SVG Export Plug-In . SVG Version: 6.00 Build 0)  -->
<svg version="1.1" id="Layer_1" xmlns="http://www.w3.org/2000/svg" xmlns:xlink="http://www.w3.org/1999/xlink" x="0px" y="0px"
	 viewBox="0 0 1376.4 216.3" style="enable-background:new 0 0 1376.4 216.3;" xml:space="preserve">
<style type="text/css">
	.st0{fill:#313638;}
	.st1{fill:#43A5BA;}
</style>
<g>
	<path class="st0" d="M245,62.9v31.4h34.3v12H245V148h-12.8V51.1h55.9v11.8C288.1,62.9,245,62.9,245,62.9z"/>
	<path class="st0" d="M300.5,58.1c0-4.6,3.9-8.2,8.5-8.2c4.7,0,8.6,3.4,8.6,8.2s-3.9,8.2-8.6,8.2C304.4,66.2,300.5,62.8,300.5,58.1z
		 M303,82.4h12.2v65.7H303V82.4z"/>
	<path class="st0" d="M393.3,110.1v38h-12.2v-37.4c0-10.9-6.7-17.7-15.7-17.7s-19.9,5.2-19.9,19.5v35.6h-12.2V82.4h12.2v10
		c3.9-8.1,14.4-11.5,21.5-11.5C383.3,80.9,393.5,91.7,393.3,110.1z"/>
	<path class="st0" d="M408.3,128.5h11.3c0.1,5.7,5,10.3,12.9,10.3c8.2,0,13-3.7,13-9.1c0-4.9-3.7-7.5-8.9-8.5l-8.9-2.1
		c-10.8-3-17.2-8.2-17.2-18.9c0-10.8,9.2-19.2,22.2-19.2c11,0,22.4,5.8,22.4,19.2h-11.7c-0.1-5.1-5.3-8.4-10.4-8.4
		c-6.2,0-10.4,3.7-10.4,8.8c0,4.5,4.2,6.9,8.3,7.9l9.6,2.4c13.5,3.4,17.1,11.5,17.1,19c0,12.3-11.7,19.8-25.2,19.8
		C420.9,149.5,408.9,142,408.3,128.5z"/>
	<path class="st0" d="M538.1,120.4h-52.9c1.8,11.7,10.2,17.5,21.4,17.5c8,0,15.3-3.4,19-10l10.5,4.2c-5.8,11.4-17.4,17.4-30,17.4
		c-18.5,0-33.5-13.6-33.5-34.4s15-34.1,33.5-34.1s32.3,13.2,32.3,34C538.4,116.8,538.2,118.6,538.1,120.4z M526.2,109.9
		c-1.5-11.2-9.5-17.5-20.2-17.5c-11,0-18.8,5.7-20.8,17.5H526.2z"/>
	<path class="st0" d="M657.3,110.1v38h-12.2v-37.4c0-10.9-5.9-18-15.4-18c-11.6-0.1-18.5,9.7-17.4,22.3l-0.1-0.6V148H600v-37.3
		c0-11.1-5.9-18-14.7-18c-9.2,0-18.4,5.8-18.4,19.8v35.6h-12.2V82.4H567v10c3.4-7,11.7-11.4,20.9-11.4c9.5,0,17.7,4.9,21.5,13.6
		C615.2,83,625.6,81,632.1,81C648.4,80.9,657.3,91.7,657.3,110.1z"/>
	<path class="st0" d="M742.6,115.2c0,20.7-14.8,34.3-32.6,34.3c-9.3,0-18.8-4.2-23.1-11.8v10.5h-12.2V46.5h12.2v46.1
		c4.3-7.8,13.5-11.7,23.3-11.7C727.9,80.9,742.6,94.2,742.6,115.2z M730.3,115c0-13.2-9.5-22.5-21.5-22.5
		c-10.5,0-22.1,8.2-22.1,22.5c0,14.1,10.4,22.9,22.1,22.9C721,137.9,730.3,128.1,730.3,115z"/>
	<path class="st0" d="M756.6,46.5h12.2v101.7h-12.2V46.5z"/>
	<path class="st0" d="M848.1,120.4h-52.9c1.8,11.7,10.2,17.5,21.4,17.5c8,0,15.3-3.4,19-10l10.5,4.2c-5.8,11.4-17.4,17.4-30,17.4
		c-18.5,0-33.5-13.6-33.5-34.4s15-34.1,33.5-34.1s32.3,13.2,32.3,34C848.4,116.8,848.2,118.6,848.1,120.4z M836.2,109.9
		c-1.5-11.2-9.5-17.5-20.2-17.5c-11,0-18.8,5.7-20.8,17.5H836.2z"/>
	<path class="st1" d="M93.1,198.3c-0.4,0-1-0.1-1.5-0.3l-89-34.4C1,163,0,161.3,0,159.7v-52c0,0,0,0,0-0.1c0-0.6,0.1-1,0.3-1.6
		c0,0,0,0,0-0.2c0.4-0.9,1.2-1.6,2.2-2.1h0.1l11.7-4.5L2.7,94.7C1,94.1,0,92.4,0,90.8v-52c0-0.4,0-0.9,0.1-1.3
		c0-0.1,0.1-0.3,0.1-0.6c0.3-0.7,0.9-1.5,1.6-1.8c0.1-0.1,0.4-0.3,0.7-0.3l89-34.4c1-0.4,2.1-0.4,3,0l89,34.4
		c1.6,0.6,2.7,2.2,2.7,3.9c0,1.6-1,3.3-2.7,3.9l-78.8,30.5l78.8,30.5c1.6,0.6,2.7,2.2,2.7,3.9c0,1.6-1,3.3-2.7,3.9l-86.3,33.4v49
		c0,1.3-0.7,2.7-1.8,3.4C94.8,198,94,198.3,93.1,198.3z M8.3,156.7l80.5,31.1V145L8.3,113.8V156.7z M15.9,107.7l77.3,29.9l77.3-29.9
		L97.3,79.4v45.7c0,1.3-0.7,2.7-1.8,3.4c-1.2,0.7-2.7,0.9-3.9,0.4L26,103.6L15.9,107.7z M27.6,95.1L89,118.9V76.1L8.3,45v42.8
		L27.6,95.1z M15.9,38.7l77.3,29.9l77.3-29.9l-77.4-30L15.9,38.7z"/>
</g>
<g>
	<path class="st0" d="M695.4,197.4c0,5.9-4.4,9.7-9.1,9.7c-2.1,0-4.6-0.9-5.9-2.8v2.3h-5.1v-28.5h5.1v12.3c1.3-1.9,3.9-2.7,5.9-2.7
		C691.1,187.7,695.4,191.5,695.4,197.4z M690.1,197.4c0-2.8-2.2-4.8-4.7-4.8c-2.4,0-4.7,2-4.7,4.8c0,2.8,2.3,4.9,4.7,4.9
		C687.9,202.3,690.1,200.2,690.1,197.4z"/>
	<path class="st0" d="M710.9,188.2h5.5L705,215.7h-5.4l4.4-10.8l-7.3-16.7h5.7l4.4,10.7L710.9,188.2z"/>
	<path class="st0" d="M727.3,193c0-7.7,6.1-14,13.9-14c4.6,0,8.7,2.2,11.1,5.6l-4.2,3.1c-1.6-2.2-3.9-3.6-6.7-3.6
		c-4.9,0-8.5,4.1-8.5,8.9c0,4.8,3.6,8.9,8.5,8.9c3,0,5.2-1.4,6.7-3.6l4.2,3.1c-2.5,3.5-6.5,5.6-11.1,5.6
		C733.4,207.2,727.3,200.8,727.3,193z"/>
	<path class="st0" d="M754.5,197.5c0-5.8,4.6-9.7,9.9-9.7c5.2,0,9.9,3.9,9.9,9.7c0,5.8-4.6,9.7-9.9,9.7
		C759.3,207.2,754.5,203.3,754.5,197.5z M769.2,197.5c0-2.9-2.1-4.9-4.6-4.9c-2.6,0-4.6,2-4.6,4.9c0,2.9,2.1,4.8,4.6,4.8
		S769.2,200.4,769.2,197.5z"/>
	<path class="st0" d="M777.4,200.9h4.8c0,1.1,0.9,2.2,2.8,2.2c1.5,0,2.7-0.8,2.7-1.8c0-0.8-0.6-1.2-2-1.6l-2.5-0.6
		c-4.7-1.3-5.3-4-5.3-5.8c0-2.9,3-5.5,7.2-5.5c3.4,0,7.3,1.6,7.3,6h-4.9c0-1.3-1-2-2.3-2c-1.2,0-2.2,0.7-2.2,1.6s0.8,1.3,1.8,1.6
		l3.1,0.8c4.5,1.2,4.9,4,4.9,5.4c0,3.9-4,5.9-7.7,5.9C781.1,207.2,777.4,204.9,777.4,200.9z"/>
	<path class="st0" d="M810.8,188.2h5.1v18.5h-5.1V204c-1.2,1.9-3.6,3.2-6.1,3.2c-5.1,0-8.9-4-8.9-9.7s3.8-9.7,9-9.7
		c2.4,0,4.7,1,5.9,3L810.8,188.2L810.8,188.2z M810.6,197.5c0-2.8-2.3-4.9-4.8-4.9c-2.7,0-4.7,2.2-4.7,4.9c0,2.6,2,4.8,4.7,4.8
		C808.4,202.3,810.6,200.2,810.6,197.5z"/>
	<path class="st0" d="M820.5,181.9c0-1.8,1.5-3.1,3.3-3.1s3.3,1.4,3.3,3.1c0,1.8-1.5,3.2-3.3,3.2C822,184.9,820.5,183.5,820.5,181.9
		z M821.2,206.7v-18.5h5.1v18.5H821.2z"/>
	<path class="st0" d="M830.4,197.4c0-5.8,4.7-9.7,10.1-9.7c3.4,0,6,1.6,7.8,4l-4,2.8c-0.8-1.2-2.4-1.9-3.9-1.9c-3,0-4.9,2.2-4.9,4.8
		c0,2.8,2,4.9,4.9,4.9c1.5,0,3-0.7,3.9-1.9l4,2.8c-1.8,2.4-4.5,4-7.8,4C835.1,207.2,830.4,203.2,830.4,197.4z"/>
</g>
</svg>
