<?xml version="1.0" encoding="UTF-8"?>
<svg width="20px" height="25px" viewBox="0 0 20 25" version="1.1" xmlns="http://www.w3.org/2000/svg" xmlns:xlink="http://www.w3.org/1999/xlink">
    <title>icons/lock</title>
    <g id="icons/lock" stroke="none" stroke-width="1" fill="none" fill-rule="evenodd">
        <path d="M18.2614221,10 C19.2347466,10 20.022676,10.8031496 19.9995016,11.7952756 L19.9995016,11.7952756 L19.9995016,23.2047244 C19.9995016,24.1968504 19.2115722,25 18.2382477,25 L18.2382477,25 L1.7612539,25 C0.787929378,25 -2.30926389e-13,24.1968504 -2.30926389e-13,23.2047244 L-2.30926389e-13,23.2047244 L-2.30926389e-13,11.7952756 C-2.30926389e-13,10.8031496 0.787929378,10 1.7612539,10 L1.7612539,10 Z M10.011338,13.6141732 C9.08436224,13.6141732 8.31960726,14.3937008 8.29643286,15.3622047 C8.29643286,15.8582677 8.48182801,16.3070866 8.85261831,16.6377953 C9.01483906,16.7795276 9.13071103,17.0393701 9.13071103,17.2755906 L9.13071103,17.2755906 L9.13071103,20.511811 C9.13071103,21.007874 9.52467572,21.3858268 9.98816359,21.3858268 C10.4748258,21.3858268 10.8456161,20.984252 10.8456161,20.511811 L10.8456161,20.511811 L10.8456161,17.2519685 C10.8456161,17.015748 10.9614881,16.7795276 11.1468833,16.6141732 C11.4944992,16.2834646 11.7030687,15.8346457 11.7030687,15.3385827 C11.7030687,14.3937008 10.9383137,13.6141732 10.011338,13.6141732 Z" id="Combined-Shape" fill="#D8D8D8" fill-rule="nonzero"></path>
        <path d="M10,0 C6.15,0 3,3.62416107 3,8.05369128 L3,12 L5.14666667,12 L5.14666667,8.05369128 C5.14666667,4.96644295 7.31666667,2.46979866 10,2.46979866 C12.6833333,2.46979866 14.8533333,4.96644295 14.8533333,8.05369128 L14.8533333,12 L17,12 L17,8.05369128 C17,3.62416107 13.85,0 10,0 Z" id="Path" fill="#D8D8D8" fill-rule="nonzero"></path>
    </g>
</svg>