<?xml version="1.0" encoding="utf-8"?>
<!-- Generator: Adobe Illustrator 20.0.0, SVG Export Plug-In . SVG Version: 6.00 Build 0)  -->
<svg version="1.1" id="Layer_1" xmlns="http://www.w3.org/2000/svg" xmlns:xlink="http://www.w3.org/1999/xlink" x="0px" y="0px"
	 viewBox="0 0 100 89.2" style="enable-background:new 0 0 100 89.2;" xml:space="preserve">
<style type="text/css">
	.st0{fill:#00A846;}
	.st1{fill:#B42846;}
	.st2{fill:url(#SVGID_1_);}
	.st3{fill:#2077B6;}
	.st4{fill:url(#SVGID_2_);}
	.st5{fill:#999999;}
</style>
<linearGradient id="SVGID_1_" gradientUnits="userSpaceOnUse" x1="50.8573" y1="88.6063" x2="50.8573" y2="6.7482">
	<stop  offset="0" style="stop-color:#999999;stop-opacity:0"/>
	<stop  offset="1" style="stop-color:#999999"/>
</linearGradient>
<path class="st2" d="M99.7,25.7L85.3,62.8c0,0-5.9-25.6-5.9-27.8s-5.2,9.4-5.2,9.4l-8-37.6L50.2,47.9l-5.7-16.8L33.2,54.5l-5.8-12
	L2,88.6h97.8L99.7,25.7z"/>
<path class="st5" d="M2.4,89.2c-0.4,0-0.7-0.1-1-0.3c-1-0.6-1.4-1.9-0.8-2.9l26.8-48.6l5.5,11.4l11.4-23.5l5.3,15.7l16-41.2
	l8.1,38.1l5.1-9.1l5.5,25.7l11.5-29.5c0.4-1.1,1.7-1.7,2.8-1.2c1.1,0.4,1.6,1.7,1.2,2.8L83,69.3l-6.1-28.6l-5.1,9.1l-7.4-35.2
	l-15,38.8l-5.8-17L32.9,58.6l-5.8-11.9L4.3,88.1C3.9,88.8,3.1,89.2,2.4,89.2z"/>
</svg>
