<svg id="Layer_1" data-name="Layer 1" xmlns="http://www.w3.org/2000/svg" width="25.9" height="18.9" viewBox="0 0 25.9 18.9">
  <defs>
    <style>
      .cls-1 {
        fill: #010101;
      }
    </style>
  </defs>
  <title>ciq-hamburger</title>
  <path class="cls-1" d="M40.2,13.72H16.9a1.3,1.3,0,0,1,0-2.6H40.2a1.3,1.3,0,0,1,0,2.6Z" transform="translate(-15.6 -11.13)"/>
  <path class="cls-1" d="M40.2,21.88H16.9a1.3,1.3,0,0,1,0-2.6H40.2a1.3,1.3,0,0,1,0,2.6Z" transform="translate(-15.6 -11.13)"/>
  <path class="cls-1" d="M40.2,30H16.9a1.3,1.3,0,1,1,0-2.6H40.2a1.3,1.3,0,0,1,0,2.6Z" transform="translate(-15.6 -11.13)"/>
</svg>
