<?xml version="1.0" encoding="utf-8"?>
<!-- Generator: Adobe Illustrator 20.1.0, SVG Export Plug-In . SVG Version: 6.00 Build 0)  -->
<svg version="1.1" id="Layer_1" xmlns="http://www.w3.org/2000/svg" xmlns:xlink="http://www.w3.org/1999/xlink" x="0px" y="0px"
	 viewBox="0 0 34 52.2" style="enable-background:new 0 0 34 52.2;" xml:space="preserve">
<style type="text/css">
	.st0{fill:none;}
	.st1{fill:#4495D1;}
	.st2{fill:#999999;}
</style>
<path class="st2" d="M2.3,22.7h0.3h28.6h0h0.3c2,0,3.1-2.3,1.8-3.8l-14.7-18c-0.9-1.1-2.7-1.1-3.6,0l-14.7,18
	C-0.7,20.4,0.4,22.7,2.3,22.7L2.3,22.7z"/>
<path class="st2" d="M31.7,29.5h-0.3H2.7h0H2.3c-2,0-3.1,2.3-1.8,3.8l14.7,18c0.9,1.1,2.7,1.1,3.6,0l14.7-18
	C34.7,31.8,33.6,29.5,31.7,29.5L31.7,29.5z"/>
</svg>
