<?xml version="1.0" encoding="utf-8"?>
<!-- Generator: Adobe Illustrator 25.2.1, SVG Export Plug-In . SVG Version: 6.00 Build 0)  -->
<svg version="1.1" id="Layer_1" xmlns="http://www.w3.org/2000/svg" xmlns:xlink="http://www.w3.org/1999/xlink" x="0px" y="0px"
	 viewBox="0 0 63 63" style="enable-background:new 0 0 63 63;" xml:space="preserve">
<g>
	<path fill="#ccc" d="M33.1,46.8c1.5-2.1,14.6-20.6,14.6-28.9c-0.4-9-8.1-15.9-17-15.4c-8.3,0.4-15,7.1-15.4,15.4c0,8.3,13.1,26.8,14.6,28.9
		c0.4,0.5,1,0.8,1.6,0.8C32.1,47.6,32.7,47.3,33.1,46.8z M43.7,17.9c0,5.2-7.7,17.6-12.3,24.2c-4.5-6.6-12.2-19-12.2-24.2
		C19.7,11.2,25.4,6,32.2,6.4C38.4,6.8,43.4,11.7,43.7,17.9z M37.7,23.4c3.4-3.5,3.4-9,0-12.5l0,0c-3.5-3.4-9-3.4-12.5,0
		c-1.7,1.7-2.6,3.9-2.6,6.2c0,4.8,3.9,8.8,8.7,8.8c0,0,0.1,0,0.1,0C33.8,26,36.1,25.1,37.7,23.4L37.7,23.4z M34.9,13.8
		c1.9,1.9,1.9,4.9,0,6.8c-1.9,1.8-4.9,1.8-6.8,0c-1.9-1.9-1.9-4.9,0-6.8c0.9-0.9,2.1-1.4,3.4-1.4C32.8,12.4,34,12.9,34.9,13.8
		L34.9,13.8z M44.6,54.6c0-4-6.5-5.8-13.1-5.8s-13.1,1.8-13.1,5.8s6.6,5.8,13.1,5.8S44.6,58.5,44.6,54.6L44.6,54.6z M31.5,52.7
		c3.1-0.2,6.2,0.4,8.9,1.8c-2.8,1.4-5.9,2-8.9,1.8c-3.1,0.2-6.1-0.4-8.9-1.8C25.3,53.1,28.4,52.5,31.5,52.7L31.5,52.7z"/>
</g>
</svg>
