<svg width="20" height="25" viewBox="0 0 20 25" fill="none" xmlns="http://www.w3.org/2000/svg">
<g clip-path="url(#clip0)">
<path d="M5.41667 9.99999C5.41667 10.9065 5.68547 11.7926 6.1891 12.5464C6.69272 13.3001 7.40854 13.8875 8.24603 14.2344C9.08353 14.5813 10.0051 14.6721 10.8942 14.4953C11.7832 14.3184 12.5999 13.8819 13.2409 13.2409C13.8819 12.5999 14.3184 11.7832 14.4953 10.8942C14.6721 10.0051 14.5813 9.08352 14.2344 8.24602C13.8875 7.40853 13.3001 6.69271 12.5464 6.18909C11.7926 5.68546 10.9065 5.41666 10 5.41666C8.78486 5.41809 7.61991 5.90144 6.76068 6.76067C5.90145 7.6199 5.4181 8.78485 5.41667 9.99999V9.99999ZM13.75 9.99999C13.75 10.7417 13.5301 11.4667 13.118 12.0834C12.706 12.7001 12.1203 13.1807 11.4351 13.4645C10.7498 13.7484 9.99584 13.8226 9.26841 13.6779C8.54098 13.5332 7.8728 13.1761 7.34835 12.6516C6.8239 12.1272 6.46675 11.459 6.32205 10.7316C6.17736 10.0041 6.25162 9.25015 6.53545 8.56493C6.81928 7.8797 7.29993 7.29403 7.91661 6.88198C8.53329 6.46992 9.25832 6.24999 10 6.24999C10.9942 6.25109 11.9474 6.64653 12.6504 7.34956C13.3535 8.05258 13.7489 9.00577 13.75 9.99999V9.99999Z" fill="#FCDC32"/>
<path d="M9.58333 7.08331V7.91665H9.16667C8.94565 7.91665 8.73369 8.00444 8.57741 8.16072C8.42113 8.317 8.33333 8.52897 8.33333 8.74998V9.58331C8.33333 9.80433 8.42113 10.0163 8.57741 10.1726C8.73369 10.3288 8.94565 10.4166 9.16667 10.4166H10.8333V11.25H9.16667V10.8333H8.33333V11.25C8.33333 11.471 8.42113 11.683 8.57741 11.8392C8.73369 11.9955 8.94565 12.0833 9.16667 12.0833H9.58333V12.9166H10.4167V12.0833H10.8333C11.0543 12.0833 11.2663 11.9955 11.4226 11.8392C11.5789 11.683 11.6667 11.471 11.6667 11.25V10.4166C11.6667 10.1956 11.5789 9.98367 11.4226 9.82739C11.2663 9.67111 11.0543 9.58331 10.8333 9.58331H9.16667V8.74998H10.8333V9.16665H11.6667V8.74998C11.6667 8.52897 11.5789 8.317 11.4226 8.16072C11.2663 8.00444 11.0543 7.91665 10.8333 7.91665H10.4167V7.08331H9.58333Z" fill="#FCDC32"/>
<path d="M12.9167 9.58331H12.0833V10.4166H12.9167V9.58331Z" fill="#FCDC32"/>
<path d="M7.91667 9.58331H7.08333V10.4166H7.91667V9.58331Z" fill="#FCDC32"/>
<path d="M3.33333 5.83332C3.33399 5.28099 3.5537 4.75147 3.94426 4.36091C4.33482 3.97036 4.86434 3.75065 5.41667 3.74999H14.5833C15.1357 3.75065 15.6652 3.97036 16.0557 4.36091C16.4463 4.75147 16.666 5.28099 16.6667 5.83332V6.07749L15.6104 5.02082L15.0212 5.60999L16.7887 7.37791C16.8669 7.45602 16.9728 7.4999 17.0833 7.4999C17.1938 7.4999 17.2998 7.45602 17.3779 7.37791L19.1454 5.60999L18.5562 5.02082L17.5 6.07749V5.83332C17.4991 5.06005 17.1915 4.31869 16.6448 3.7719C16.098 3.22511 15.3566 2.91754 14.5833 2.91666H5.41667C4.64339 2.91754 3.90204 3.22511 3.35525 3.7719C2.80846 4.31869 2.50088 5.06005 2.5 5.83332V6.66666H3.33333V5.83332Z" fill="#FCDC32"/>
<path d="M16.6667 14.1667C16.666 14.719 16.4463 15.2485 16.0557 15.6391C15.6652 16.0296 15.1357 16.2493 14.5833 16.25H5.41667C4.86433 16.2493 4.33482 16.0296 3.94426 15.6391C3.5537 15.2485 3.33399 14.719 3.33333 14.1667V13.9225L4.38958 14.9792L4.97875 14.39L3.21125 12.6221C3.13164 12.5468 3.02623 12.5049 2.91667 12.5049C2.8071 12.5049 2.70169 12.5468 2.62208 12.6221L0.854583 14.39L1.44375 14.9792L2.5 13.9225V14.1667C2.50088 14.9399 2.80846 15.6813 3.35525 16.2281C3.90204 16.7749 4.64339 17.0824 5.41667 17.0833H14.5833C15.3566 17.0824 16.098 16.7749 16.6448 16.2281C17.1915 15.6813 17.4991 14.9399 17.5 14.1667V13.3333H16.6667V14.1667Z" fill="#FCDC32"/>
</g>
<defs>
<clipPath id="clip0">
<rect width="20" height="25" fill="white"/>
</clipPath>
</defs>
</svg>
