<?xml version="1.0" encoding="utf-8"?>
<!-- Generator: Adobe Illustrator 19.1.0, SVG Export Plug-In . SVG Version: 6.00 Build 0)  -->
<svg version="1.1" id="Layer_1" focusable="false" xmlns="http://www.w3.org/2000/svg" xmlns:xlink="http://www.w3.org/1999/xlink"
	 x="0px" y="0px" viewBox="-118 -131 512 512" style="enable-background:new -118 -131 512 512;" xml:space="preserve">
<style type="text/css">
	.st0{fill:#FFFFFF;}
</style>
<path class="st0" d="M45.6,25.9c24.9-23.3,57.1-36.1,91.3-36.5c37.3-0.4,71.5,14.6,96.5,39.2l0.4,0.4
	c27.4,27.4,44.4,65.3,44.4,107.2c0,83.7-67.9,151.6-151.6,151.6c-42.1,0-80.1-17.1-107.6-44.7l0.9,0.8c-6.3-6.3-16.5-6.3-22.8,0
	c-6.3,6.3-6.3,16.5,0,22.8l-0.4-0.4C32.8,302.6,82.8,325,138,325c110.4,0,200-89.6,200-200c0-55.2-22.4-105.2-58.6-141.4l-0.1,0.1
	C243-52.6,192.9-75.1,137.6-75C84.2-74.9,35.7-53.9-0.1-19.6h-0.2L-29-48.4c-12.2-12.2-33-3.6-33,13.7V73.4
	c0,10.7,8.6,19.4,19.4,19.4H65.5c17.2,0,25.9-20.9,13.7-33L45.4,26L45.6,25.9L45.6,25.9z"/>
</svg>
