<?xml version="1.0" encoding="UTF-8"?>
<svg width="27px" height="27px" viewBox="0 0 27 27" version="1.1" xmlns="http://www.w3.org/2000/svg" xmlns:xlink="http://www.w3.org/1999/xlink">
    <!-- Generator: Sketch 62 (91390) - https://sketch.com -->
    <title>ew-circle-white</title>
    <desc>Created with Sketch.</desc>
    <g id="ew-circle-white" stroke="none" stroke-width="1" fill="none" fill-rule="evenodd">
        <rect id="Rectangle" x="0" y="0" width="27" height="27"></rect>
        <path d="M13.5,6.5 C9.63400675,6.5 6.5,9.63400675 6.5,13.5 C6.5,17.3659932 9.63400675,20.5 13.5,20.5 C17.3659932,20.5 20.5,17.3659932 20.5,13.5 C20.5,9.63400675 17.3659932,6.5 13.5,6.5 Z M13.5,7.5 C16.8137085,7.5 19.5,10.1862915 19.5,13.5 C19.5,16.8137085 16.8137085,19.5 13.5,19.5 C10.1862915,19.5 7.5,16.8137085 7.5,13.5 C7.5,10.1862915 10.1862915,7.5 13.5,7.5 Z" id="Oval-Copy" fill="#FFFFFF" fill-rule="nonzero"></path>
        <polygon id="Path-Copy-2" fill="#FFFFFF" fill-rule="nonzero" points="14.4169922 17 14.4169922 9.890625 12 10.1542969 12 10.8476562 13.4550781 10.828125 13.4550781 17"></polygon>
    </g>
</svg>