<?xml version="1.0" encoding="utf-8"?>
<!-- Generator: Adobe Illustrator 19.2.1, SVG Export Plug-In . SVG Version: 6.00 Build 0)  -->
<svg version="1.1" id="Layer_1" xmlns="http://www.w3.org/2000/svg" xmlns:xlink="http://www.w3.org/1999/xlink" x="0px" y="0px"
	 width="32px" height="32px" viewBox="0 0 32 32" style="enable-background:new 0 0 32 32;" xml:space="preserve">
<style type="text/css">
	.st0{opacity:0.5;}
	.st1{fill:#FFFFFF;}
</style>
<g class="st0">
	<rect x="14" y="4.7" width="2" height="2"/>
	<rect x="10" y="8.7" width="2" height="2"/>
	<rect x="14" y="8.7" width="2" height="2"/>
	<rect x="18" y="8.7" width="2" height="2"/>
	<rect x="10" y="12.7" width="2" height="2"/>
	<rect x="14" y="12.7" width="2" height="2"/>
	<rect x="18" y="12.7" width="2" height="2"/>
	<rect x="10" y="16.7" width="2" height="2"/>
	<rect x="14" y="16.7" width="2" height="2"/>
	<rect x="18" y="16.7" width="2" height="2"/>
	<rect x="10" y="20.7" width="2" height="2"/>
	<rect x="14" y="20.7" width="2" height="2"/>
	<rect x="18" y="20.7" width="2" height="2"/>
	<rect x="14" y="24.7" width="2" height="2"/>
</g>
<g class="st0">
	<rect x="16" y="6.7" class="st1" width="2" height="2"/>
	<rect x="12" y="10.7" class="st1" width="2" height="2"/>
	<rect x="16" y="10.7" class="st1" width="2" height="2"/>
	<rect x="20" y="10.7" class="st1" width="2" height="2"/>
	<rect x="12" y="14.7" class="st1" width="2" height="2"/>
	<rect x="16" y="14.7" class="st1" width="2" height="2"/>
	<rect x="20" y="14.7" class="st1" width="2" height="2"/>
	<rect x="12" y="18.7" class="st1" width="2" height="2"/>
	<rect x="16" y="18.7" class="st1" width="2" height="2"/>
	<rect x="20" y="18.7" class="st1" width="2" height="2"/>
	<rect x="12" y="22.7" class="st1" width="2" height="2"/>
	<rect x="16" y="22.7" class="st1" width="2" height="2"/>
	<rect x="20" y="22.7" class="st1" width="2" height="2"/>
	<rect x="16" y="26.7" class="st1" width="2" height="2"/>
</g>
</svg>
