<?xml version="1.0" encoding="utf-8"?>
<!-- Generator: Adobe Illustrator 19.1.0, SVG Export Plug-In . SVG Version: 6.00 Build 0)  -->
<svg version="1.1" xmlns="http://www.w3.org/2000/svg" xmlns:xlink="http://www.w3.org/1999/xlink" x="0px" y="0px"
	 viewBox="204 -534 96 1344" style="enable-background:new 204 -534 96 1344;" xml:space="preserve">
<style type="text/css">
	.st0{display:none;}
	.st1{display:inline;fill:#828282;}
	.st2{fill:#FFFFFF;}
	.st3{fill:#398DFF;}
</style>
<g id="Layer_2" class="st0">
	<rect x="204" y="-546.5" class="st1" width="1160.1" height="1344"/>
</g>
<g id="Layer_3">
</g>
<g id="Icons">
	<title>Artboard</title>
	<desc>Created with Sketch.</desc>
	<g id="Text_Annotation" transform="translate(17.000000, 16.000000)">
		<path id="Combined-Shape" d="M208-538.1h-3.9v10.8h-2.5v-10.8h-3.9v-2H208V-538.1z M188-519v-30h30v30H188z M191-522h24v-24h-24
			V-522z"/>
	</g>
	<g id="Average_Line" transform="translate(72.000000, 17.000000)">
		<path id="Combined-Shape_1_" d="M134.5-504.9h24.3h2.7v-9.1h1.5v9.1v3.5v9.4h-1.5v-9.4h-27v9.4H133v-9.4v-3.5v-9.1h1.5V-504.9z"/>
	</g>
	<g id="Callout" transform="translate(127.000000, 16.000000)">
		<path id="Fill-1" d="M102-485.1H84c-3.3,0-6,2.7-6,6v9.8c0,3.3,2.7,6,6,6v8.2l9-8.2h9c3.3,0,6-2.7,6-6v-9.8
			C108-482.4,105.3-485.1,102-485.1 M102-482.1c1.7,0,3,1.3,3,3v9.8c0,1.7-1.3,3-3,3h-9h-1.2l-0.9,0.8l-4,3.6v-1.4v-3h-3
			c-1.7,0-3-1.3-3-3v-9.8c0-1.7,1.3-3,3-3H102"/>
	</g>
	<g id="Channel" transform="translate(182.000000, 16.000000)">
		<path id="Combined-Shape_2_" d="M51.7-453l1.3,2.6L24.3-436l-1.3-2.6L51.7-453z M23-425.7L51.7-440l1.3,2.6l-28.7,14.4L23-425.7z"
			/>
	</g>
	<g id="Text_Annotation_1_" transform="translate(17.000000, 49.000000)">
		<path id="Combined-Shape_4_" class="st2" d="M240-571.1h-3.9v10.8h-2.5v-10.8h-3.9v-2H240V-571.1z M220-552v-30h30v30H220z
			 M223-555h24v-24h-24V-555z"/>
	</g>
	<g id="Average_Line_1_" transform="translate(72.000000, 51.000000)">
		<path id="Combined-Shape_5_" class="st2" d="M166.5-538.9h24.3h2.7v-9.1h1.5v9.1v3.5v9.4h-1.5v-9.4h-27v9.4H165v-9.4v-3.5v-9.1
			h1.5V-538.9z"/>
	</g>
	<g id="Callout_1_" transform="translate(127.000000, 49.000000)">
		<path id="Fill-1_1_" class="st2" d="M134-518h-18c-3.3,0-6,2.7-6,6v9.8c0,3.3,2.7,6,6,6v8.2l9-8.2h9c3.3,0,6-2.7,6-6v-9.8
			C140-515.3,137.3-518,134-518 M134-515c1.7,0,3,1.3,3,3v9.8c0,1.7-1.3,3-3,3h-9h-1.2l-0.9,0.8l-4,3.6v-1.4v-3h-3c-1.7,0-3-1.3-3-3
			v-9.8c0-1.7,1.3-3,3-3H134"/>
	</g>
	<g id="Channel_1_" transform="translate(182.000000, 49.000000)">
		<path id="Combined-Shape_6_" class="st2" d="M83.7-485.9l1.3,2.6L56.3-469l-1.3-2.6L83.7-485.9z M55-458.6L83.7-473l1.3,2.6
			l-28.7,14.4L55-458.6z"/>
	</g>
	<g id="LineSans_Doodle" transform="translate(292.000000, 18.000000)">
		<path id="Fill-1_2_" d="M-77.3-377.7C-77.3-377.7-77.3-377.6-77.3-377.7c-0.8,1.7-1.2,3.7-1,5.5c0.2,1.4,0.8,2.3,1.1,2.5
			c0.4-0.3,1-1.5,1-3.2C-76.1-374.5-76.6-376.2-77.3-377.7 M-77.2-366.8c-0.6,0-1.2-0.2-1.7-0.5c-1.2-0.8-2.1-2.5-2.3-4.5
			c-0.3-2.3,0.1-4.9,1.2-7c0.2-0.4,0.4-0.8,0.7-1.2c-0.6-0.4-1.2-0.5-1.7-0.3c-1.2,0.4-2.6,2.4-3,5.3l-2.9-0.3
			c0.5-3.8,2.5-6.9,5-7.7c1.5-0.5,3.1-0.2,4.5,0.8c0.3-0.3,0.6-0.6,0.9-0.8c1.2-1,2.6-2,4.3-2c2,0,3.7,1.4,4.4,3.6
			c0.5,1.7,0.5,2.2,0.4,3.3c0,0.3-0.1,0.8-0.1,1.4c-0.1,1.2,0.1,1.4,0.1,1.5c0.1,0.1,0.3,0.2,0.5,0.3c0.2-0.1,0.4-0.4,0.7-0.9
			c0.3-0.5,0.5-0.9,0.7-1.2c0.3-0.5,0.5-0.8,0.7-1.5c0.8-2.5,1.9-3.9,3.3-4.5c1.7-0.8,3.4-0.3,4.6,0.1l-1,2.7
			c-1.1-0.4-1.9-0.4-2.4-0.2c-0.6,0.3-1.2,1.3-1.8,2.9c-0.3,1-0.7,1.6-1,2.1c-0.2,0.3-0.3,0.6-0.5,1c-0.4,0.7-1.2,2-2.5,2.5
			c-0.7,0.2-1.4,0.1-2-0.2c-1.8-1-2.4-1.8-2.3-4.5c0-0.7,0.1-1.2,0.1-1.6c0.1-0.8,0.1-1-0.3-2.1c-0.4-1.1-1-1.6-1.5-1.6h0
			c-0.7,0-1.7,0.7-2.4,1.3c-0.3,0.2-0.6,0.5-0.9,0.8c0.2,0.3,0.4,0.5,0.5,0.8c1.1,1.9,1.7,4.3,1.7,6.5c-0.1,2.5-1.2,5.5-3.4,6
			C-76.8-366.9-77-366.8-77.2-366.8"/>
	</g>
	<g id="LineSans_Horizontal" transform="translate(347.000000, 16.000000)">
		<polygon points="-142,-340.5 -112,-340.5 -112,-343.5 -142,-343.5 		"/>
	</g>
	<g id="LineSans" transform="translate(402.000000, 18.000000)">
		<polygon points="-168.5,-322 -197,-304.5 -195.5,-302 -167,-319.5 		"/>
	</g>
	<g id="LineSans_Segment" transform="translate(457.000000, 16.000000)">
		<path id="Combined-Shape_8_" d="M-244.4-281.2l0.4-1.4l11,3.2l-0.4,1.4L-244.4-281.2z M-232.3-275.2v-1h1.4v1H-232.3z
			 M-235.1-275.2v-1h1.4v1H-235.1z M-238-275.2v-1h1.4v1H-238z M-240.8-275.2v-1h1.4v1H-240.8z M-243.7-275.2v-1h1.4v1H-243.7z
			 M-230.6-287.4v-1.1h0.7v1.1H-230.6z M-230.6-284.7v-1.4h1v1.4H-230.6z M-230.6-281.9v-1.4h1v1.4H-230.6z M-230.6-279.2v-1.4h1
			v1.4H-230.6z M-230.6-276.4v-1.4h1v1.4H-230.6z M-230.6-274v-1.1h0.7v1.1H-230.6z"/>
	</g>
	<g id="LineSans_Continuouos" transform="translate(512.000000, 21.000000)">
		<polygon points="-279.1,-258 -285.5,-250.9 -292.1,-254 -299.4,-248.1 -304.6,-256.1 -307,-254.7 -300,-244 -291.7,-250.8 
			-284.8,-247.5 -277,-256.2 		"/>
	</g>
	<g id="LineSans_Vertical" transform="translate(567.000000, 16.000000)">
		<polygon points="-349,-199.1 -345,-199.1 -345,-229.1 -349,-229.1 		"/>
	</g>
	<g id="LineSans_Doodle_1_" transform="translate(292.000000, 52.000000)">
		<path id="Fill-1_3_" class="st2" d="M-45.3-411.7C-45.3-411.7-45.3-411.6-45.3-411.7c-0.8,1.7-1.2,3.7-1,5.5
			c0.2,1.4,0.8,2.3,1.1,2.5c0.4-0.3,1-1.5,1-3.2C-44.1-408.5-44.6-410.2-45.3-411.7 M-45.2-400.8c-0.6,0-1.2-0.2-1.7-0.5
			c-1.2-0.8-2.1-2.5-2.3-4.5c-0.3-2.3,0.1-4.9,1.2-7c0.2-0.4,0.4-0.8,0.7-1.2c-0.6-0.4-1.2-0.5-1.7-0.3c-1.2,0.4-2.6,2.4-3,5.3
			l-2.9-0.3c0.5-3.8,2.5-6.9,5-7.7c1.5-0.5,3.1-0.2,4.5,0.8c0.3-0.3,0.6-0.6,0.9-0.8c1.2-1,2.6-2,4.3-2c2,0,3.7,1.4,4.4,3.6
			c0.5,1.7,0.5,2.2,0.4,3.3c0,0.3-0.1,0.8-0.1,1.4c-0.1,1.2,0.1,1.4,0.1,1.5c0.1,0.1,0.3,0.2,0.5,0.3c0.2-0.1,0.4-0.4,0.7-0.9
			c0.3-0.5,0.5-0.9,0.7-1.2c0.3-0.5,0.5-0.8,0.7-1.5c0.8-2.5,1.9-3.9,3.3-4.5c1.7-0.8,3.4-0.3,4.6,0.1l-1,2.7
			c-1.1-0.4-1.9-0.4-2.4-0.2c-0.6,0.3-1.2,1.3-1.8,2.9c-0.3,1-0.7,1.6-1,2.1c-0.2,0.3-0.3,0.6-0.5,1c-0.4,0.7-1.2,2-2.5,2.5
			c-0.7,0.2-1.4,0.1-2-0.2c-1.8-1-2.4-1.8-2.3-4.5c0-0.7,0.1-1.2,0.1-1.6c0.1-0.8,0.1-1-0.3-2.1c-0.4-1.1-1-1.6-1.5-1.6h0
			c-0.7,0-1.7,0.7-2.4,1.3c-0.3,0.2-0.6,0.5-0.9,0.8c0.2,0.3,0.4,0.5,0.5,0.8c1.1,1.9,1.7,4.3,1.7,6.5c-0.1,2.5-1.2,5.5-3.4,6
			C-44.8-400.9-45-400.8-45.2-400.8"/>
	</g>
	<g id="LineSans_Horizontal_1_" transform="translate(347.000000, 49.000000)">
		<polygon class="st2" points="-110,-373.5 -80,-373.5 -80,-376.5 -110,-376.5 		"/>
	</g>
	<g id="LineSans_1_" transform="translate(402.000000, 52.000000)">
		<polygon class="st2" points="-136.5,-356 -165,-338.5 -163.5,-336 -135,-353.5 		"/>
	</g>
	<g id="LineSans_Segment_1_" transform="translate(457.000000, 49.000000)">
		<path id="Combined-Shape_9_" class="st2" d="M-212.4-315.2l0.4-1.4l11,3.2l-0.4,1.4L-212.4-315.2z M-200.3-309.2v-1h1.4v1H-200.3z
			 M-203.1-309.2v-1h1.4v1H-203.1z M-206-309.2v-1h1.4v1H-206z M-208.8-309.2v-1h1.4v1H-208.8z M-211.7-309.2v-1h1.4v1H-211.7z
			 M-198.6-321.4v-1.1h0.7v1.1H-198.6z M-198.6-318.7v-1.4h1v1.4H-198.6z M-198.6-315.9v-1.4h1v1.4H-198.6z M-198.6-313.2v-1.4h1
			v1.4H-198.6z M-198.6-310.4v-1.4h1v1.4H-198.6z M-198.6-308v-1.1h0.7v1.1H-198.6z"/>
	</g>
	<g id="LineSans_Continuouos_1_" transform="translate(512.000000, 55.000000)">
		<polygon class="st2" points="-247.1,-293.5 -253.5,-286.4 -260.1,-289.5 -267.4,-283.6 -272.6,-291.6 -275,-290.2 -268,-279.5 
			-259.7,-286.3 -252.8,-283 -245,-291.7 		"/>
	</g>
	<g id="LineSans_Vertical_1_" transform="translate(567.000000, 49.000000)">
		<polygon class="st2" points="-317,-232 -313,-232 -313,-262 -317,-262 		"/>
	</g>
	<g id="Shape_Elipse" transform="translate(609.000000, 17.000000)">
		<path id="Fill-1_4_" d="M-389-194.1c-8.3,0-15,4.9-15,11c0,6.1,6.7,11,15,11s15-4.9,15-11C-374-189.2-380.7-194.1-389-194.1
			 M-389-191.2c6.5,0,12,3.7,12,8.1c0,4.4-5.5,8.1-12,8.1s-12-3.7-12-8.1C-401-187.5-395.5-191.2-389-191.2"/>
	</g>
	<g id="Fib_Retracement" transform="translate(664.000000, 16.000000)">
		<path id="Combined-Shape_10_" d="M-432-162.7v-2h2.8v2H-432z M-437.6-162.7v-2h2.8v2H-437.6z M-446.9-149.7v-1.4h17.2v1.4H-446.9z
			 M-431.1-135.5v-2h2.1v2H-431.1z M-436.7-135.5v-2h2.8v2H-436.7z M-442.3-135.5v-2h2.8v2H-442.3z M-447.8-135.5v-2h2.8v2H-447.8z
			 M-453.4-135.5v-2h2.8v2H-453.4z M-459-135.5v-2h2.8v2H-459z M-452.6-142.2v-2.9h22.9v2.9H-452.6z M-441.2-155.2v-2.9h11.5v2.9
			H-441.2z"/>
	</g>
	<g id="Fib_Projection" transform="translate(719.000000, 16.000000)">
		<path id="Combined-Shape_11_" d="M-513.3-104.3v-1.4h2.1v1.4H-513.3z M-492-103.7v-2.1h2.8v2.1H-492z M-497.5-103.7v-2.1h2.8v2.1
			H-497.5z M-503-103.7v-2.1h2.8v2.1H-503z M-508.5-103.7v-2.1h2.8v2.1H-508.5z M-486.5-104.3v-1.4h2.1v1.4H-486.5z M-501.4-117.5
			v-2.1h2.8v2.1H-501.4z M-507.1-117.5v-2.1h2.8v2.1H-507.1z M-497.2-111.3v-1.4h2.1v1.4H-497.2z M-492.4-111.3v-1.4h2.8v1.4H-492.4
			z M-486.9-111.3v-1.4h2.1v1.4H-486.9z M-512.9-111.3v-1.4h2.8v1.4H-512.9z M-512.7-129.6v-2.8h28.3v2.8H-512.7z M-512.7-124.6
			v-1.4h21.9v1.4H-512.7z M-503.4-112.8l17.6-14l1.8,2.1l-19.5,15.5l-10.5-9.6l1.9-2L-503.4-112.8z"/>
	</g>
	<g id="Fib_Arc" transform="translate(774.000000, 16.000000)">
		<path id="Combined-Shape_12_" d="M-548.4-74.1h-1.3v-0.7c0-2.3-1.9-4.3-4.3-4.3s-4.3,1.9-4.3,4.3v0.7h-1.3v-0.7
			c0-3.1,2.5-5.6,5.6-5.6c3.1,0,5.6,2.5,5.6,5.6V-74.1z M-555.3-83.9l-0.1-1.3l0.7,0c0.2,0,0.5,0,0.7,0c0.2,0,0.4,0,0.7,0l0.7,0
			l-0.1,1.3l-0.7,0c-0.2,0-0.4,0-0.6,0c-0.2,0-0.4,0-0.6,0L-555.3-83.9z M-549.4-82.8L-550-83c-0.4-0.2-0.7-0.3-1.1-0.5l-0.6-0.2
			l0.4-1.2l0.6,0.2c0.4,0.1,0.9,0.3,1.3,0.5l0.6,0.3L-549.4-82.8z M-558.7-82.7l-0.6-1.2l0.6-0.3c0.4-0.2,0.8-0.4,1.3-0.5l0.6-0.2
			l0.4,1.2l-0.6,0.2c-0.4,0.1-0.7,0.3-1.1,0.5L-558.7-82.7z M-546.7-80.4l-0.4-0.5c-0.3-0.3-0.5-0.6-0.9-0.8l-0.5-0.4l0.9-1l0.5,0.4
			c0.3,0.3,0.7,0.6,1,1l0.4,0.5L-546.7-80.4z M-561.3-80.4l-1-0.9l0.4-0.5c0.3-0.3,0.6-0.7,1-1l0.5-0.4l0.9,1l-0.5,0.4
			c-0.3,0.3-0.6,0.5-0.8,0.8L-561.3-80.4z M-545.1-77.2l-0.2-0.6c-0.1-0.4-0.3-0.7-0.5-1.1l-0.3-0.6l1.2-0.6l0.3,0.6
			c0.2,0.4,0.4,0.8,0.5,1.3l0.2,0.6L-545.1-77.2z M-562.9-77.1l-1.2-0.4l0.2-0.6c0.1-0.4,0.3-0.9,0.5-1.3l0.3-0.6l1.2,0.6l-0.3,0.6
			c-0.2,0.4-0.3,0.7-0.5,1.1L-562.9-77.1z M-543.5-74.1h-1.3v-0.7c0-0.2,0-0.4,0-0.6l0-0.7l1.3-0.1l0,0.7c0,0.2,0,0.5,0,0.7V-74.1z
			 M-552-88.8l-0.7-0.1c-0.4,0-0.8-0.1-1.3-0.1l-0.7,0l0-1.3l0.7,0c0.5,0,0.9,0,1.4,0.1l0.7,0.1L-552-88.8z M-558.3-88.2l-0.3-1.3
			l0.6-0.2c0.4-0.1,0.9-0.2,1.3-0.3l0.6-0.1l0.2,1.3l-0.6,0.1c-0.4,0.1-0.8,0.2-1.2,0.3L-558.3-88.2z M-548.4-87.7L-549-88
			c-0.4-0.1-0.8-0.3-1.2-0.4l-0.6-0.2l0.4-1.3l0.6,0.2c0.4,0.1,0.9,0.3,1.3,0.4l0.6,0.2L-548.4-87.7z M-561.7-86.7l-0.7-1.1l0.6-0.3
			c0.4-0.2,0.8-0.4,1.2-0.6l0.6-0.3l0.6,1.2l-0.6,0.3c-0.4,0.2-0.7,0.4-1.1,0.6L-561.7-86.7z M-545.2-85.8l-0.5-0.4
			c-0.3-0.2-0.7-0.5-1-0.7l-0.6-0.3l0.7-1.1l0.6,0.3c0.4,0.2,0.8,0.5,1.1,0.8l0.5,0.4L-545.2-85.8z M-564.5-84.2l-0.9-0.9l0.5-0.5
			c0.3-0.3,0.7-0.6,1-0.9l0.5-0.4l0.8,1l-0.5,0.4c-0.3,0.3-0.6,0.6-0.9,0.9L-564.5-84.2z M-542.6-83.1l-0.4-0.5
			c-0.3-0.3-0.5-0.6-0.8-0.9l-0.5-0.5l0.9-0.9l0.5,0.5c0.3,0.3,0.6,0.7,0.9,1l0.4,0.5L-542.6-83.1z M-566.6-81.1l-1.1-0.6l0.3-0.6
			c0.2-0.4,0.5-0.8,0.7-1.2l0.4-0.5l1.1,0.7l-0.4,0.5c-0.2,0.3-0.5,0.7-0.7,1.1L-566.6-81.1z M-541.1-80.5l-0.3-0.6
			c-0.1-0.2-0.2-0.3-0.2-0.4l-0.3-0.6l1.2-0.6l0.3,0.6c0.1,0.2,0.2,0.3,0.3,0.5l0.3,0.6L-541.1-80.5z M-567.2-89.5l-1.8-1.9l1-0.9
			c3.8-3.6,8.8-5.6,14-5.6c5.2,0,10.2,2,14,5.6l1,0.9l-1.8,1.9l-1-0.9c-3.3-3.1-7.7-4.9-12.2-4.9c-4.6,0-8.9,1.7-12.2,4.9
			L-567.2-89.5z"/>
		<path id="Fill-3" d="M-563.2-74.1h-1.3v-0.7c0-0.2,0-0.5,0-0.7l0-0.7l1.3,0.1l0,0.7c0,0.2,0,0.4,0,0.6V-74.1z"/>
	</g>
	<g id="Fib_Fan" transform="translate(829.000000, 16.000000)">
		<path id="Combined-Shape_13_" d="M-616.1-48.9l18.6-17.7l1,1L-618-45.1l-1.4,2.8h25.3v2.9h-30l14.6-29.2l2.6,1.3L-616.1-48.9z
			 M-616.5-43.1l-0.7-1.2l1.9-1.1l0.7,1.2L-616.5-43.1z M-601.5-51.9l-0.7-1.2l2.5-1.5l0.7,1.2L-601.5-51.9z M-606.8-48.8l-0.7-1.2
			l2.5-1.5l0.7,1.2L-606.8-48.8z M-612-45.7l-0.7-1.2l2.5-1.5l0.7,1.2L-612-45.7z M-597-56.2l1.9-1.1l0.7,1.2l-1.9,1.1L-597-56.2z
			 M-599.7-45.4l-0.3-1.4l2.8-0.7l0.3,1.4L-599.7-45.4z M-605.3-44l-0.3-1.4l2.8-0.7l0.3,1.4L-605.3-44z M-610.9-42.7l-0.3-1.4
			l2.8-0.7l0.3,1.4L-610.9-42.7z"/>
	</g>
	<g id="Shape_Elipse_1_" transform="translate(609.000000, 51.000000)">
		<path id="Fill-1_5_" class="st2" d="M-357-228c-8.3,0-15,4.9-15,11c0,6.1,6.7,11,15,11s15-4.9,15-11C-342-223.1-348.7-228-357-228
			 M-357-225.1c6.5,0,12,3.7,12,8.1c0,4.4-5.5,8.1-12,8.1s-12-3.7-12-8.1C-369-221.4-363.5-225.1-357-225.1"/>
	</g>
	<g id="Fib_Retracement_1_" transform="translate(664.000000, 50.000000)">
		<path id="Combined-Shape_14_" class="st2" d="M-400-196.6v-2h2.8v2H-400z M-405.6-196.6v-2h2.8v2H-405.6z M-414.9-183.6v-1.4h17.2
			v1.4H-414.9z M-399.1-169.4v-2h2.1v2H-399.1z M-404.7-169.4v-2h2.8v2H-404.7z M-410.3-169.4v-2h2.8v2H-410.3z M-415.8-169.4v-2
			h2.8v2H-415.8z M-421.4-169.4v-2h2.8v2H-421.4z M-427-169.4v-2h2.8v2H-427z M-420.6-176.1v-2.9h22.9v2.9H-420.6z M-409.2-189.1
			v-2.9h11.5v2.9H-409.2z"/>
	</g>
	<g id="Fib_Projection_1_" transform="translate(719.000000, 49.000000)">
		<path id="Combined-Shape_15_" class="st2" d="M-481.3-137.3v-1.4h2.1v1.4H-481.3z M-460-136.6v-2.1h2.8v2.1H-460z M-465.5-136.6
			v-2.1h2.8v2.1H-465.5z M-471-136.6v-2.1h2.8v2.1H-471z M-476.5-136.6v-2.1h2.8v2.1H-476.5z M-454.5-137.3v-1.4h2.1v1.4H-454.5z
			 M-469.4-150.5v-2.1h2.8v2.1H-469.4z M-475.1-150.5v-2.1h2.8v2.1H-475.1z M-465.2-144.3v-1.4h2.1v1.4H-465.2z M-460.4-144.3v-1.4
			h2.8v1.4H-460.4z M-454.9-144.3v-1.4h2.1v1.4H-454.9z M-480.9-144.3v-1.4h2.8v1.4H-480.9z M-480.7-162.6v-2.8h28.3v2.8H-480.7z
			 M-480.7-157.6v-1.4h21.9v1.4H-480.7z M-471.4-145.8l17.6-14l1.8,2.1l-19.5,15.5l-10.5-9.6l1.9-2L-471.4-145.8z"/>
	</g>
	<g id="Fib_Arc-Copy" transform="translate(774.000000, 50.000000)">
		<path id="Combined-Shape_16_" class="st2" d="M-516.4-108.1h-1.3v-0.7c0-2.3-1.9-4.3-4.3-4.3s-4.3,1.9-4.3,4.3v0.7h-1.3v-0.7
			c0-3.1,2.5-5.6,5.6-5.6c3.1,0,5.6,2.5,5.6,5.6V-108.1z M-523.3-117.9l-0.1-1.3l0.7,0c0.2,0,0.5,0,0.7,0c0.2,0,0.4,0,0.7,0l0.7,0
			l-0.1,1.3l-0.7,0c-0.2,0-0.4,0-0.6,0c-0.2,0-0.4,0-0.6,0L-523.3-117.9z M-517.4-116.8l-0.6-0.3c-0.4-0.2-0.7-0.3-1.1-0.5l-0.6-0.2
			l0.4-1.2l0.6,0.2c0.4,0.1,0.9,0.3,1.3,0.5l0.6,0.3L-517.4-116.8z M-526.7-116.7l-0.6-1.2l0.6-0.3c0.4-0.2,0.8-0.4,1.3-0.5l0.6-0.2
			l0.4,1.2l-0.6,0.2c-0.4,0.1-0.7,0.3-1.1,0.5L-526.7-116.7z M-514.7-114.4l-0.4-0.5c-0.3-0.3-0.5-0.6-0.9-0.8l-0.5-0.4l0.9-1
			l0.5,0.4c0.3,0.3,0.7,0.6,1,1l0.4,0.5L-514.7-114.4z M-529.3-114.4l-1-0.9l0.4-0.5c0.3-0.3,0.6-0.7,1-1l0.5-0.4l0.9,1l-0.5,0.4
			c-0.3,0.3-0.6,0.5-0.8,0.8L-529.3-114.4z M-513.1-111.2l-0.2-0.6c-0.1-0.4-0.3-0.7-0.5-1.1l-0.3-0.6l1.2-0.6l0.3,0.6
			c0.2,0.4,0.4,0.8,0.5,1.3l0.2,0.6L-513.1-111.2z M-530.9-111.1l-1.2-0.4l0.2-0.6c0.1-0.4,0.3-0.9,0.5-1.3l0.3-0.6l1.2,0.6
			l-0.3,0.6c-0.2,0.4-0.3,0.7-0.5,1.1L-530.9-111.1z M-511.5-108.1h-1.3v-0.7c0-0.2,0-0.4,0-0.6l0-0.7l1.3-0.1l0,0.7
			c0,0.2,0,0.5,0,0.7V-108.1z M-520-122.8l-0.7-0.1c-0.4,0-0.8-0.1-1.3-0.1l-0.7,0l0-1.3l0.7,0c0.5,0,0.9,0,1.4,0.1l0.7,0.1
			L-520-122.8z M-526.3-122.2l-0.3-1.3l0.6-0.2c0.4-0.1,0.9-0.2,1.3-0.3l0.6-0.1l0.2,1.3l-0.6,0.1c-0.4,0.1-0.8,0.2-1.2,0.3
			L-526.3-122.2z M-516.4-121.7l-0.6-0.2c-0.4-0.1-0.8-0.3-1.2-0.4l-0.6-0.2l0.4-1.3l0.6,0.2c0.4,0.1,0.9,0.3,1.3,0.4l0.6,0.2
			L-516.4-121.7z M-529.7-120.7l-0.7-1.1l0.6-0.3c0.4-0.2,0.8-0.4,1.2-0.6l0.6-0.3l0.6,1.2l-0.6,0.3c-0.4,0.2-0.7,0.4-1.1,0.6
			L-529.7-120.7z M-513.2-119.8l-0.5-0.4c-0.3-0.2-0.7-0.5-1-0.7l-0.6-0.3l0.7-1.1l0.6,0.3c0.4,0.2,0.8,0.5,1.1,0.8l0.5,0.4
			L-513.2-119.8z M-532.5-118.2l-0.9-0.9l0.5-0.5c0.3-0.3,0.7-0.6,1-0.9l0.5-0.4l0.8,1l-0.5,0.4c-0.3,0.3-0.6,0.6-0.9,0.9
			L-532.5-118.2z M-510.6-117.1l-0.4-0.5c-0.3-0.3-0.5-0.6-0.8-0.9l-0.5-0.5l0.9-0.9l0.5,0.5c0.3,0.3,0.6,0.7,0.9,1l0.4,0.5
			L-510.6-117.1z M-534.6-115.1l-1.1-0.6l0.3-0.6c0.2-0.4,0.5-0.8,0.7-1.2l0.4-0.5l1.1,0.7l-0.4,0.5c-0.2,0.3-0.5,0.7-0.7,1.1
			L-534.6-115.1z M-509.1-114.5l-0.3-0.6c-0.1-0.2-0.2-0.3-0.2-0.4l-0.3-0.6l1.2-0.6l0.3,0.6c0.1,0.2,0.2,0.3,0.3,0.5l0.3,0.6
			L-509.1-114.5z M-535.2-123.5l-1.8-1.9l1-0.9c3.8-3.6,8.8-5.6,14-5.6c5.2,0,10.2,2,14,5.6l1,0.9l-1.8,1.9l-1-0.9
			c-3.3-3.1-7.7-4.9-12.2-4.9c-4.6,0-8.9,1.7-12.2,4.9L-535.2-123.5z"/>
		<path id="Fill-3_1_" class="st2" d="M-531.2-108.1h-1.3v-0.7c0-0.2,0-0.5,0-0.7l0-0.7l1.3,0.1l0,0.7c0,0.2,0,0.4,0,0.6V-108.1z"/>
	</g>
	<g id="Fib_Fan_1_" transform="translate(829.000000, 49.000000)">
		<path id="Combined-Shape_17_" class="st2" d="M-584.1-81.8l18.6-17.7l1,1L-586-78l-1.4,2.8h25.3v2.9h-30l14.6-29.2l2.6,1.3
			L-584.1-81.8z M-584.5-76l-0.7-1.2l1.9-1.1l0.7,1.2L-584.5-76z M-569.5-84.8l-0.7-1.2l2.5-1.5l0.7,1.2L-569.5-84.8z M-574.8-81.7
			l-0.7-1.2l2.5-1.5l0.7,1.2L-574.8-81.7z M-580-78.7l-0.7-1.2l2.5-1.5l0.7,1.2L-580-78.7z M-565-89.1l1.9-1.1l0.7,1.2l-1.9,1.1
			L-565-89.1z M-567.7-78.3l-0.3-1.4l2.8-0.7l0.3,1.4L-567.7-78.3z M-573.3-77l-0.3-1.4l2.8-0.7l0.3,1.4L-573.3-77z M-578.9-75.6
			l-0.3-1.4l2.8-0.7l0.3,1.4L-578.9-75.6z"/>
	</g>
	<g id="Fib_TimeZones" transform="translate(884.000000, 15.000000)">
		<path id="Combined-Shape_18_" d="M-664.4-26.3v-2.2h1.4v2.2H-664.4z M-664.4-30v-2.4h1.4v2.4H-664.4z M-664.4-33.9v-2.2h1.4v2.2
			H-664.4z M-664.4-6.1v-2.2h1.4v2.2H-664.4z M-664.4-10.7v-2.7h1.4v2.7H-664.4z M-664.4-15.8V-18h1.4v2.2H-664.4z M-658-30.5v-2.2
			h1.4v2.2H-658z M-658-33.9v-2.2h1.4v2.2H-658z M-658-6.1v-2.2h1.4v2.2H-658z M-658-11.1V-14h1.4v2.9H-658z M-658-16.8V-19h1.4v2.2
			H-658z M-651.7-6.4v-2.2h1.4v2.2H-651.7z M-651.7-28.3v-2.9h1.4v2.9H-651.7z M-651.7-22.6v-2.8h1.4v2.8H-651.7z M-651.7-17v-2.9
			h1.4v2.9H-651.7z M-651.7-11.3v-2.9h1.4v2.9H-651.7z M-651.7-33.9v-2.2h1.4v2.2H-651.7z M-674.9-18.8l20.6-8.6l1,2.5l-21.6,9v9.1
			h-2.8v-28.8h2.8V-18.8z M-670.7-6.4v-9.1h1.4v9.1H-670.7z M-670.7-22.7v-13.3h1.4v13.3H-670.7z"/>
	</g>
	<g id="Gann_Fan" transform="translate(939.000000, 16.000000)">
		<path id="Combined-Shape_19_" d="M-724-1.3l-0.4,0.8l-1.2-0.7l1.2-2.2l-0.3-1l2.7-0.8l0.3,1l0.2-0.3l2.3,1.6l-0.8,1.1l-1.2-0.9
			l0.1,0.4l16.9,23l-1.1,0.8l-14.6-20l6.4,22.3l-2.7,0.8L-723,1.6l-3.3,22.4l-1.4-0.2L-724-1.3z M-717.8,0.1l0.8-1.1l2.3,1.6
			l-0.8,1.1L-717.8,0.1z M-728.3,3.7l1.3-2.4l1.2,0.7l-1.3,2.4L-728.3,3.7z M-713.3,3.3l0.8-1.1l2.3,1.6l-0.8,1.1L-713.3,3.3z
			 M-708.8,6.6l0.8-1.1l2.3,1.6l-0.8,1.1L-708.8,6.6z M-731,8.6l1.3-2.4l1.2,0.7l-1.3,2.4L-731,8.6z M-733.7,13.5l1.3-2.4l1.2,0.7
			l-1.3,2.4L-733.7,13.5z"/>
	</g>
	<g id="Gartley" transform="translate(994.000000, 15.000000)">
		<path id="Combined-Shape_20_" d="M-774.3,41.9l-5-8.9l-6.8,8l-2.2-1.9l9.5-11.2l16.2,28.5l-2.5,1.5l-8-14.1h-1.2L-774.3,41.9
			L-774.3,41.9z M-779.9,43.3v-1.5h2.2v1.5H-779.9z M-768.1,43.8v-1.9h3v1.9H-768.1z M-761.8,43.3v-1.5h2.2v1.5H-761.8z"/>
	</g>
	<g id="Fib_TimeZones_1_" transform="translate(884.000000, 49.000000)">
		<path id="Combined-Shape_21_" class="st2" d="M-632.4-60.2v-2.2h1.4v2.2H-632.4z M-632.4-63.9v-2.4h1.4v2.4H-632.4z M-632.4-67.8
			V-70h1.4v2.2H-632.4z M-632.4-40v-2.2h1.4v2.2H-632.4z M-632.4-44.6v-2.7h1.4v2.7H-632.4z M-632.4-49.7v-2.2h1.4v2.2H-632.4z
			 M-626-64.4v-2.2h1.4v2.2H-626z M-626-67.8V-70h1.4v2.2H-626z M-626-40v-2.2h1.4v2.2H-626z M-626-45v-2.9h1.4v2.9H-626z
			 M-626-50.7v-2.2h1.4v2.2H-626z M-619.7-40.3v-2.2h1.4v2.2H-619.7z M-619.7-62.2V-65h1.4v2.9H-619.7z M-619.7-56.5v-2.8h1.4v2.8
			H-619.7z M-619.7-50.9v-2.9h1.4v2.9H-619.7z M-619.7-45.3v-2.9h1.4v2.9H-619.7z M-619.7-67.8V-70h1.4v2.2H-619.7z M-642.9-52.7
			l20.6-8.6l1,2.5l-21.6,9v9.1h-2.8v-28.8h2.8V-52.7z M-638.7-40.3v-9.1h1.4v9.1H-638.7z M-638.7-56.7V-70h1.4v13.3H-638.7z"/>
	</g>
	<g id="Gann_Fan_1_" transform="translate(939.000000, 49.000000)">
		<path id="Combined-Shape_22_" class="st2" d="M-692-34.2l-0.4,0.8l-1.2-0.7l1.2-2.2l-0.3-1l2.7-0.8l0.3,1l0.2-0.3l2.3,1.6
			l-0.8,1.1l-1.2-0.9l0.1,0.4l16.9,23l-1.1,0.8l-14.6-20l6.4,22.3l-2.7,0.8l-6.7-23.3l-3.3,22.4l-1.4-0.2L-692-34.2z M-685.8-32.9
			l0.8-1.1l2.3,1.6l-0.8,1.1L-685.8-32.9z M-696.3-29.2l1.3-2.4l1.2,0.7l-1.3,2.4L-696.3-29.2z M-681.3-29.6l0.8-1.1l2.3,1.6
			l-0.8,1.1L-681.3-29.6z M-676.8-26.3l0.8-1.1l2.3,1.6l-0.8,1.1L-676.8-26.3z M-699-24.3l1.3-2.4l1.2,0.7l-1.3,2.4L-699-24.3z
			 M-701.7-19.4l1.3-2.4l1.2,0.7l-1.3,2.4L-701.7-19.4z"/>
	</g>
	<g id="Gartley_1_" transform="translate(994.000000, 49.000000)">
		<path id="Combined-Shape_23_" class="st2" d="M-742.3,7.9l-5-8.9l-6.8,8l-2.2-1.9l9.5-11.2l16.2,28.5l-2.5,1.5l-8-14.1h-1.2
			L-742.3,7.9L-742.3,7.9z M-747.9,9.4V7.9h2.2v1.5H-747.9z M-736.1,9.9V7.9h3v1.9H-736.1z M-729.8,9.4V7.9h2.2v1.5H-729.8z"/>
	</g>
	<g id="Pitchfork" transform="translate(17.000000, 91.000000)">
		<path id="Combined-Shape_24_" d="M204.9-1.1l5.5,5.5l5.6-5.6l2,2l-7.5,7.5l-2-2l0,0L203,0.8L190,13.8l-2-2l13.1-13.1l-4.6-4.6l0,0
			l-2-2l8.5-8.5l2,2l-6.5,6.5l4.6,4.6L216-16.2l2,2L204.9-1.1z"/>
	</g>
	<g id="Pitchfork_1_" transform="translate(17.000000, 127.000000)">
		<path id="Combined-Shape_25_" class="st2" d="M236.9-37l5.5,5.5L248-37l2,2l-7.5,7.5l-2-2l0,0l-5.5-5.5L222-22l-2-2L233.1-37
			l-4.6-4.6l0,0l-2-2L235-52l2,2l-6.5,6.5l4.6,4.6L248-52l2,2L236.9-37z"/>
	</g>
	<g id="Quadrant_Lines" transform="translate(72.000000, 91.000000)">
		<path id="Combined-Shape_26_" d="M134.2,32.3v-3h27.6v3H134.2z M133,45.3v-1.5h2.3v1.5H133z M155,45.8v-2h2.9v2H155z M149.4,45.8
			v-2h2.9v2H149.4z M143.7,45.8v-2h2.9v2H143.7z M138,45.8v-2h2.9v2H138z M160.7,45.3v-1.5h2.3v1.5H160.7z M133,17.7v-1.5h2.3v1.5
			H133z M155,18.2v-2h2.9v2H155z M149.4,18.2v-2h2.9v2H149.4z M143.7,18.2v-2h2.9v2H143.7z M138,18.2v-2h2.9v2H138z M160.7,17.7
			v-1.5h2.3v1.5H160.7z M134.2,23.1v-1.5h27.6v1.5H134.2z M134.5,39.9v-1.5h27.1v1.5H134.5z"/>
	</g>
	<g id="Ray" transform="translate(127.000000, 91.000000)">
		<path id="Combined-Shape_27_" d="M101.1,56h2.1v2h-2.7L80.1,70.7l-1.4-2.4L95.2,58h-0.3v-2h2.8v0.5l1.4-0.9v-2.1h2V56z M106,58v-2
			h1.7v2H106z M89.4,58v-2h2.8v2H89.4z M83.8,58v-2h2.8v2H83.8z M78.3,58v-2h2.8v2H78.3z M99.1,50.7v-2.8h2v2.8H99.1z M99.1,62v-2.8
			h2V62H99.1z M99.1,67.6v-2.8h2v2.8H99.1z M99.1,73.3v-2.8h2v2.8H99.1z M99.1,77.8v-1.7h2v1.7H99.1z"/>
	</g>
	<g id="Shape_Rectangle" transform="translate(182.000000, 93.000000)">
		<path id="Combined-Shape_28_" d="M23,103.8v-22h30v22H23z M26,100.9h24V84.8H26V100.9z"/>
	</g>
	<g id="Regression_Line" transform="translate(237.000000, 91.000000)">
		<path id="Combined-Shape_29_" d="M-3.5,124.6l-27,8.4v-3.5l27-8.4v-8.3H-2V132h-1.5V124.6z M-32,140.8v-19.2h1.5v19.2H-32z"/>
	</g>
	<g id="Shape_Check" transform="translate(292.000000, 93.000000)">
		<polygon id="Fill-1_6_" points="-60.6,145.8 -76.6,160.3 -83.3,153.9 -87,158 -76.7,167.8 -57,150 		"/>
	</g>
	<g id="Shape_Cross" transform="translate(347.000000, 91.000000)">
		<path id="Combined-Shape_30_" d="M-127,188.5l12.5-12.5l2.5,2.4l-12.5,12.6l12.5,12.5l-2.4,2.5l-12.6-12.5l-12.5,12.5l-2.5-2.4
			l12.5-12.6l-12.5-12.5l2.4-2.5L-127,188.5z"/>
	</g>
	<g id="Shape_Focus" transform="translate(402.000000, 92.000000)">
		<path id="Combined-Shape_31_" d="M-197,208.8L-197,208.8l12.7,13.2l-12.7,13.2V208.8z M-194,216.3v11.4l5.4-5.7L-194,216.3z
			 M-167,208.8L-167,208.8l0,26.5l-12.7-13.2L-167,208.8z M-175.4,222l5.4,5.7v-11.4L-175.4,222z"/>
	</g>
	<g id="Shape_Heart" transform="translate(457.000000, 92.000000)">
		<path id="Fill-1_7_" d="M-243.7,242.9c-0.9,0-1.8,0.2-2.7,0.7c-1.6,0.8-2.6,2.6-2.6,4.6v0.3c0,0.6,0.2,1.4,0.5,2.3
			c2.1,5.7,9.1,11.6,11.6,13.5c2.4-1.9,9.3-7.7,11.4-13.4c0.3-1,0.5-1.9,0.5-2.6v-0.2c0-1.9-1-3.7-2.6-4.5c-1.7-0.9-3.5-0.9-5-0.2
			c-1.5,0.7-2.6,2.1-2.9,3.7c-0.2,0.7-0.7,1.1-1.5,1.2c-0.7,0-1.3-0.5-1.4-1.2c-0.4-1.6-1.5-3-2.9-3.7
			C-242.1,243.1-242.9,242.9-243.7,242.9 M-236.9,267.7c-0.3,0-0.6-0.1-0.9-0.3c-0.4-0.3-10.7-7.8-13.5-15.5c0,0-0.1-0.1-0.1-0.2
			c-0.4-1.2-0.6-2.3-0.7-3.3v-0.3c0-3.1,1.7-6,4.3-7.3c2.5-1.3,5.2-1.3,7.6-0.2c1.2,0.6,2.3,1.5,3.1,2.6c0.8-1.1,1.9-2,3.1-2.6
			c2.4-1.2,5.1-1.1,7.6,0.2c2.6,1.3,4.2,4.2,4.2,7.3v0.2c0,1.1-0.3,2.3-0.7,3.6c-2.8,7.8-12.9,15.1-13.3,15.5
			C-236.3,267.6-236.6,267.7-236.9,267.7"/>
	</g>
	<g id="Shape_Star" transform="translate(512.000000, 91.000000)">
		<path id="Combined-Shape_32_" d="M-292,272.8l4.6,9.2l10.4,1.5l-7.5,7.2l1.8,10.1l-9.3-4.8l-9.3,4.8l1.8-10.1l-7.5-7.2l10.4-1.5
			L-292,272.8z M-296.7,291.1l-0.8,4.6l4.2-2.2l1.3-0.7l1.3,0.7l4.2,2.2l-0.8-4.6l-0.3-1.4l1.1-1l3.4-3.2l-4.7-0.7l-1.5-0.2
			l-0.7-1.3l-2.1-4.2l-2.1,4.2l-0.7,1.3l-1.5,0.2l-4.7,0.7l3.4,3.2l1.1,1L-296.7,291.1z"/>
	</g>
	<g id="Shape_Arrow" transform="translate(567.000000, 94.000000)">
		<path id="Combined-Shape_33_" d="M-341.6,311.3l-2-4.1l11.6,0.6l-6.3,10.3l-2-4.1l-20.4,10.9l-1.3-2.7L-341.6,311.3z"/>
	</g>
	<g id="SpeedResistance_Arc" transform="translate(622.000000, 93.000000)">
		<path id="Combined-Shape_34_" d="M-404.6,353.7l3.5,4.7l-1.2,0.8l-3.5-4.7c-1.1,1-1.8,2.4-1.8,4h-2.9c0-2.5,1.1-4.8,3-6.3
			l-2.7-3.5c-0.6,0.5-1.2,1.1-1.8,1.7l-1.1-0.9c0.6-0.7,1.3-1.4,2-2l0.1,0.1l-6.1-8.1l1.2-0.8l9.5,12.6c1.3-0.8,2.9-1.3,4.6-1.3
			c4.8,0,8.8,3.8,8.8,8.4h-2.9c0-3.1-2.6-5.6-5.8-5.6C-402.8,352.9-403.8,353.2-404.6,353.7z M-415,358.5h-1.5c0-0.5,0-1,0.1-1.5
			l1.4,0.1C-415,357.6-415,358.1-415,358.5z M-403,345.8l-0.1-1.4c0.9-0.1,1.9-0.1,2.9,0l-0.1,1.4
			C-401.3,345.7-402.2,345.7-403,345.8z M-395.5,347.2c-0.8-0.4-1.6-0.7-2.4-0.9l0.4-1.3c0.9,0.3,1.8,0.6,2.7,1.1L-395.5,347.2z
			 M-408,347.3l-0.7-1.2c0.8-0.4,1.7-0.8,2.7-1.1l0.4,1.3C-406.4,346.5-407.2,346.9-408,347.3z M-391.5,350.4
			c-0.6-0.6-1.2-1.2-1.8-1.8l0.9-1.1c0.7,0.6,1.4,1.2,2,1.9L-391.5,350.4z M-389.1,354.7c-0.3-0.8-0.6-1.6-1-2.3l1.3-0.7
			c0.5,0.8,0.8,1.7,1.1,2.6L-389.1,354.7z M-414.4,354.8l-1.4-0.4c0.3-0.9,0.7-1.7,1.1-2.6l1.3,0.7
			C-413.8,353.2-414.2,354-414.4,354.8z M-387,358.5h-1.5c0-0.4,0-0.9-0.1-1.3l1.4-0.1C-387,357.5-387,358-387,358.5z"/>
	</g>
	<g id="Time_Cycle" transform="translate(677.000000, 91.000000)">
		<path id="Combined-Shape_35_" d="M-443.3,397.8v-30h0.8v30H-443.3z M-457.2,397.8v-30h1.5v30H-457.2z M-450,397.8v-30h0.8v30H-450
			z M-471.5,397.8v-30h3.1v30H-471.5z M-464,397.8v-30h1.5v30H-464z"/>
	</g>
	<g id="Tirone_Levels" transform="translate(732.000000, 91.000000)">
		<path id="Combined-Shape_36_" d="M-525.4,423.5V422h26.9v1.5H-525.4z M-525.4,406.7v-1.5h26.9v1.5H-525.4z M-522.2,411.9v-0.8
			h20.4v0.8H-522.2z M-522,417.5v-0.7h20v0.7H-522z M-527,430v-30h30v30H-527z M-525.5,428.5h27v-27h-27V428.5z"/>
	</g>
	<g id="Trend_Line" transform="translate(787.000000, 91.000000)">
		<path id="Combined-Shape_37_" d="M-570.3,438.5h-2.3v6.2h-1.4v-6.2h-2.2v-1.2h5.9V438.5z M-582,449.6v-17.4h17.3v17.4H-582z
			 M-580.5,448.1h14.4v-14.5h-14.4V448.1z M-571.7,459.3l17.9-14.7l1.8,2.2l-17.9,14.7L-571.7,459.3z"/>
	</g>
	<g id="SpeedResistance_Line" transform="translate(842.000000, 91.000000)">
		<path id="Combined-Shape_38_" d="M-632.1,490.1l2-1l0.6,1.2l-2.3,1.2l-0.6-1.1l-1.2,1.2l-0.9,1.8l-0.5-0.2l-0.5,0.2l-0.3-0.6
			l-1.3-0.6l14-27.8l2.5,1.2l-11.2,22.2l23.6-23.3l1,1L-632.1,490.1z M-613.1,482.2l-0.6-1.2l2.3-1.2l0.6,1.2L-613.1,482.2z
			 M-617.8,484.5l-0.6-1.2l2.3-1.2l0.6,1.2L-617.8,484.5z M-622.5,486.9l-0.6-1.2l2.3-1.2l0.6,1.2L-622.5,486.9z M-627.1,489.2
			l-0.6-1.2l2.3-1.2l0.6,1.2L-627.1,489.2z M-609.1,478.6l1.3-0.6l0.6,1.2l-1.3,0.6L-609.1,478.6z"/>
	</g>
	<g id="Direct_Select2" transform="translate(346.000000, 182.000000)">
		<path id="Combined-Shape_39_" d="M-121.3,619.1l-6.2,6.6l-7.6-22.9l22.9,7.6l-6.6,6.2l7.9,7.9l-2.5,2.5L-121.3,619.1z
			 M-129.6,608.4l3.6,10.7l3.4-3.6l0.1-0.1l0.1-0.1l3.6-3.4L-129.6,608.4z M-141,597h9.2v4.3h-1.7v-2.6h-5.7v5.7h2.6v1.7h-4.4V597z"
			/>
	</g>
	<g id="Quadrant_Lines_1_" transform="translate(72.000000, 127.000000)">
		<path id="Combined-Shape_40_" class="st2" d="M166.2-3.7v-3h27.6v3H166.2z M165,9.3V7.8h2.3v1.5H165z M187,9.9v-2h2.9v2H187z
			 M181.4,9.9v-2h2.9v2H181.4z M175.7,9.9v-2h2.9v2H175.7z M170,9.9v-2h2.9v2H170z M192.7,9.3V7.8h2.3v1.5H192.7z M165-18.3v-1.5
			h2.3v1.5H165z M187-17.8v-2h2.9v2H187z M181.4-17.8v-2h2.9v2H181.4z M175.7-17.8v-2h2.9v2H175.7z M170-17.8v-2h2.9v2H170z
			 M192.7-18.3v-1.5h2.3v1.5H192.7z M166.2-12.9v-1.5h27.6v1.5H166.2z M166.5,3.9V2.4h27.1v1.5H166.5z"/>
	</g>
	<g id="Ray_1_" transform="translate(127.000000, 126.000000)">
		<path id="Combined-Shape_41_" class="st2" d="M133.1,21.1h2.1v2h-2.7l-20.5,12.7l-1.4-2.4l16.6-10.3h-0.3v-2h2.8v0.5l1.4-0.9v-2.1
			h2V21.1z M138,23.2v-2h1.7v2H138z M121.4,23.2v-2h2.8v2H121.4z M115.8,23.2v-2h2.8v2H115.8z M110.3,23.2v-2h2.8v2H110.3z
			 M131.1,15.8V13h2v2.8H131.1z M131.1,27.2v-2.8h2v2.8H131.1z M131.1,32.8V30h2v2.8H131.1z M131.1,38.5v-2.8h2v2.8H131.1z
			 M131.1,43v-1.7h2V43H131.1z"/>
	</g>
	<g id="Shape_Rectangle_1_" transform="translate(182.000000, 129.000000)">
		<path id="Combined-Shape_42_" class="st2" d="M55,68V46h30v22H55z M58,65.1h24V48.9H58V65.1z"/>
	</g>
	<g id="Regression_Line_1_" transform="translate(237.000000, 127.000000)">
		<path id="Combined-Shape_43_" class="st2" d="M28.5,88.8l-27,8.4v-3.5l27-8.4V77H30v19.2h-1.5V88.8z M0,105V85.8h1.5V105H0z"/>
	</g>
	<g id="Shape_Check_1_" transform="translate(292.000000, 129.000000)">
		<polygon id="Fill-1_8_" class="st2" points="-28.6,110 -44.6,124.5 -51.3,118.1 -55,122.1 -44.7,132 -25,114.2 		"/>
	</g>
	<g id="Shape_Cross_1_" transform="translate(347.000000, 127.000000)">
		<path id="Combined-Shape_44_" class="st2" d="M-95,152.5l12.5-12.5l2.5,2.4L-92.5,155l12.5,12.5l-2.4,2.5L-95,157.5l-12.5,12.5
			l-2.5-2.4l12.5-12.6l-12.5-12.5l2.4-2.5L-95,152.5z"/>
	</g>
	<g id="Shape_Focus_1_" transform="translate(402.000000, 127.000000)">
		<path id="Combined-Shape_45_" class="st2" d="M-165,173.8L-165,173.8l12.7,13.2l-12.7,13.2V173.8z M-162,181.3v11.4l5.4-5.7
			L-162,181.3z M-135,173.8L-135,173.8l0,26.5l-12.7-13.2L-135,173.8z M-143.4,187l5.4,5.7v-11.4L-143.4,187z"/>
	</g>
	<g id="Shape_Heart_1_" transform="translate(457.000000, 127.000000)">
		<path id="Fill-1_9_" class="st2" d="M-211.7,208.1c-0.9,0-1.8,0.2-2.7,0.7c-1.6,0.8-2.6,2.6-2.6,4.6v0.3c0,0.6,0.2,1.4,0.5,2.3
			c2.1,5.7,9.1,11.6,11.6,13.5c2.4-1.9,9.3-7.7,11.4-13.4c0.3-1,0.5-1.9,0.5-2.6v-0.2c0-1.9-1-3.7-2.6-4.5c-1.7-0.9-3.5-0.9-5-0.2
			c-1.5,0.7-2.6,2.1-2.9,3.7c-0.2,0.7-0.7,1.1-1.5,1.2c-0.7,0-1.3-0.5-1.4-1.2c-0.4-1.6-1.5-3-2.9-3.7
			C-210.1,208.3-210.9,208.1-211.7,208.1 M-204.9,233c-0.3,0-0.6-0.1-0.9-0.3c-0.4-0.3-10.7-7.8-13.5-15.5c0,0-0.1-0.1-0.1-0.2
			c-0.4-1.2-0.6-2.3-0.7-3.3v-0.3c0-3.1,1.7-6,4.3-7.3c2.5-1.3,5.2-1.3,7.6-0.2c1.2,0.6,2.3,1.5,3.1,2.6c0.8-1.1,1.9-2,3.1-2.6
			c2.4-1.2,5.1-1.1,7.6,0.2c2.6,1.3,4.2,4.2,4.2,7.3v0.2c0,1.1-0.3,2.3-0.7,3.6c-2.8,7.8-12.9,15.1-13.3,15.5
			C-204.3,232.9-204.6,233-204.9,233"/>
	</g>
	<g id="Shape_Star_1_" transform="translate(512.000000, 127.000000)">
		<path id="Combined-Shape_46_" class="st2" d="M-260,237l4.6,9.2l10.4,1.5l-7.5,7.2l1.8,10.1l-9.3-4.8l-9.3,4.8l1.8-10.1l-7.5-7.2
			l10.4-1.5L-260,237z M-264.7,255.3l-0.8,4.6l4.2-2.2l1.3-0.7l1.3,0.7l4.2,2.2l-0.8-4.6l-0.3-1.4l1.1-1l3.4-3.2l-4.7-0.7l-1.5-0.2
			l-0.7-1.3l-2.1-4.2l-2.1,4.2l-0.7,1.3l-1.5,0.2l-4.7,0.7l3.4,3.2l1.1,1L-264.7,255.3z"/>
	</g>
	<g id="Shape_Arrow_1_" transform="translate(567.000000, 130.000000)">
		<path id="Combined-Shape_47_" class="st2" d="M-309.6,275.2l-2-4.1l11.6,0.6l-6.3,10.3l-2-4.1l-20.4,10.9l-1.3-2.7L-309.6,275.2z"
			/>
	</g>
	<g id="SpeedResistance_Arc_1_" transform="translate(622.000000, 128.000000)">
		<path id="Combined-Shape_48_" class="st2" d="M-372.6,318.7l3.5,4.7l-1.2,0.8l-3.5-4.7c-1.1,1-1.8,2.4-1.8,4h-2.9
			c0-2.5,1.1-4.8,3-6.3l-2.7-3.5c-0.6,0.5-1.2,1.1-1.8,1.7l-1.1-0.9c0.6-0.7,1.3-1.4,2-2l0.1,0.1l-6.1-8.1l1.2-0.8l9.5,12.6
			c1.3-0.8,2.9-1.3,4.6-1.3c4.8,0,8.8,3.8,8.8,8.4h-2.9c0-3.1-2.6-5.6-5.8-5.6C-370.8,317.9-371.8,318.2-372.6,318.7z M-383,323.5
			h-1.5c0-0.5,0-1,0.1-1.5l1.4,0.1C-383,322.6-383,323.1-383,323.5z M-371,310.8l-0.1-1.4c0.9-0.1,1.9-0.1,2.9,0l-0.1,1.4
			C-369.3,310.7-370.2,310.7-371,310.8z M-363.5,312.2c-0.8-0.4-1.6-0.7-2.4-0.9l0.4-1.3c0.9,0.3,1.8,0.6,2.7,1.1L-363.5,312.2z
			 M-376,312.3l-0.7-1.2c0.8-0.4,1.7-0.8,2.7-1.1l0.4,1.3C-374.4,311.5-375.2,311.9-376,312.3z M-359.5,315.4
			c-0.6-0.6-1.2-1.2-1.8-1.8l0.9-1.1c0.7,0.6,1.4,1.2,2,1.9L-359.5,315.4z M-357.1,319.7c-0.3-0.8-0.6-1.6-1-2.3l1.3-0.7
			c0.5,0.8,0.8,1.7,1.1,2.6L-357.1,319.7z M-382.4,319.8l-1.4-0.4c0.3-0.9,0.7-1.7,1.1-2.6l1.3,0.7
			C-381.8,318.2-382.2,319-382.4,319.8z M-355,323.5h-1.5c0-0.4,0-0.9-0.1-1.3l1.4-0.1C-355,322.5-355,323-355,323.5z"/>
	</g>
	<g id="Time_Cycle_1_" transform="translate(677.000000, 127.000000)">
		<path id="Combined-Shape_49_" class="st2" d="M-411.3,362v-30h0.8v30H-411.3z M-425.2,362v-30h1.5v30H-425.2z M-418,362v-30h0.8
			v30H-418z M-439.5,362v-30h3.1v30H-439.5z M-432,362v-30h1.5v30H-432z"/>
	</g>
	<g id="Tirone_Levels_1_" transform="translate(732.000000, 127.000000)">
		<path id="Combined-Shape_50_" class="st2" d="M-493.4,387.5V386h26.9v1.5H-493.4z M-493.4,370.7v-1.5h26.9v1.5H-493.4z
			 M-490.2,376v-0.8h20.4v0.8H-490.2z M-490,381.6v-0.7h20v0.7H-490z M-495,394v-30h30v30H-495z M-493.5,392.5h27v-27h-27V392.5z"/>
	</g>
	<g id="Trend_Line_1_" transform="translate(787.000000, 127.000000)">
		<path id="Combined-Shape_51_" class="st2" d="M-538.3,402.7h-2.3v6.2h-1.4v-6.2h-2.2v-1.2h5.9V402.7z M-550,413.7v-17.4h17.3v17.4
			H-550z M-548.5,412.3h14.4v-14.5h-14.4V412.3z M-539.7,423.5l17.9-14.7l1.8,2.2l-17.9,14.7L-539.7,423.5z"/>
	</g>
	<g id="SpeedResistance_Line_1_" transform="translate(842.000000, 127.000000)">
		<path id="Combined-Shape_52_" class="st2" d="M-600.1,454.3l2-1l0.6,1.2l-2.3,1.2l-0.6-1.1l-1.2,1.2l-0.9,1.8l-0.5-0.2l-0.5,0.2
			l-0.3-0.6l-1.3-0.6l14-27.8l2.5,1.2l-11.2,22.2l23.6-23.3l1,1L-600.1,454.3z M-581.1,446.4l-0.6-1.2l2.3-1.2l0.6,1.2L-581.1,446.4
			z M-585.8,448.8l-0.6-1.2l2.3-1.2l0.6,1.2L-585.8,448.8z M-590.5,451.1l-0.6-1.2l2.3-1.2l0.6,1.2L-590.5,451.1z M-595.1,453.4
			l-0.6-1.2l2.3-1.2l0.6,1.2L-595.1,453.4z M-577.1,442.9l1.3-0.6l0.6,1.2l-1.3,0.6L-577.1,442.9z"/>
	</g>
	<g id="Direct_Select2_1_" transform="translate(345.000000, 218.000000)">
		<path id="Combined-Shape_53_" class="st2" d="M-88.3,583.1l-6.2,6.6l-7.6-22.9l22.9,7.6l-6.6,6.2l7.9,7.9l-2.5,2.5L-88.3,583.1z
			 M-96.6,572.4l3.6,10.7l3.4-3.6l0.1-0.1l0.1-0.1l3.6-3.4L-96.6,572.4z M-108,561h9.2v4.3h-1.7v-2.6h-5.7v5.7h2.6v1.7h-4.4V561z"/>
	</g>
	<g id="Measure" transform="translate(16.000000, 182.000000)">
		<path id="Combined-Shape_54_" d="M200.6,417.4l-1.6,1.6l3.1,3.1l-1,1l-3.1-3.1l-1.6,1.6l3.1,3.1l-1,1l-3.1-3.1l-1.6,1.6l3.1,3.1
			l-1,1l-3.1-3.1l-1.6,1.6l5.8,5.8l20-20l-5.8-5.8l-1.6,1.6l3.1,3.1l-1,1l-3.1-3.1l-1.6,1.6l3.1,3.1l-1,1l-3.1-3.1l-1.6,1.6l3.1,3.1
			l-1,1l-3.1-3.1l-1.6,1.6l3.1,3.1l-1,1L200.6,417.4z M211.1,404.8l7.9,7.9l-22.1,22.1l-7.9-7.9L211.1,404.8z"/>
	</g>
	<g id="Restore_Default" transform="translate(71.000000, 182.000000)">
		<path id="Combined-Shape_55_" d="M141.2,443.1l3.8,1.5l-9.1,7.4l-1.7-11.8l4.1,1.6c2.8-3.1,6.7-4.9,10.9-4.9
			c8.1,0,14.7,6.7,14.7,15c0,8.3-6.6,15-14.7,15v-3c6.5,0,11.8-5.4,11.8-12c0-6.6-5.3-12-11.8-12C146.2,440,143.4,441.1,141.2,443.1
			z M152.5,452c0,1.6-1.3,2.9-2.8,2.9c-1.6,0-2.8-1.3-2.8-2.9c0-1.6,1.3-2.9,2.8-2.9C151.2,449.1,152.5,450.4,152.5,452z"/>
	</g>
	<g id="Clear-Drawings" transform="translate(126.000000, 182.000000)">
		<path id="Combined-Shape_56_" d="M86.7,479.7V478h14.5v1.7H86.7z M90.3,476.9v-1.7h7.3v1.7H90.3z M87.9,481.1h12.3l-0.8,11.6H88.6
			L87.9,481.1z M88.8,482l0.7,9.9h9.2l0.7-9.9H88.8z M93.6,489.4V484h0.8v5.4H93.6z M91,489.4V484h0.8v5.4H91z M96.2,489.5v-5.4h0.8
			v5.4H96.2z"/>
	</g>
	<g id="Cancel-Copy" transform="translate(181.000000, 182.000000)">
		<g id="Cancel">
			<path id="Combined-Shape_57_" d="M29.7,523.2l16.6-16.9c-2-1.6-4.5-2.5-7.2-2.5c-6.5,0-11.8,5.4-11.8,12
				C27.2,518.6,28.1,521.2,29.7,523.2z M31.8,525.3c2,1.6,4.5,2.5,7.2,2.5c6.5,0,11.8-5.4,11.8-12c0-2.8-0.9-5.3-2.5-7.4L31.8,525.3
				z M39,530.8c-8.1,0-14.7-6.7-14.7-15c0-8.3,6.6-15,14.7-15c8.1,0,14.7,6.7,14.7,15C53.7,524.1,47.1,530.8,39,530.8z"/>
		</g>
	</g>
	<g id="Undo" transform="translate(236.000000, 187.000000)">
		<path id="Combined-Shape_58_" d="M-23.8,541.3l3.8,1.5l-9,7.9l-2.1-12.1l4.2,1.6c2.6-3.2,6.4-4.9,11.1-4.9
			c14.5,0,14.7,15.3,14.7,15.4h-2.9h1.5l-1.5,0c0-0.5-0.2-12.4-11.8-12.4C-19.1,538.3-21.8,539.3-23.8,541.3z"/>
	</g>
	<g id="Redo" transform="translate(291.000000, 188.000000)">
		<path id="Combined-Shape_59_" d="M-60.2,571.3l4.2-1.5l-2.1,11.3l-9-7.4l3.8-1.4c-2-1.8-4.7-2.8-8.1-2.8
			c-11.6,0-11.8,11.1-11.8,11.5H-86c0-0.1,0.2-14.4,14.7-14.4C-66.6,566.7-62.8,568.3-60.2,571.3z"/>
	</g>
	<g id="Measure_1_" transform="translate(15.000000, 218.000000)">
		<path id="Combined-Shape_60_" class="st2" d="M233.6,381.6l-1.6,1.6l3.1,3.1l-1,1l-3.1-3.1l-1.6,1.6l3.1,3.1l-1,1l-3.1-3.1
			l-1.6,1.6l3.1,3.1l-1,1l-3.1-3.1l-1.6,1.6l5.8,5.8l20-20l-5.8-5.8l-1.6,1.6l3.1,3.1l-1,1l-3.1-3.1l-1.6,1.6l3.1,3.1l-1,1l-3.1-3.1
			l-1.6,1.6l3.1,3.1l-1,1l-3.1-3.1l-1.6,1.6l3.1,3.1l-1,1L233.6,381.6z M244.1,369l7.9,7.9L229.9,399l-7.9-7.9L244.1,369z"/>
	</g>
	<g id="Restore_Default_1_" transform="translate(70.000000, 217.000000)">
		<path id="Combined-Shape_61_" class="st2" d="M174.2,408.1l3.8,1.5l-9.1,7.4l-1.7-11.8l4.1,1.6c2.8-3.1,6.7-4.9,10.9-4.9
			c8.1,0,14.7,6.7,14.7,15c0,8.3-6.6,15-14.7,15v-3c6.5,0,11.8-5.4,11.8-12c0-6.6-5.3-12-11.8-12C179.2,405,176.4,406.1,174.2,408.1
			z M185.5,417c0,1.6-1.3,2.9-2.8,2.9c-1.6,0-2.8-1.3-2.8-2.9s1.3-2.9,2.8-2.9C184.2,414.1,185.5,415.4,185.5,417z"/>
	</g>
	<g id="Clear-Drawings_1_" transform="translate(125.000000, 217.000000)">
		<path id="Combined-Shape_62_" class="st2" d="M119.7,444.7V443h14.5v1.7H119.7z M123.3,442v-1.7h7.3v1.7H123.3z M120.9,446.2h12.3
			l-0.8,11.6h-10.7L120.9,446.2z M121.8,447l0.7,9.9h9.2l0.7-9.9H121.8z M126.6,454.5v-5.4h0.8v5.4H126.6z M124,454.5v-5.4h0.8v5.4
			H124z M129.2,454.6v-5.4h0.8v5.4H129.2z"/>
	</g>
	<g id="Undo_1_" transform="translate(235.000000, 221.000000)">
		<path id="Combined-Shape_63_" class="st2" d="M9.2,507.3l3.8,1.5l-9,7.9L2,504.6l4.2,1.6c2.6-3.2,6.4-4.9,11.1-4.9
			c14.5,0,14.7,15.3,14.7,15.4h-2.9h1.5l-1.5,0c0-0.5-0.2-12.4-11.8-12.4C13.9,504.4,11.2,505.4,9.2,507.3z"/>
	</g>
	<g id="Redo_1_" transform="translate(290.000000, 222.000000)">
		<path id="Combined-Shape_64_" class="st2" d="M-27.2,537.4l4.2-1.5l-2.1,11.3l-9-7.4l3.8-1.4c-2-1.8-4.7-2.8-8.1-2.8
			c-11.6,0-11.8,11.1-11.8,11.5H-53c0-0.1,0.2-14.4,14.7-14.4C-33.6,532.8-29.8,534.4-27.2,537.4z"/>
	</g>
	<g id="Cancel_1_" transform="translate(180.000000, 218.000000)">
		<path id="Combined-Shape_65_" class="st2" d="M62.7,487.4l16.6-16.9c-2-1.6-4.5-2.5-7.2-2.5c-6.5,0-11.8,5.4-11.8,12
			C60.2,482.8,61.1,485.3,62.7,487.4z M64.8,489.5c2,1.6,4.5,2.5,7.2,2.5c6.5,0,11.8-5.4,11.8-12c0-2.8-0.9-5.3-2.5-7.4L64.8,489.5z
			 M72,495c-8.1,0-14.7-6.7-14.7-15c0-8.3,6.6-15,14.7-15c8.1,0,14.7,6.7,14.7,15C86.7,488.3,80.1,495,72,495z"/>
	</g>
	<g id="Crosshair" transform="translate(237.000000, 15.000000)">
		<path id="Combined-Shape_3_" d="M-16.2-401.1h-15.5v-3.2h15.5v-15.8h3.1v15.8h10.9v3.2h-10.9v11.1h-3.1V-401.1z"/>
	</g>
	<g id="Text_Annotation_2_" transform="translate(17.000000, 16.000000)">
		<path id="Combined-Shape_98_" class="st3" d="M272-538.1h-3.9v10.8h-2.5v-10.8h-3.9v-2H272V-538.1z M252-519v-30h30v30H252z
			 M255-522h24v-24h-24V-522z"/>
	</g>
	<g id="Average_Line_2_" transform="translate(72.000000, 17.000000)">
		<path id="Combined-Shape_97_" class="st3" d="M198.5-504.9h24.3h2.7v-9.1h1.5v9.1v3.5v9.4h-1.5v-9.4h-27v9.4H197v-9.4v-3.5v-9.1
			h1.5V-504.9z"/>
	</g>
	<g id="Callout_2_" transform="translate(127.000000, 16.000000)">
		<path id="Fill-1_14_" class="st3" d="M166-485.1h-18c-3.3,0-6,2.7-6,6v9.8c0,3.3,2.7,6,6,6v8.2l9-8.2h9c3.3,0,6-2.7,6-6v-9.8
			C172-482.4,169.3-485.1,166-485.1 M166-482.1c1.7,0,3,1.3,3,3v9.8c0,1.7-1.3,3-3,3h-9h-1.2l-0.9,0.8l-4,3.6v-1.4v-3h-3
			c-1.7,0-3-1.3-3-3v-9.8c0-1.7,1.3-3,3-3H166"/>
	</g>
	<g id="Channel_2_" transform="translate(182.000000, 16.000000)">
		<path id="Combined-Shape_96_" class="st3" d="M115.7-453l1.3,2.6L88.3-436l-1.3-2.6L115.7-453z M87-425.7l28.7-14.4l1.3,2.6
			l-28.7,14.4L87-425.7z"/>
	</g>
	<g id="LineSans_Doodle_2_" transform="translate(292.000000, 18.000000)">
		<path id="Fill-1_13_" class="st3" d="M-13.3-377.7C-13.3-377.7-13.3-377.6-13.3-377.7c-0.8,1.7-1.2,3.7-1,5.5
			c0.2,1.4,0.8,2.3,1.1,2.5c0.4-0.3,1-1.5,1-3.2C-12.1-374.5-12.6-376.2-13.3-377.7 M-13.2-366.8c-0.6,0-1.2-0.2-1.7-0.5
			c-1.2-0.8-2.1-2.5-2.3-4.5c-0.3-2.3,0.1-4.9,1.2-7c0.2-0.4,0.4-0.8,0.7-1.2c-0.6-0.4-1.2-0.5-1.7-0.3c-1.2,0.4-2.6,2.4-3,5.3
			l-2.9-0.3c0.5-3.8,2.5-6.9,5-7.7c1.5-0.5,3.1-0.2,4.5,0.8c0.3-0.3,0.6-0.6,0.9-0.8c1.2-1,2.6-2,4.3-2c2,0,3.7,1.4,4.4,3.6
			c0.5,1.7,0.5,2.2,0.4,3.3c0,0.3-0.1,0.8-0.1,1.4c-0.1,1.2,0.1,1.4,0.1,1.5c0.1,0.1,0.3,0.2,0.5,0.3c0.2-0.1,0.4-0.4,0.7-0.9
			c0.3-0.5,0.5-0.9,0.7-1.2c0.3-0.5,0.5-0.8,0.7-1.5c0.8-2.5,1.9-3.9,3.3-4.5c1.7-0.8,3.4-0.3,4.6,0.1l-1,2.7
			c-1.1-0.4-1.9-0.4-2.4-0.2c-0.6,0.3-1.2,1.3-1.8,2.9c-0.3,1-0.7,1.6-1,2.1c-0.2,0.3-0.3,0.6-0.5,1c-0.4,0.7-1.2,2-2.5,2.5
			c-0.7,0.2-1.4,0.1-2-0.2c-1.8-1-2.4-1.8-2.3-4.5c0-0.7,0.1-1.2,0.1-1.6c0.1-0.8,0.1-1-0.3-2.1c-0.4-1.1-1-1.6-1.5-1.6h0
			c-0.7,0-1.7,0.7-2.4,1.3c-0.3,0.2-0.6,0.5-0.9,0.8c0.2,0.3,0.4,0.5,0.5,0.8c1.1,1.9,1.7,4.3,1.7,6.5c-0.1,2.5-1.2,5.5-3.4,6
			C-12.8-366.9-13-366.8-13.2-366.8"/>
	</g>
	<g id="LineSans_Horizontal_2_" transform="translate(347.000000, 16.000000)">
		<polygon class="st3" points="-78,-340.5 -48,-340.5 -48,-343.5 -78,-343.5 		"/>
	</g>
	<g id="LineSans_2_" transform="translate(402.000000, 18.000000)">
		<polygon class="st3" points="-104.5,-322 -133,-304.5 -131.5,-302 -103,-319.5 		"/>
	</g>
	<g id="LineSans_Segment_2_" transform="translate(457.000000, 16.000000)">
		<path id="Combined-Shape_95_" class="st3" d="M-180.4-281.2l0.4-1.4l11,3.2l-0.4,1.4L-180.4-281.2z M-168.3-275.2v-1h1.4v1H-168.3
			z M-171.1-275.2v-1h1.4v1H-171.1z M-174-275.2v-1h1.4v1H-174z M-176.8-275.2v-1h1.4v1H-176.8z M-179.7-275.2v-1h1.4v1H-179.7z
			 M-166.6-287.4v-1.1h0.7v1.1H-166.6z M-166.6-284.7v-1.4h1v1.4H-166.6z M-166.6-281.9v-1.4h1v1.4H-166.6z M-166.6-279.2v-1.4h1
			v1.4H-166.6z M-166.6-276.4v-1.4h1v1.4H-166.6z M-166.6-274v-1.1h0.7v1.1H-166.6z"/>
	</g>
	<g id="LineSans_Continuouos_2_" transform="translate(512.000000, 21.000000)">
		<polygon class="st3" points="-215.1,-258 -221.5,-250.9 -228.1,-254 -235.4,-248.1 -240.6,-256.1 -243,-254.7 -236,-244 
			-227.7,-250.8 -220.8,-247.5 -213,-256.2 		"/>
	</g>
	<g id="LineSans_Vertical_2_" transform="translate(567.000000, 16.000000)">
		<polygon class="st3" points="-285,-199.1 -281,-199.1 -281,-229.1 -285,-229.1 		"/>
	</g>
	<g id="Shape_Elipse_2_" transform="translate(609.000000, 17.000000)">
		<path id="Fill-1_12_" class="st3" d="M-325-194.1c-8.3,0-15,4.9-15,11c0,6.1,6.7,11,15,11s15-4.9,15-11
			C-310-189.2-316.7-194.1-325-194.1 M-325-191.2c6.5,0,12,3.7,12,8.1c0,4.4-5.5,8.1-12,8.1s-12-3.7-12-8.1
			C-337-187.5-331.5-191.2-325-191.2"/>
	</g>
	<g id="Fib_Retracement_2_" transform="translate(664.000000, 16.000000)">
		<path id="Combined-Shape_94_" class="st3" d="M-368-162.7v-2h2.8v2H-368z M-373.6-162.7v-2h2.8v2H-373.6z M-382.9-149.7v-1.4h17.2
			v1.4H-382.9z M-367.1-135.5v-2h2.1v2H-367.1z M-372.7-135.5v-2h2.8v2H-372.7z M-378.3-135.5v-2h2.8v2H-378.3z M-383.8-135.5v-2
			h2.8v2H-383.8z M-389.4-135.5v-2h2.8v2H-389.4z M-395-135.5v-2h2.8v2H-395z M-388.6-142.2v-2.9h22.9v2.9H-388.6z M-377.2-155.2
			v-2.9h11.5v2.9H-377.2z"/>
	</g>
	<g id="Fib_Projection_2_" transform="translate(719.000000, 16.000000)">
		<path id="Combined-Shape_93_" class="st3" d="M-449.3-104.3v-1.4h2.1v1.4H-449.3z M-428-103.7v-2.1h2.8v2.1H-428z M-433.5-103.7
			v-2.1h2.8v2.1H-433.5z M-439-103.7v-2.1h2.8v2.1H-439z M-444.5-103.7v-2.1h2.8v2.1H-444.5z M-422.5-104.3v-1.4h2.1v1.4H-422.5z
			 M-437.4-117.5v-2.1h2.8v2.1H-437.4z M-443.1-117.5v-2.1h2.8v2.1H-443.1z M-433.2-111.3v-1.4h2.1v1.4H-433.2z M-428.4-111.3v-1.4
			h2.8v1.4H-428.4z M-422.9-111.3v-1.4h2.1v1.4H-422.9z M-448.9-111.3v-1.4h2.8v1.4H-448.9z M-448.7-129.6v-2.8h28.3v2.8H-448.7z
			 M-448.7-124.6v-1.4h21.9v1.4H-448.7z M-439.4-112.8l17.6-14l1.8,2.1l-19.5,15.5l-10.5-9.6l1.9-2L-439.4-112.8z"/>
	</g>
	<g id="Fib_Arc_1_" transform="translate(774.000000, 16.000000)">
		<path id="Combined-Shape_92_" class="st3" d="M-484.4-74.1h-1.3v-0.7c0-2.3-1.9-4.3-4.3-4.3s-4.3,1.9-4.3,4.3v0.7h-1.3v-0.7
			c0-3.1,2.5-5.6,5.6-5.6c3.1,0,5.6,2.5,5.6,5.6V-74.1z M-491.3-83.9l-0.1-1.3l0.7,0c0.2,0,0.5,0,0.7,0c0.2,0,0.4,0,0.7,0l0.7,0
			l-0.1,1.3l-0.7,0c-0.2,0-0.4,0-0.6,0c-0.2,0-0.4,0-0.6,0L-491.3-83.9z M-485.4-82.8L-486-83c-0.4-0.2-0.7-0.3-1.1-0.5l-0.6-0.2
			l0.4-1.2l0.6,0.2c0.4,0.1,0.9,0.3,1.3,0.5l0.6,0.3L-485.4-82.8z M-494.7-82.7l-0.6-1.2l0.6-0.3c0.4-0.2,0.8-0.4,1.3-0.5l0.6-0.2
			l0.4,1.2l-0.6,0.2c-0.4,0.1-0.7,0.3-1.1,0.5L-494.7-82.7z M-482.7-80.4l-0.4-0.5c-0.3-0.3-0.5-0.6-0.9-0.8l-0.5-0.4l0.9-1l0.5,0.4
			c0.3,0.3,0.7,0.6,1,1l0.4,0.5L-482.7-80.4z M-497.3-80.4l-1-0.9l0.4-0.5c0.3-0.3,0.6-0.7,1-1l0.5-0.4l0.9,1l-0.5,0.4
			c-0.3,0.3-0.6,0.5-0.8,0.8L-497.3-80.4z M-481.1-77.2l-0.2-0.6c-0.1-0.4-0.3-0.7-0.5-1.1l-0.3-0.6l1.2-0.6l0.3,0.6
			c0.2,0.4,0.4,0.8,0.5,1.3l0.2,0.6L-481.1-77.2z M-498.9-77.1l-1.2-0.4l0.2-0.6c0.1-0.4,0.3-0.9,0.5-1.3l0.3-0.6l1.2,0.6l-0.3,0.6
			c-0.2,0.4-0.3,0.7-0.5,1.1L-498.9-77.1z M-479.5-74.1h-1.3v-0.7c0-0.2,0-0.4,0-0.6l0-0.7l1.3-0.1l0,0.7c0,0.2,0,0.5,0,0.7V-74.1z
			 M-488-88.8l-0.7-0.1c-0.4,0-0.8-0.1-1.3-0.1l-0.7,0l0-1.3l0.7,0c0.5,0,0.9,0,1.4,0.1l0.7,0.1L-488-88.8z M-494.3-88.2l-0.3-1.3
			l0.6-0.2c0.4-0.1,0.9-0.2,1.3-0.3l0.6-0.1l0.2,1.3l-0.6,0.1c-0.4,0.1-0.8,0.2-1.2,0.3L-494.3-88.2z M-484.4-87.7L-485-88
			c-0.4-0.1-0.8-0.3-1.2-0.4l-0.6-0.2l0.4-1.3l0.6,0.2c0.4,0.1,0.9,0.3,1.3,0.4l0.6,0.2L-484.4-87.7z M-497.7-86.7l-0.7-1.1l0.6-0.3
			c0.4-0.2,0.8-0.4,1.2-0.6l0.6-0.3l0.6,1.2l-0.6,0.3c-0.4,0.2-0.7,0.4-1.1,0.6L-497.7-86.7z M-481.2-85.8l-0.5-0.4
			c-0.3-0.2-0.7-0.5-1-0.7l-0.6-0.3l0.7-1.1l0.6,0.3c0.4,0.2,0.8,0.5,1.1,0.8l0.5,0.4L-481.2-85.8z M-500.5-84.2l-0.9-0.9l0.5-0.5
			c0.3-0.3,0.7-0.6,1-0.9l0.5-0.4l0.8,1l-0.5,0.4c-0.3,0.3-0.6,0.6-0.9,0.9L-500.5-84.2z M-478.6-83.1l-0.4-0.5
			c-0.3-0.3-0.5-0.6-0.8-0.9l-0.5-0.5l0.9-0.9l0.5,0.5c0.3,0.3,0.6,0.7,0.9,1l0.4,0.5L-478.6-83.1z M-502.6-81.1l-1.1-0.6l0.3-0.6
			c0.2-0.4,0.5-0.8,0.7-1.2l0.4-0.5l1.1,0.7l-0.4,0.5c-0.2,0.3-0.5,0.7-0.7,1.1L-502.6-81.1z M-477.1-80.5l-0.3-0.6
			c-0.1-0.2-0.2-0.3-0.2-0.4l-0.3-0.6l1.2-0.6l0.3,0.6c0.1,0.2,0.2,0.3,0.3,0.5l0.3,0.6L-477.1-80.5z M-503.2-89.5l-1.8-1.9l1-0.9
			c3.8-3.6,8.8-5.6,14-5.6c5.2,0,10.2,2,14,5.6l1,0.9l-1.8,1.9l-1-0.9c-3.3-3.1-7.7-4.9-12.2-4.9c-4.6,0-8.9,1.7-12.2,4.9
			L-503.2-89.5z"/>
		<path id="Fill-3_2_" class="st3" d="M-499.2-74.1h-1.3v-0.7c0-0.2,0-0.5,0-0.7l0-0.7l1.3,0.1l0,0.7c0,0.2,0,0.4,0,0.6V-74.1z"/>
	</g>
	<g id="Fib_Fan_2_" transform="translate(829.000000, 16.000000)">
		<path id="Combined-Shape_91_" class="st3" d="M-552.1-48.9l18.6-17.7l1,1L-554-45.1l-1.4,2.8h25.3v2.9h-30l14.6-29.2l2.6,1.3
			L-552.1-48.9z M-552.5-43.1l-0.7-1.2l1.9-1.1l0.7,1.2L-552.5-43.1z M-537.5-51.9l-0.7-1.2l2.5-1.5l0.7,1.2L-537.5-51.9z
			 M-542.8-48.8l-0.7-1.2l2.5-1.5l0.7,1.2L-542.8-48.8z M-548-45.7l-0.7-1.2l2.5-1.5l0.7,1.2L-548-45.7z M-533-56.2l1.9-1.1l0.7,1.2
			l-1.9,1.1L-533-56.2z M-535.7-45.4l-0.3-1.4l2.8-0.7l0.3,1.4L-535.7-45.4z M-541.3-44l-0.3-1.4l2.8-0.7l0.3,1.4L-541.3-44z
			 M-546.9-42.7l-0.3-1.4l2.8-0.7l0.3,1.4L-546.9-42.7z"/>
	</g>
	<g id="Fib_TimeZones_2_" transform="translate(884.000000, 15.000000)">
		<path id="Combined-Shape_90_" class="st3" d="M-600.4-26.3v-2.2h1.4v2.2H-600.4z M-600.4-30v-2.4h1.4v2.4H-600.4z M-600.4-33.9
			v-2.2h1.4v2.2H-600.4z M-600.4-6.1v-2.2h1.4v2.2H-600.4z M-600.4-10.7v-2.7h1.4v2.7H-600.4z M-600.4-15.8V-18h1.4v2.2H-600.4z
			 M-594-30.5v-2.2h1.4v2.2H-594z M-594-33.9v-2.2h1.4v2.2H-594z M-594-6.1v-2.2h1.4v2.2H-594z M-594-11.1V-14h1.4v2.9H-594z
			 M-594-16.8V-19h1.4v2.2H-594z M-587.7-6.4v-2.2h1.4v2.2H-587.7z M-587.7-28.3v-2.9h1.4v2.9H-587.7z M-587.7-22.6v-2.8h1.4v2.8
			H-587.7z M-587.7-17v-2.9h1.4v2.9H-587.7z M-587.7-11.3v-2.9h1.4v2.9H-587.7z M-587.7-33.9v-2.2h1.4v2.2H-587.7z M-610.9-18.8
			l20.6-8.6l1,2.5l-21.6,9v9.1h-2.8v-28.8h2.8V-18.8z M-606.7-6.4v-9.1h1.4v9.1H-606.7z M-606.7-22.7v-13.3h1.4v13.3H-606.7z"/>
	</g>
	<g id="Gann_Fan_2_" transform="translate(939.000000, 16.000000)">
		<path id="Combined-Shape_89_" class="st3" d="M-660-1.3l-0.4,0.8l-1.2-0.7l1.2-2.2l-0.3-1l2.7-0.8l0.3,1l0.2-0.3l2.3,1.6l-0.8,1.1
			l-1.2-0.9l0.1,0.4l16.9,23l-1.1,0.8l-14.6-20l6.4,22.3l-2.7,0.8L-659,1.6l-3.3,22.4l-1.4-0.2L-660-1.3z M-653.8,0.1l0.8-1.1
			l2.3,1.6l-0.8,1.1L-653.8,0.1z M-664.3,3.7l1.3-2.4l1.2,0.7l-1.3,2.4L-664.3,3.7z M-649.3,3.3l0.8-1.1l2.3,1.6l-0.8,1.1
			L-649.3,3.3z M-644.8,6.6l0.8-1.1l2.3,1.6l-0.8,1.1L-644.8,6.6z M-667,8.6l1.3-2.4l1.2,0.7l-1.3,2.4L-667,8.6z M-669.7,13.5
			l1.3-2.4l1.2,0.7l-1.3,2.4L-669.7,13.5z"/>
	</g>
	<g id="Gartley_2_" transform="translate(994.000000, 15.000000)">
		<path id="Combined-Shape_88_" class="st3" d="M-710.3,41.9l-5-8.9l-6.8,8l-2.2-1.9l9.5-11.2l16.2,28.5l-2.5,1.5l-8-14.1h-1.2
			L-710.3,41.9L-710.3,41.9z M-715.9,43.3v-1.5h2.2v1.5H-715.9z M-704.1,43.8v-1.9h3v1.9H-704.1z M-697.8,43.3v-1.5h2.2v1.5H-697.8z
			"/>
	</g>
	<g id="Pitchfork_2_" transform="translate(17.000000, 91.000000)">
		<path id="Combined-Shape_87_" class="st3" d="M268.9-1.1l5.5,5.5l5.6-5.6l2,2l-7.5,7.5l-2-2l0,0L267,0.8L254,13.8l-2-2l13.1-13.1
			l-4.6-4.6l0,0l-2-2l8.5-8.5l2,2l-6.5,6.5l4.6,4.6L280-16.2l2,2L268.9-1.1z"/>
	</g>
	<g id="Quadrant_Lines_2_" transform="translate(72.000000, 91.000000)">
		<path id="Combined-Shape_86_" class="st3" d="M198.2,32.3v-3h27.6v3H198.2z M197,45.3v-1.5h2.3v1.5H197z M219,45.8v-2h2.9v2H219z
			 M213.4,45.8v-2h2.9v2H213.4z M207.7,45.8v-2h2.9v2H207.7z M202,45.8v-2h2.9v2H202z M224.7,45.3v-1.5h2.3v1.5H224.7z M197,17.7
			v-1.5h2.3v1.5H197z M219,18.2v-2h2.9v2H219z M213.4,18.2v-2h2.9v2H213.4z M207.7,18.2v-2h2.9v2H207.7z M202,18.2v-2h2.9v2H202z
			 M224.7,17.7v-1.5h2.3v1.5H224.7z M198.2,23.1v-1.5h27.6v1.5H198.2z M198.5,39.9v-1.5h27.1v1.5H198.5z"/>
	</g>
	<g id="Ray_2_" transform="translate(127.000000, 91.000000)">
		<path id="Combined-Shape_85_" class="st3" d="M165.1,56h2.1v2h-2.7l-20.5,12.7l-1.4-2.4L159.2,58h-0.3v-2h2.8v0.5l1.4-0.9v-2.1h2
			V56z M170,58v-2h1.7v2H170z M153.4,58v-2h2.8v2H153.4z M147.8,58v-2h2.8v2H147.8z M142.3,58v-2h2.8v2H142.3z M163.1,50.7v-2.8h2
			v2.8H163.1z M163.1,62v-2.8h2V62H163.1z M163.1,67.6v-2.8h2v2.8H163.1z M163.1,73.3v-2.8h2v2.8H163.1z M163.1,77.8v-1.7h2v1.7
			H163.1z"/>
	</g>
	<g id="Shape_Rectangle_2_" transform="translate(182.000000, 93.000000)">
		<path id="Combined-Shape_84_" class="st3" d="M87,103.8v-22h30v22H87z M90,100.9h24V84.8H90V100.9z"/>
	</g>
	<g id="Regression_Line_2_" transform="translate(237.000000, 91.000000)">
		<path id="Combined-Shape_83_" class="st3" d="M60.5,124.6l-27,8.4v-3.5l27-8.4v-8.3H62V132h-1.5V124.6z M32,140.8v-19.2h1.5v19.2
			H32z"/>
	</g>
	<g id="Shape_Check_2_" transform="translate(292.000000, 93.000000)">
		<polygon id="Fill-1_11_" class="st3" points="3.4,145.8 -12.6,160.3 -19.3,153.9 -23,158 -12.7,167.8 7,150 		"/>
	</g>
	<g id="Shape_Cross_2_" transform="translate(347.000000, 91.000000)">
		<path id="Combined-Shape_82_" class="st3" d="M-63,188.5l12.5-12.5l2.5,2.4L-60.5,191l12.5,12.5l-2.4,2.5L-63,193.5L-75.5,206
			l-2.5-2.4l12.5-12.6L-78,178.5l2.4-2.5L-63,188.5z"/>
	</g>
	<g id="Shape_Focus_2_" transform="translate(402.000000, 92.000000)">
		<path id="Combined-Shape_81_" class="st3" d="M-133,208.8L-133,208.8l12.7,13.2l-12.7,13.2V208.8z M-130,216.3v11.4l5.4-5.7
			L-130,216.3z M-103,208.8L-103,208.8l0,26.5l-12.7-13.2L-103,208.8z M-111.4,222l5.4,5.7v-11.4L-111.4,222z"/>
	</g>
	<g id="Shape_Heart_2_" transform="translate(457.000000, 92.000000)">
		<path id="Fill-1_10_" class="st3" d="M-179.7,242.9c-0.9,0-1.8,0.2-2.7,0.7c-1.6,0.8-2.6,2.6-2.6,4.6v0.3c0,0.6,0.2,1.4,0.5,2.3
			c2.1,5.7,9.1,11.6,11.6,13.5c2.4-1.9,9.3-7.7,11.4-13.4c0.3-1,0.5-1.9,0.5-2.6v-0.2c0-1.9-1-3.7-2.6-4.5c-1.7-0.9-3.5-0.9-5-0.2
			c-1.5,0.7-2.6,2.1-2.9,3.7c-0.2,0.7-0.7,1.1-1.5,1.2c-0.7,0-1.3-0.5-1.4-1.2c-0.4-1.6-1.5-3-2.9-3.7
			C-178.1,243.1-178.9,242.9-179.7,242.9 M-172.9,267.7c-0.3,0-0.6-0.1-0.9-0.3c-0.4-0.3-10.7-7.8-13.5-15.5c0,0-0.1-0.1-0.1-0.2
			c-0.4-1.2-0.6-2.3-0.7-3.3v-0.3c0-3.1,1.7-6,4.3-7.3c2.5-1.3,5.2-1.3,7.6-0.2c1.2,0.6,2.3,1.5,3.1,2.6c0.8-1.1,1.9-2,3.1-2.6
			c2.4-1.2,5.1-1.1,7.6,0.2c2.6,1.3,4.2,4.2,4.2,7.3v0.2c0,1.1-0.3,2.3-0.7,3.6c-2.8,7.8-12.9,15.1-13.3,15.5
			C-172.3,267.6-172.6,267.7-172.9,267.7"/>
	</g>
	<g id="Shape_Star_2_" transform="translate(512.000000, 91.000000)">
		<path id="Combined-Shape_80_" class="st3" d="M-228,272.8l4.6,9.2l10.4,1.5l-7.5,7.2l1.8,10.1l-9.3-4.8l-9.3,4.8l1.8-10.1
			l-7.5-7.2l10.4-1.5L-228,272.8z M-232.7,291.1l-0.8,4.6l4.2-2.2l1.3-0.7l1.3,0.7l4.2,2.2l-0.8-4.6l-0.3-1.4l1.1-1l3.4-3.2
			l-4.7-0.7l-1.5-0.2l-0.7-1.3l-2.1-4.2l-2.1,4.2l-0.7,1.3l-1.5,0.2l-4.7,0.7l3.4,3.2l1.1,1L-232.7,291.1z"/>
	</g>
	<g id="Shape_Arrow_2_" transform="translate(567.000000, 94.000000)">
		<path id="Combined-Shape_79_" class="st3" d="M-277.6,311.3l-2-4.1l11.6,0.6l-6.3,10.3l-2-4.1l-20.4,10.9l-1.3-2.7L-277.6,311.3z"
			/>
	</g>
	<g id="SpeedResistance_Arc_2_" transform="translate(622.000000, 93.000000)">
		<path id="Combined-Shape_78_" class="st3" d="M-340.6,353.7l3.5,4.7l-1.2,0.8l-3.5-4.7c-1.1,1-1.8,2.4-1.8,4h-2.9
			c0-2.5,1.1-4.8,3-6.3l-2.7-3.5c-0.6,0.5-1.2,1.1-1.8,1.7l-1.1-0.9c0.6-0.7,1.3-1.4,2-2l0.1,0.1l-6.1-8.1l1.2-0.8l9.5,12.6
			c1.3-0.8,2.9-1.3,4.6-1.3c4.8,0,8.8,3.8,8.8,8.4h-2.9c0-3.1-2.6-5.6-5.8-5.6C-338.8,352.9-339.8,353.2-340.6,353.7z M-351,358.5
			h-1.5c0-0.5,0-1,0.1-1.5l1.4,0.1C-351,357.6-351,358.1-351,358.5z M-339,345.8l-0.1-1.4c0.9-0.1,1.9-0.1,2.9,0l-0.1,1.4
			C-337.3,345.7-338.2,345.7-339,345.8z M-331.5,347.2c-0.8-0.4-1.6-0.7-2.4-0.9l0.4-1.3c0.9,0.3,1.8,0.6,2.7,1.1L-331.5,347.2z
			 M-344,347.3l-0.7-1.2c0.8-0.4,1.7-0.8,2.7-1.1l0.4,1.3C-342.4,346.5-343.2,346.9-344,347.3z M-327.5,350.4
			c-0.6-0.6-1.2-1.2-1.8-1.8l0.9-1.1c0.7,0.6,1.4,1.2,2,1.9L-327.5,350.4z M-325.1,354.7c-0.3-0.8-0.6-1.6-1-2.3l1.3-0.7
			c0.5,0.8,0.8,1.7,1.1,2.6L-325.1,354.7z M-350.4,354.8l-1.4-0.4c0.3-0.9,0.7-1.7,1.1-2.6l1.3,0.7
			C-349.8,353.2-350.2,354-350.4,354.8z M-323,358.5h-1.5c0-0.4,0-0.9-0.1-1.3l1.4-0.1C-323,357.5-323,358-323,358.5z"/>
	</g>
	<g id="Time_Cycle_2_" transform="translate(677.000000, 91.000000)">
		<path id="Combined-Shape_77_" class="st3" d="M-379.3,397.8v-30h0.8v30H-379.3z M-393.2,397.8v-30h1.5v30H-393.2z M-386,397.8v-30
			h0.8v30H-386z M-407.5,397.8v-30h3.1v30H-407.5z M-400,397.8v-30h1.5v30H-400z"/>
	</g>
	<g id="Tirone_Levels_2_" transform="translate(732.000000, 91.000000)">
		<path id="Combined-Shape_76_" class="st3" d="M-461.4,423.5V422h26.9v1.5H-461.4z M-461.4,406.7v-1.5h26.9v1.5H-461.4z
			 M-458.2,411.9v-0.8h20.4v0.8H-458.2z M-458,417.5v-0.7h20v0.7H-458z M-463,430v-30h30v30H-463z M-461.5,428.5h27v-27h-27V428.5z"
			/>
	</g>
	<g id="Trend_Line_2_" transform="translate(787.000000, 91.000000)">
		<path id="Combined-Shape_75_" class="st3" d="M-506.3,438.5h-2.3v6.2h-1.4v-6.2h-2.2v-1.2h5.9V438.5z M-518,449.6v-17.4h17.3v17.4
			H-518z M-516.5,448.1h14.4v-14.5h-14.4V448.1z M-507.7,459.3l17.9-14.7l1.8,2.2l-17.9,14.7L-507.7,459.3z"/>
	</g>
	<g id="SpeedResistance_Line_2_" transform="translate(842.000000, 91.000000)">
		<path id="Combined-Shape_74_" class="st3" d="M-568.1,490.1l2-1l0.6,1.2l-2.3,1.2l-0.6-1.1l-1.2,1.2l-0.9,1.8l-0.5-0.2l-0.5,0.2
			l-0.3-0.6l-1.3-0.6l14-27.8l2.5,1.2l-11.2,22.2l23.6-23.3l1,1L-568.1,490.1z M-549.1,482.2l-0.6-1.2l2.3-1.2l0.6,1.2L-549.1,482.2
			z M-553.8,484.5l-0.6-1.2l2.3-1.2l0.6,1.2L-553.8,484.5z M-558.5,486.9l-0.6-1.2l2.3-1.2l0.6,1.2L-558.5,486.9z M-563.1,489.2
			l-0.6-1.2l2.3-1.2l0.6,1.2L-563.1,489.2z M-545.1,478.6l1.3-0.6l0.6,1.2l-1.3,0.6L-545.1,478.6z"/>
	</g>
	<g id="Direct_Select2_2_" transform="translate(346.000000, 182.000000)">
		<path id="Combined-Shape_73_" class="st3" d="M-57.3,619.1l-6.2,6.6l-7.6-22.9l22.9,7.6l-6.6,6.2l7.9,7.9l-2.5,2.5L-57.3,619.1z
			 M-65.6,608.4l3.6,10.7l3.4-3.6l0.1-0.1l0.1-0.1l3.6-3.4L-65.6,608.4z M-77,597h9.2v4.3h-1.7v-2.6h-5.7v5.7h2.6v1.7H-77V597z"/>
	</g>
	<g id="Measure_2_" transform="translate(16.000000, 182.000000)">
		<path id="Combined-Shape_72_" class="st3" d="M264.6,417.4l-1.6,1.6l3.1,3.1l-1,1l-3.1-3.1l-1.6,1.6l3.1,3.1l-1,1l-3.1-3.1
			l-1.6,1.6l3.1,3.1l-1,1l-3.1-3.1l-1.6,1.6l5.8,5.8l20-20l-5.8-5.8l-1.6,1.6l3.1,3.1l-1,1l-3.1-3.1l-1.6,1.6l3.1,3.1l-1,1l-3.1-3.1
			l-1.6,1.6l3.1,3.1l-1,1l-3.1-3.1l-1.6,1.6l3.1,3.1l-1,1L264.6,417.4z M275.1,404.8l7.9,7.9l-22.1,22.1l-7.9-7.9L275.1,404.8z"/>
	</g>
	<g id="Restore_Default_2_" transform="translate(71.000000, 182.000000)">
		<path id="Combined-Shape_71_" class="st3" d="M205.2,443.1l3.8,1.5l-9.1,7.4l-1.7-11.8l4.1,1.6c2.8-3.1,6.7-4.9,10.9-4.9
			c8.1,0,14.7,6.7,14.7,15c0,8.3-6.6,15-14.7,15v-3c6.5,0,11.8-5.4,11.8-12c0-6.6-5.3-12-11.8-12C210.2,440,207.4,441.1,205.2,443.1
			z M216.5,452c0,1.6-1.3,2.9-2.8,2.9c-1.6,0-2.8-1.3-2.8-2.9c0-1.6,1.3-2.9,2.8-2.9C215.2,449.1,216.5,450.4,216.5,452z"/>
	</g>
	<g id="Clear-Drawings_2_" transform="translate(126.000000, 182.000000)">
		<path id="Combined-Shape_70_" class="st3" d="M150.7,479.7V478h14.5v1.7H150.7z M154.3,476.9v-1.7h7.3v1.7H154.3z M151.9,481.1
			h12.3l-0.8,11.6h-10.7L151.9,481.1z M152.8,482l0.7,9.9h9.2l0.7-9.9H152.8z M157.6,489.4V484h0.8v5.4H157.6z M155,489.4V484h0.8
			v5.4H155z M160.2,489.5v-5.4h0.8v5.4H160.2z"/>
	</g>
	<g id="Cancel-Copy_1_" transform="translate(181.000000, 182.000000)">
		<g id="Cancel_2_">
			<path id="Combined-Shape_69_" class="st3" d="M93.7,523.2l16.6-16.9c-2-1.6-4.5-2.5-7.2-2.5c-6.5,0-11.8,5.4-11.8,12
				C91.2,518.6,92.1,521.2,93.7,523.2z M95.8,525.3c2,1.6,4.5,2.5,7.2,2.5c6.5,0,11.8-5.4,11.8-12c0-2.8-0.9-5.3-2.5-7.4L95.8,525.3
				z M103,530.8c-8.1,0-14.7-6.7-14.7-15c0-8.3,6.6-15,14.7-15c8.1,0,14.7,6.7,14.7,15C117.7,524.1,111.1,530.8,103,530.8z"/>
		</g>
	</g>
	<g id="Undo_2_" transform="translate(236.000000, 187.000000)">
		<path id="Combined-Shape_68_" class="st3" d="M40.2,541.3l3.8,1.5l-9,7.9L33,538.5l4.2,1.6c2.6-3.2,6.4-4.9,11.1-4.9
			c14.5,0,14.7,15.3,14.7,15.4h-2.9h1.5l-1.5,0c0-0.5-0.2-12.4-11.8-12.4C44.9,538.3,42.2,539.3,40.2,541.3z"/>
	</g>
	<g id="Redo_2_" transform="translate(291.000000, 188.000000)">
		<path id="Combined-Shape_67_" class="st3" d="M3.8,571.3l4.2-1.5l-2.1,11.3l-9-7.4l3.8-1.4c-2-1.8-4.7-2.8-8.1-2.8
			c-11.6,0-11.8,11.1-11.8,11.5H-22c0-0.1,0.2-14.4,14.7-14.4C-2.6,566.7,1.2,568.3,3.8,571.3z"/>
	</g>
	<g id="Crosshair_2_" transform="translate(237.000000, 15.000000)">
		<path id="Combined-Shape_66_" class="st3" d="M47.8-401.1H32.3v-3.2h15.5v-15.8h3.1v15.8h10.9v3.2H50.9v11.1h-3.1V-401.1z"/>
	</g>
	<g id="Crosshair_1_" transform="translate(237.000000, 49.000000)">
		<path id="Combined-Shape_7_" class="st2" d="M15.8-435.1H0.3v-3.2h15.5v-15.8h3.1v15.8h10.9v3.2H18.9v11.1h-3.1V-435.1z"/>
	</g>
</g>
</svg>
