<svg width="960" height="560" viewBox="0 0 960 560" fill="none" xmlns="http://www.w3.org/2000/svg">
<path d="M62 31C65.3 31 68 33.7 68 37C68 40.3 65.3 43 62 43C58.7 43 56 40.3 56 37C56 33.7 58.7 31 62 31ZM62 30C58.1 30 55 33.1 55 37C55 40.9 58.1 44 62 44C65.9 44 69 40.9 69 37C69 33.1 65.9 30 62 30Z" fill="black"/>
<path d="M67 42L71 46" stroke="black" stroke-miterlimit="10"/>
<path d="M62 56C65.3 56 68 58.7 68 62C68 65.3 65.3 68 62 68C58.7 68 56 65.3 56 62C56 58.7 58.7 56 62 56ZM62 55C58.1 55 55 58.1 55 62C55 65.9 58.1 69 62 69C65.9 69 69 65.9 69 62C69 58.1 65.9 55 62 55Z" fill="white"/>
<path d="M67 67L71 71" stroke="white" stroke-miterlimit="10"/>
<path d="M581 36.1H583.5L585.2 38.7L589.4 31H591.9L585.5 42H584.8L581 36.1Z" fill="#1461D4"/>
<path d="M581 62.1H583.5L585.2 64.7L589.4 57H591.9L585.5 68H584.8L581 62.1Z" fill="#85C730"/>
<path d="M118 46H119V30H118V46Z" fill="black"/>
<path d="M106 38H119V30H106L109 34L106 38Z" fill="black"/>
<path d="M118 71H119V55H118V71Z" fill="white"/>
<path d="M106 63H119V55H106L109 59L106 63Z" fill="white"/>
<path d="M542 39H532V37H542V39Z" fill="#1461D4"/>
<path d="M536 33H538V43H536" fill="#1461D4"/>
<path d="M220 40V34H224L217 27L210 34H214V40H220Z" fill="#231F20"/>
<g opacity="0.5">
<path opacity="0.5" d="M211 37V42V43H212H213.6L209 47.6L204.4 43H206H207V42V37H211ZM212 36H206V42H202L209 49L216 42H212V36Z" fill="#231F20"/>
</g>
<path d="M267.7 29L267 29.7L264.7 31.8L254 42.4V47H258.6L269.2 36.2L271.3 34L272 33.3L267.7 29ZM258.2 46H255V42.8L265.5 32.5L268.4 35.5L258.2 46Z" fill="black"/>
<path opacity="0.5" d="M257 46.5H271" stroke="#231F20" stroke-miterlimit="10"/>
<path d="M358 34.5H353V44.5H358V34.5Z" fill="black"/>
<path d="M355.5 31V48" stroke="black" stroke-miterlimit="10"/>
<path d="M365 31.5H360V41.5H365V31.5Z" fill="black"/>
<path d="M362.5 28V45" stroke="black" stroke-miterlimit="10"/>
<path d="M372 34.5H367V44.5H372V34.5Z" fill="black"/>
<path d="M369.5 31V48" stroke="black" stroke-miterlimit="10"/>
<path d="M170.2 31.7C170.2 31.7 172.4 33.9 172.8 34.3C173.3 34.8 172.9 35.4 172.3 35.4C171.8 35.4 170.8 35.4 170.8 35.4L165.9 40.3L165.8 43.5C165.8 43.5 165.8 43.9 165.4 44.2C165 44.4 164.5 44 164.5 44L161.9 41.4L156.9 46.4L154.8 47.2L155.6 45.1L160.6 40.1L158 37.5C158 37.5 157.6 37.1 157.8 36.6C158 36.2 158.5 36.2 158.5 36.2L161.6 36.1L166.5 31.2C166.5 31.2 166.5 30.2 166.5 29.7C166.5 29.1 167.1 28.8 167.6 29.2C168 29.6 170.2 31.7 170.2 31.7Z" fill="black"/>
<path opacity="0.5" d="M153 31.5H161" stroke="#231F20" stroke-miterlimit="10"/>
<path opacity="0.5" d="M153 33.5H161" stroke="#231F20" stroke-miterlimit="10"/>
<path opacity="0.5" d="M153 35.5H156" stroke="#231F20" stroke-miterlimit="10"/>
<path opacity="0.5" d="M153 29.5H161" stroke="#231F20" stroke-miterlimit="10"/>
<path d="M220 65V59H224L217 52L210 59H214V65H220Z" fill="white"/>
<path d="M211 62V67V68H212H213.6L209 72.6L204.4 68H206H207V67V62H211ZM212 61H206V67H202L209 74L216 67H212V61Z" fill="white"/>
<path opacity="0.5" d="M268 20.5H254" stroke="white" stroke-miterlimit="10"/>
<path d="M267.7 54L267 54.7L264.7 56.8L254 67.4V72H258.6L269.2 61.2L271.3 59L272 58.3L267.7 54ZM258.2 71H255V67.8L265.5 57.5L268.4 60.5L258.2 71Z" fill="white"/>
<path opacity="0.5" d="M257 71.5H271" stroke="white" stroke-miterlimit="10"/>
<path d="M358 59.5H353V69.5H358V59.5Z" fill="white"/>
<path d="M355.5 56V73" stroke="white" stroke-miterlimit="10"/>
<path d="M365 55.5H360V65.5H365V55.5Z" fill="white"/>
<path d="M362.5 53V70" stroke="white" stroke-miterlimit="10"/>
<path d="M372 59.5H367V69.5H372V59.5Z" fill="white"/>
<path d="M369.5 56V73" stroke="white" stroke-miterlimit="10"/>
<path d="M170.2 56.7C170.2 56.7 172.4 58.9 172.8 59.3C173.3 59.8 172.9 60.4 172.3 60.4C171.8 60.4 170.8 60.4 170.8 60.4L165.9 65.3L165.8 68.5C165.8 68.5 165.8 68.9 165.4 69.2C165 69.4 164.5 69 164.5 69L161.9 66.4L156.9 71.4L154.8 72.2L155.6 70.1L160.6 65.1L158 62.5C158 62.5 157.6 62.1 157.8 61.6C158 61.2 158.5 61.2 158.5 61.2L161.6 61.1L166.5 56.2C166.5 56.2 166.5 55.2 166.5 54.7C166.5 54.1 167.1 53.8 167.6 54.2C168 54.6 170.2 56.7 170.2 56.7Z" fill="white"/>
<path opacity="0.5" d="M153 56.5H161" stroke="white" stroke-miterlimit="10"/>
<path opacity="0.5" d="M153 58.5H161" stroke="white" stroke-miterlimit="10"/>
<path opacity="0.5" d="M153 60.5H156" stroke="white" stroke-miterlimit="10"/>
<path opacity="0.5" d="M153 54.5H161" stroke="white" stroke-miterlimit="10"/>
<path d="M320.2 30.4C320.2 31 319.7 31.4 319 31.4C318.4 31.4 318.1 31.2 317.9 30.9C317.8 30.7 317.7 30.4 317.7 30.1C317.7 29.9 317.5 29.7 317.2 29.7C316.8 29.7 316.3 30 316 30.3C315.3 30.9 314.9 32.1 314.6 33C314.5 33.4 314.3 33.8 314.2 34.2H316.2C316.5 34.2 316.8 34.2 316.8 34.4C316.8 34.5 316.8 34.6 316.7 34.8C316.7 35 316.3 35 316.1 35H314C313.1 37.7 312.1 40.5 311.2 43.3C310.8 44.6 310.2 45.8 309.3 46.8C308.2 47.9 306.6 48.6 305.2 48.6C303.9 48.6 303 48.1 303 47.2C303 46.6 303.4 46.1 304.2 46.1C304.9 46.1 305.3 46.5 305.4 46.9C305.4 47.1 305.4 47.2 305.4 47.4C305.4 47.7 305.4 48 305.8 48C306.2 48 306.8 47.6 307.1 47.1C307.7 46.2 308.3 44.5 308.6 43.5C309.6 40.6 310.6 37.8 311.5 35H310C309.7 35 309.5 35 309.5 34.8C309.5 34.6 309.6 34.5 309.6 34.4C309.7 34.2 309.9 34.2 310.2 34.2H311.7C312.2 32.8 312.8 31.4 314 30.4C315 29.6 316.6 28.9 317.9 28.9C319.3 29 320.2 29.4 320.2 30.4Z" fill="black"/>
<path d="M317.756 37.9942L319.375 35.3283H320.833L318.444 38.939L320.907 42.6307H319.463L317.776 39.8974L316.089 42.6307H314.638L317.101 38.939L314.712 35.3283H316.156L317.756 37.9942Z" fill="black"/>
<path d="M305.5 28V33" stroke="black" stroke-miterlimit="10"/>
<path d="M303 30.5H308" stroke="black" stroke-miterlimit="10"/>
<path d="M320.2 55.4C320.2 56 319.7 56.4 319 56.4C318.4 56.4 318.1 56.2 317.9 55.9C317.8 55.7 317.7 55.4 317.7 55.1C317.7 54.9 317.5 54.7 317.2 54.7C316.8 54.7 316.3 55 316 55.3C315.3 55.9 314.9 57.1 314.6 58C314.5 58.4 314.3 58.8 314.2 59.2H316.2C316.5 59.2 316.8 59.2 316.8 59.4C316.8 59.5 316.8 59.6 316.7 59.8C316.7 60 316.3 60 316.1 60H314C313.1 62.7 312.1 65.5 311.2 68.3C310.8 69.6 310.2 70.8 309.3 71.8C308.2 72.9 306.6 73.6 305.2 73.6C303.9 73.6 303 73.1 303 72.2C303 71.6 303.4 71.1 304.2 71.1C304.9 71.1 305.3 71.5 305.4 71.9C305.4 72.1 305.4 72.2 305.4 72.4C305.4 72.7 305.4 73 305.8 73C306.2 73 306.8 72.6 307.1 72.1C307.7 71.2 308.3 69.5 308.6 68.5C309.6 65.6 310.6 62.8 311.5 60H310C309.7 60 309.5 60 309.5 59.8C309.5 59.6 309.6 59.5 309.6 59.4C309.7 59.2 309.9 59.2 310.2 59.2H311.7C312.2 57.8 312.8 56.4 314 55.4C315 54.6 316.6 53.9 317.9 53.9C319.3 54 320.2 54.4 320.2 55.4Z" fill="white"/>
<path d="M317.756 62.9942L319.375 60.3283H320.833L318.444 63.939L320.907 67.6307H319.463L317.776 64.8974L316.089 67.6307H314.638L317.101 63.939L314.712 60.3283H316.156L317.756 62.9942Z" fill="white"/>
<path d="M305.5 53V58" stroke="white" stroke-miterlimit="10"/>
<path d="M303 55.5H308" stroke="white" stroke-miterlimit="10"/>
<path d="M633 38.6H635.6V42H639.3V38.8H641.9L637.5 33L633 38.6Z" fill="#85C730"/>
<path d="M687.6 42L692 36.2H689.4V33H685.7V36.4H683L687.6 42Z" fill="#FF002A"/>
<path opacity="0.5" d="M416 37.5H419" stroke="white" stroke-miterlimit="10"/>
<path opacity="0.5" d="M416 39.5H419" stroke="white" stroke-miterlimit="10"/>
<path opacity="0.5" d="M416 35.5H419" stroke="white" stroke-miterlimit="10"/>
<path opacity="0.5" d="M406 37.5H414" stroke="white" stroke-miterlimit="10"/>
<path opacity="0.5" d="M406 39.5H414" stroke="white" stroke-miterlimit="10"/>
<path opacity="0.5" d="M406 35.5H414" stroke="white" stroke-miterlimit="10"/>
<path opacity="0.5" d="M406 33.5H411" stroke="white" stroke-miterlimit="10"/>
<path d="M404 31V42H418L421 46V41.8V31H404ZM406 33H411V34H406V33ZM414 40H406V39H414V40ZM414 38H406V37H414V38ZM414 36H406V35H414V36ZM419 40H416V39H419V40ZM419 38H416V37H419V38ZM419 36H416V35H419V36Z" fill="black"/>
<path opacity="0.4" d="M421 41.8V46L418 42H404V31H421V41.8Z" fill="black"/>
<path d="M404 56V67H418L421 71V66.8V56H404ZM406 58H411V59H406V58ZM414 65H406V64H414V65ZM414 63H406V62H414V63ZM414 61H406V60H414V61ZM419 65H416V64H419V65ZM419 63H416V62H419V63ZM419 61H416V60H419V61Z" fill="white"/>
<path opacity="0.4" d="M421 66.8V71L418 67H404V56H421V66.8Z" fill="white"/>
<path d="M454.59 45.9818H455.59V29.9818H454.59V45.9818Z" fill="black"/>
<path d="M446.983 37.2368V38.2368H462.983V37.2368H446.983Z" fill="black"/>
<path d="M454.59 70.9816H455.59V54.9816H454.59V70.9816Z" fill="white"/>
<path d="M446.983 62.2313V63.2313H462.983V62.2313H446.983Z" fill="white"/>
<path d="M733 33.5V42.4L740.7 38L733 33.5Z" fill="#1A5FD1"/>
<path d="M497 31L492.7 36.8L496 41.2L494.2 42.6C492.3 40 489 35.6 489 35.6L482 45H507.5L497 31Z" fill="black"/>
<path d="M497 56.3L492.7 62.1L496 66.5L494.2 67.9C492.3 65.3 489 60.9 489 60.9L482 70.3H507.5L497 56.3Z" fill="white"/>
<path d="M782.9 34.8H784.7L781.7 30.5L778.7 34.8H780.5V40.2H778.7L781.7 44.5L784.7 40.2H782.9V34.8Z" fill="#6080C0"/>
<path d="M826.031 33.0909C827.153 33.0909 828.062 32.1751 828.062 31.0455C828.062 29.9158 827.153 29 826.031 29C824.909 29 824 29.9158 824 31.0455C824 32.1751 824.909 33.0909 826.031 33.0909Z" fill="#231F20"/>
<path d="M826.031 38.5455C827.153 38.5455 828.062 37.6297 828.062 36.5C828.062 35.3703 827.153 34.4545 826.031 34.4545C824.909 34.4545 824 35.3703 824 36.5C824 37.6297 824.909 38.5455 826.031 38.5455Z" fill="#231F20"/>
<path d="M826.031 44C827.153 44 828.062 43.0842 828.062 41.9545C828.062 40.8249 827.153 39.9091 826.031 39.9091C824.909 39.9091 824 40.8249 824 41.9545C824 43.0842 824.909 44 826.031 44Z" fill="#231F20"/>
<path d="M826.031 59.0909C827.153 59.0909 828.062 58.1751 828.062 57.0455C828.062 55.9158 827.153 55 826.031 55C824.909 55 824 55.9158 824 57.0455C824 58.1751 824.909 59.0909 826.031 59.0909Z" fill="white"/>
<path d="M826.031 64.5455C827.153 64.5455 828.062 63.6297 828.062 62.5C828.062 61.3703 827.153 60.4545 826.031 60.4545C824.909 60.4545 824 61.3703 824 62.5C824 63.6297 824.909 64.5455 826.031 64.5455Z" fill="white"/>
<path d="M826.031 70C827.153 70 828.062 69.0842 828.062 67.9545C828.062 66.8249 827.153 65.9091 826.031 65.9091C824.909 65.9091 824 66.8249 824 67.9545C824 69.0842 824.909 70 826.031 70Z" fill="white"/>
</svg>
