<svg xmlns="http://www.w3.org/2000/svg" width="35" height="35" viewBox="0 0 35 35">
    <g fill="none" fill-rule="evenodd">
        <g fill="#FFF">
            <g>
                <g>
                    <path d="M5.675 27.787c2.127 2.382 4.936 4.051 8.045 4.78-1.833-1.972-3.3-4.255-4.331-6.74-1.3.528-2.544 1.185-3.714 1.96zm15.32 4.78c3.109-.728 5.917-2.397 8.042-4.78-1.164-.776-2.404-1.433-3.7-1.96-1.036 2.484-2.506 4.766-4.342 6.736v.003zm-.236-30.485c1.91 1.98 3.44 4.294 4.512 6.828 1.323-.532 2.589-1.197 3.777-1.986-2.186-2.444-5.086-4.138-8.29-4.842zM9.45 8.906c.535-1.266 1.186-2.48 1.944-3.627.758-1.138 1.614-2.208 2.558-3.197-3.202.708-6.1 2.41-8.278 4.86 1.189.781 2.454 1.44 3.776 1.964zm14.213.562C22.439 6.61 20.576 4.07 18.218 2.04v8.372c1.849-.074 3.679-.388 5.446-.934v-.01zm-12.61 0c1.24.465 4.606 1.041 5.439.934V2.04c-2.355 2.03-4.215 4.57-5.438 7.428zm7.16 23.376c2.402-2.07 4.288-4.672 5.509-7.598-1.786-.557-3.638-.876-5.508-.95v8.548zm-7.222-7.584c1.22 2.92 3.104 5.513 5.5 7.577v-8.542c-1.064-.069-4.431.517-5.5.965zm13.266-14.192c-1.958.615-3.99.966-6.04 1.041v4.384h7.043c-.087-1.845-.424-3.67-1.003-5.425zm-7.761 5.415V12.12c-2.046-.077-4.072-.427-6.025-1.04-.46.981-1.14 4.75-.986 5.42h7.01v-.017zm8.77 1.735h-7.05v4.37c2.066.08 4.11.438 6.079 1.065.57-1.759.897-3.587.972-5.435zm-8.76 4.366v-4.369h-7.04c-.096.968.554 4.692.946 5.431 1.97-.626 4.015-.982 6.08-1.058l.015-.004zM1.737 18.211c.16 2.967 1.164 5.826 2.89 8.243 1.314-.883 2.714-1.63 4.18-2.228-.631-1.946-.988-3.97-1.06-6.015h-6.01zm28.367 8.243c1.727-2.415 2.73-5.27 2.89-8.236h-6.028c-.066 2.041-.416 4.064-1.041 6.008 1.465.598 2.866 1.345 4.179 2.228zm-25.49-18.2c-1.723 2.417-2.721 5.275-2.877 8.24H7.75c.087-2.04.457-4.058 1.1-5.995-1.488-.6-2.91-1.352-4.241-2.246h.003zm25.49 0c-1.334.893-2.756 1.646-4.245 2.245.643 1.936 1.013 3.953 1.1 5.991h6.036c-.163-2.965-1.166-5.82-2.891-8.237zM17.353 0c9.586 0 17.355 7.77 17.355 17.354s-7.77 17.354-17.354 17.354S0 26.938 0 17.354C0 7.77 7.77 0 17.354 0z" transform="translate(-180 -126) translate(105 101) translate(75 25)"/>
                </g>
            </g>
        </g>
    </g>
</svg>
