<?xml version="1.0" encoding="UTF-8"?>
<svg width="33px" height="35px" viewBox="0 0 33 35" version="1.1" xmlns="http://www.w3.org/2000/svg" xmlns:xlink="http://www.w3.org/1999/xlink">
    <title>icons/app-native</title>
    <g id="icons/app-native" stroke="none" stroke-width="1" fill="none" fill-rule="evenodd">
        <g id="Group">
            <path d="M30,23.9 L3,23.9 C2.9,23.9 2.8,23.9 2.8,24 L2.8,24 L2.8,32.1 C2.8,32.1 2.8,32.1 2.8,32.1 L30.2,32.1 C30.2,32.1 30.2,32.1 30.2,32.1 L30.2,24 C30.1,23.9 30.1,23.9 30,23.9 Z M18.8,29.3 L6.4,29.3 C5.7,29.3 5,28.7 5,27.9 C5,27.2 5.6,26.5 6.4,26.5 L18.7,26.5 C19.4,26.5 20.1,27.1 20.1,27.9 C20.1,28.7 19.5,29.3 18.8,29.3 Z M26.6,29.3 L23.3,29.3 C22.6,29.3 21.9,28.7 21.9,27.9 C21.9,27.2 22.5,26.5 23.3,26.5 L26.6,26.5 C27.3,26.5 28,27.1 28,27.9 C27.9,28.7 27.3,29.3 26.6,29.3 Z" id="Shape"></path>
            <path d="M32.2,22.8 L32.2,22.7 L32.2,22.7 C32.2,22.5 32.2,22.2 32.2,22 L29,2.2 C28.8,1.2 27.9,0.4 26.8,0.4 L6.3,0.4 C5.2,0.4 4.3,1.2 4.1,2.2 L0.9,21.9 C0.9,22.1 0.9,22.4 0.9,22.6 L0.9,22.7 L0.9,22.8 C0.7,23.1 0.6,23.5 0.6,23.9 L0.6,32.1 C0.6,33.3 1.6,34.4 2.9,34.4 L30.2,34.4 C31.4,34.4 32.5,33.4 32.5,32.1 L32.5,24 C32.4,23.5 32.3,23.2 32.2,22.8 L32.2,22.8 Z M2.7,21.2 L5.7,2.3 L5.8,2.2 C6,2.1 6.1,2 6.3,2 L26.8,2 C27,2 27.1,2.1 27.2,2.2 L27.3,2.3 L27.3,2.4 L30.4,21.7 L2.7,21.7 L2.7,21.2 Z M30.2,32.6 L2.8,32.6 C2.5,32.6 2.3,32.4 2.2,32.1 L2.2,23.8 L2.4,23.7 C2.5,23.6 2.7,23.5 3,23.5 L30,23.5 C30.2,23.5 30.4,23.6 30.6,23.7 L30.8,23.8 L30.8,32.1 C30.7,32.3 30.5,32.6 30.2,32.6 Z" id="Shape" fill="#FFFFFF" fill-rule="nonzero"></path>
            <path d="M18.8,27.1 L6.4,27.1 C5.9,27.1 5.5,27.5 5.5,28 C5.5,28.5 5.9,28.9 6.4,28.9 L18.7,28.9 C19.2,28.9 19.6,28.5 19.6,28 C19.6,27.5 19.2,27.1 18.8,27.1 Z" id="Path" fill="#FFFFFF" fill-rule="nonzero"></path>
            <path d="M26.6,27.1 L23.3,27.1 C22.8,27.1 22.4,27.5 22.4,28 C22.4,28.5 22.8,28.9 23.3,28.9 L26.6,28.9 C27.1,28.9 27.5,28.5 27.5,28 C27.4,27.5 27,27.1 26.6,27.1 Z" id="Path" fill="#FFFFFF" fill-rule="nonzero"></path>
            <path d="M9.5,4.1 L8.7,4.1 C8.2,4.1 7.8,4.5 7.8,5 C7.8,5.5 8.2,5.9 8.7,5.9 L9.5,5.9 C10,5.9 10.4,5.5 10.4,5 C10.4,4.5 10,4.1 9.5,4.1 Z" id="Path" fill="#FFFFFF" fill-rule="nonzero"></path>
        </g>
    </g>
</svg>