<?xml version="1.0" encoding="UTF-8"?>
<svg width="35px" height="35px" viewBox="0 0 35 35" version="1.1" xmlns="http://www.w3.org/2000/svg" xmlns:xlink="http://www.w3.org/1999/xlink">
    <title>icons/welcome-theme</title>
    <defs>
        <polygon id="path-1" points="0 0 31 0 31 35 0 35"></polygon>
    </defs>
    <g id="icons/welcome-theme" stroke="none" stroke-width="1" fill="none" fill-rule="evenodd">
        <g id="Group-3" transform="translate(2.000000, 0.000000)">
            <mask id="mask-2" fill="white">
                <use xlink:href="#path-1"></use>
            </mask>
            <g id="Clip-2"></g>
            <path d="M14.3315528,31.9550933 C14.3250668,32.3564267 13.9904617,32.67824 13.5803129,32.67824 L12.6863792,32.67824 C12.2712705,32.67824 11.9351393,32.3493333 11.9351393,31.94352 L11.9351393,24.0684267 C11.9351393,23.6670933 12.2640214,23.33968 12.6741702,23.3333333 L13.5925219,23.34528 C13.9977108,23.3512533 14.3250668,23.6715733 14.3315528,24.0684267 L14.3315528,31.9550933 Z M23.8458604,9.11157333 C23.8458604,10.5227733 22.6768409,11.6666667 21.2350248,11.6666667 L4.99580313,11.6666667 C3.55360549,11.6666667 2.38496757,10.5227733 2.38496757,9.11157333 L2.38496757,4.88842667 C2.38496757,3.47722667 3.55360549,2.33333333 4.99580313,2.33333333 L21.2350248,2.33333333 C22.6768409,2.33333333 23.8458604,3.47722667 23.8458604,4.88842667 L23.8458604,9.11157333 Z M27.5780237,5.83333333 L26.2304464,5.83333333 L26.2304464,4.88842667 C26.2304464,2.18848 23.9938955,0 21.2350248,0 L4.99580313,0 C2.23693247,0 0,2.18848 0,4.88842667 L0,9.11157333 C0,11.81152 2.23693247,14 4.99580313,14 L21.2350248,14 C23.9938955,14 26.2304464,11.81152 26.2304464,9.11157333 L26.2304464,8.16666667 L27.5780237,8.16666667 C28.1571919,8.16666667 28.6272415,8.62624 28.6272415,9.19333333 L28.6272415,15.31824 C28.6203739,15.8808533 28.152995,16.3333333 27.5780237,16.3333333 L15.0110645,16.3333333 C13.3082793,16.33968 11.9297978,17.6889067 11.9233117,19.3550933 L11.9233117,21.0922133 C10.5547501,21.42224 9.53834414,22.6277333 9.53834414,24.0684267 L9.53834414,31.94352 C9.54521175,33.6332267 10.9469668,35 12.6741702,35 L13.5684853,35 C15.2911103,34.9936533 16.6856162,33.6287467 16.6921023,31.94352 L16.6921023,24.0684267 C16.6921023,22.6281067 15.6764594,21.42224 14.3078977,21.0922133 L14.3078977,19.3550933 C14.3078977,18.9746667 14.6226631,18.6666667 15.0110645,18.6666667 L27.5780237,18.6666667 C29.4650897,18.66032 30.9931324,17.1647467 31,15.31824 L31,9.19333333 C31,7.34234667 29.4696681,5.83968 27.5780237,5.83333333 L27.5780237,5.83333333 Z" id="Fill-1" fill="#FFFFFF" mask="url(#mask-2)"></path>
        </g>
    </g>
</svg>