<svg xmlns="http://www.w3.org/2000/svg" xmlns:xlink="http://www.w3.org/1999/xlink" width="13" height="13" viewBox="0 0 13 13">
    <defs>
        <path id="e3y9bw135a" d="M0 0L11.514 0 11.514 13 0 13z"/>
        <path id="dj3kyxewxb" d="M0 0.099L13.248 0.099 13.248 10.4 0 10.4z"/>
    </defs>
    <g fill="none" fill-rule="evenodd">
        <g>
            <g>
                <g>
                    <g transform="translate(-33 -251) translate(0 241) translate(33 10) translate(.743)"/>
                    <g>
                        <path fill="#FFF" d="M12.83.54c-.11-.11-.26-.165-.417-.169l-2.202.02c-.24.002-.436.2-.437.442v.04c0 .239.194.44.433.445l1.2.031-4.222 4.217c-.17.17-.17.449 0 .62.087.086.199.128.312.128.112 0 .224-.042.31-.128l4.22-4.216.031 1.197c.006.24.206.433.446.433h.041c.241 0 .44-.196.44-.437L13 .954c.001-.157-.06-.303-.17-.413" transform="translate(-33 -251) translate(0 241) translate(33 10) translate(0 1.114)"/>
                        <g transform="translate(-33 -251) translate(0 241) translate(33 10) translate(0 1.114)">
                            <mask id="fdeu0qatrc" fill="#fff">
                                <use xlink:href="#dj3kyxewxb"/>
                            </mask>
                            <path fill="#FFF" d="M12.44 10.4H.808C.362 10.4 0 10.032 0 9.58V.919c0-.452.362-.82.808-.82h7.669c.246 0 .446.203.446.453s-.2.452-.446.452H.89v8.493h11.466V4.934c0-.25.199-.452.445-.452s.446.202.446.452V9.58c0 .451-.362.819-.808.819" mask="url(#fdeu0qatrc)"/>
                        </g>
                    </g>
                </g>
            </g>
        </g>
    </g>
</svg>
