<?xml version="1.0" encoding="UTF-8"?>
<svg width="35px" height="35px" viewBox="0 0 35 35" version="1.1" xmlns="http://www.w3.org/2000/svg" xmlns:xlink="http://www.w3.org/1999/xlink">
    <title>icons/welcome-export</title>
    <defs>
        <polygon id="path-1" points="0 0 31 0 31 35 0 35"></polygon>
        <polygon id="path-3" points="0.00016 0.265918841 35.66736 0.265918841 35.66736 28 0.00016 28"></polygon>
    </defs>
    <g id="icons/welcome-export" stroke="none" stroke-width="1" fill="none" fill-rule="evenodd">
        <g id="Group-3" transform="translate(2.000000, 0.000000)">
            <mask id="mask-2" fill="white">
                <use xlink:href="#path-1"></use>
            </mask>
            <g id="Clip-2"></g>
        </g>
        <g id="Group-6" transform="translate(0.000000, 3.000000)">
            <path d="M34.5429827,1.45529736 C34.2441104,1.15754234 33.8399626,1.00905868 33.4200432,1 L27.4907021,1.05317054 C26.8440656,1.05907838 26.3161106,1.5923592 26.3145334,2.24340291 L26.3145334,2.34816857 C26.3129563,2.99369831 26.8357855,3.53249311 27.4804506,3.54903505 L30.7092958,3.63213864 L19.3450539,14.9842458 C18.8845226,15.4442694 18.8849168,16.1933832 19.3466311,16.6545884 C19.577291,16.8849941 19.8801062,17 20.1829213,17 C20.4857364,17 20.787763,16.8849941 21.0176344,16.6549823 L32.3822705,5.303269 L32.4650715,8.52776684 C32.4812374,9.17093344 33.019444,9.69358015 33.6652919,9.69358015 L33.6676577,9.69358015 L33.7737218,9.69318629 C34.4250898,9.69200473 34.9585649,9.16345018 34.9621135,8.51516345 L35,2.56872785 C35.0027254,2.14690823 34.8402777,1.75147696 34.5429827,1.45529736" id="Fill-1" fill="#FFFFFF"></path>
            <g id="Group-5">
                <mask id="mask-4" fill="white">
                    <use xlink:href="#path-3"></use>
                </mask>
                <g id="Clip-4"></g>
                <path d="M33.49256,28.0001217 L2.17496,28.0001217 C0.97576,28.0001217 0.00016,27.0103826 0.00016,25.7938029 L0.00016,2.47223768 C0.00016,1.25565797 0.97576,0.265918841 2.17496,0.265918841 L22.82216,0.265918841 C23.48496,0.265918841 24.02216,0.810904348 24.02216,1.48331014 C24.02216,2.15571594 23.48496,2.70070145 22.82216,2.70070145 L2.40016,2.70070145 L2.40016,25.5653391 L33.26776,25.5653391 L33.26776,13.2834841 C33.26776,12.6110783 33.80456,12.0660928 34.46776,12.0660928 C35.13056,12.0660928 35.66736,12.6110783 35.66736,13.2834841 L35.66736,25.7938029 C35.66736,27.0103826 34.69176,28.0001217 33.49256,28.0001217" id="Fill-3" fill="#FFFFFF" mask="url(#mask-4)"></path>
            </g>
        </g>
    </g>
</svg>