<?xml version="1.0" encoding="utf-8"?>
<!-- Generator: Adobe Illustrator 24.0.1, SVG Export Plug-In . SVG Version: 6.00 Build 0)  -->
<svg version="1.1" id="Layer_1" xmlns="http://www.w3.org/2000/svg" xmlns:xlink="http://www.w3.org/1999/xlink" x="0px" y="0px"
	 width="16px" height="18px" viewBox="0 0 16 18" style="enable-background:new 0 0 16 18;" xml:space="preserve">
<style type="text/css">
	.st0{fill:none;stroke:#262626;}
	.st1{fill:none;stroke:#262626;stroke-linecap:square;}
	.st2{fill-rule:evenodd;clip-rule:evenodd;fill:#262626;}
</style>
<title>Date Picker</title>
<desc>Created with Sketch.</desc>
<g id="Yield-Curve-_x2F_-Term-Structure">
	<g id="YieldCurve_uniform-spacing" transform="translate(-138.000000, -15.000000)">
		<g id="Toolbar" transform="translate(0.000000, -0.500000)">
			<g id="Date-Picker" transform="translate(138.000000, 15.500000)">
				<path id="Rectangle" class="st0" d="M3.5,2h9c1.7,0,3,1.3,3,3v9c0,1.7-1.3,3-3,3h-9c-1.7,0-3-1.3-3-3V5C0.5,3.3,1.8,2,3.5,2z"/>
				<line id="Line-11" class="st1" x1="0.5" y1="6" x2="15.5" y2="6"/>
				<path id="Rectangle_1_" class="st2" d="M4.5,0h1C5.8,0,6,0.2,6,0.5v3C6,3.8,5.8,4,5.5,4h-1C4.2,4,4,3.8,4,3.5v-3
					C4,0.2,4.2,0,4.5,0z"/>
				<path id="Rectangle-Copy-29" class="st2" d="M10.5,0h1C11.8,0,12,0.2,12,0.5v3C12,3.8,11.8,4,11.5,4h-1C10.2,4,10,3.8,10,3.5v-3
					C10,0.2,10.2,0,10.5,0z"/>
			</g>
		</g>
	</g>
</g>
</svg>
