<?xml version="1.0" encoding="UTF-8"?>
<svg width="12px" height="13px" viewBox="0 0 12 13" version="1.1" xmlns="http://www.w3.org/2000/svg" xmlns:xlink="http://www.w3.org/1999/xlink">
    <title>Group 5</title>
    <g id="Yield-Curve-/-Term-Structure" stroke="none" stroke-width="1" fill="none" fill-rule="evenodd">
        <g id="Hide-Curve" transform="translate(-6.000000, -7.000000)">
            <g id="Group-5" transform="translate(6.000000, 8.000000)">
                <path d="M6,2 C8.209139,2 10.209139,3.16666667 12,5.5 C10.209139,7.83333333 8.209139,9 6,9 C3.790861,9 1.790861,7.83333333 0,5.5 C1.790861,3.16666667 3.790861,2 6,2 Z M6,3.5 C4.8954305,3.5 4,4.3954305 4,5.5 C4,6.6045695 4.8954305,7.5 6,7.5 C7.1045695,7.5 8,6.6045695 8,5.5 C8,4.3954305 7.1045695,3.5 6,3.5 Z" id="Combined-Shape" fill="#D8D8D8"></path>
                <line x1="2.5" y1="0.5" x2="9.5" y2="10.5" id="Line-2" stroke="#D8D8D8" stroke-width="2" stroke-linecap="square"></line>
            </g>
        </g>
    </g>
</svg>