<?xml version="1.0" encoding="UTF-8"?>
<svg width="20px" height="25px" viewBox="0 0 20 25" version="1.1" xmlns="http://www.w3.org/2000/svg" xmlns:xlink="http://www.w3.org/1999/xlink">
    <title>icons/unlock</title>
    <g id="icons/unlock" stroke="none" stroke-width="1" fill="none" fill-rule="evenodd">
        <g id="Group" fill-rule="nonzero">
            <path d="M18.2832737,10 L1.76112649,10 C0.787872379,10 0,10.8031496 0,11.7952756 L0,23.2047244 C0,24.1968504 0.787872379,25 1.76112649,25 L18.2369283,25 C19.2101824,25 19.9980548,24.1968504 19.9980548,23.2047244 L19.9980548,11.7952756 C20.0444002,10.8031496 19.2565279,10 18.2832737,10 Z M11.1692496,16.6141732 C10.9838679,16.7795276 10.8680043,17.015748 10.8680043,17.2519685 L10.8680043,20.511811 C10.8680043,20.984252 10.4972408,21.3858268 10.0106138,21.3858268 C9.54715942,21.3858268 9.15322323,21.007874 9.15322323,20.511811 L9.15322323,17.2755906 C9.15322323,17.0393701 9.03735964,16.7795276 8.87515063,16.6377953 C8.50438715,16.3070866 8.31900542,15.8582677 8.31900542,15.3622047 C8.31900542,14.4173228 9.08370508,13.6377953 10.0106138,13.6377953 C10.9375224,13.6377953 11.7022221,14.4173228 11.7022221,15.3622047 C11.7253948,15.8346457 11.5168404,16.2834646 11.1692496,16.6141732 Z" id="Shape" fill="#D8D8D8"></path>
            <path d="M9.48979592,14 C8.67346939,14 8,14.8024316 8,15.775076 C8,16.2857143 8.18367347,16.7477204 8.48979592,17.0881459 C8.65306122,17.2583587 8.73469388,17.5015198 8.73469388,17.7446809 L8.73469388,21.100304 C8.73469388,21.5866261 9.06122449,22 9.48979592,22 C9.89795918,22 10.244898,21.6109422 10.244898,21.100304 L10.244898,17.768997 C10.244898,17.5258359 10.3469388,17.2583587 10.5102041,17.112462 C10.8163265,16.7720365 11,16.3100304 11,15.7993921 C10.9795918,14.8024316 10.3061224,14 9.48979592,14 Z" id="Path"></path>
            <path d="M5.06818182,12 L5.06818182,7.89041096 C5.06818182,4.86575342 7.18181818,2.41972603 9.79545455,2.41972603 C11.2954545,2.41972603 12.6136364,3.23506849 13.4772727,4.47123288 L15,2.81424658 C13.7727273,1.10465753 11.9090909,0 9.81818182,0 C6.06818182,0 3,3.55068493 3,7.89041096 L3,12 L5.06818182,12 Z" id="Path" fill="#D8D8D8"></path>
        </g>
    </g>
</svg>