<svg width="5px" height="15px" viewBox="0 0 5 11" version="1.1" xmlns="http://www.w3.org/2000/svg">
    <g id="Page-1" stroke="none" strokeWidth="1" fill="none" fillRule="evenodd" opacity="0.40" preserveAspectRatio="xMinYMin meet">
        <path d="M3,0 L2,0 L2,1 L3,1 L3,0 Z M1,2 L0,2 L0,3 L1,3 L1,2 Z M2,2 L3,2 L3,3 L2,3 L2,2 Z M5,2 L4,2 L4,3 L5,3 L5,2 Z M0,4 L1,4 L1,5 L0,5 L0,4 Z M3,4 L2,4 L2,5 L3,5 L3,4 Z M4,4 L5,4 L5,5 L4,5 L4,4 Z M3,6 L2,6 L2,7 L3,7 L3,6 Z M0,6 L1,6 L1,7 L0,7 L0,6 Z M5,6 L4,6 L4,7 L5,7 L5,6 Z M4,8 L5,8 L5,9 L4,9 L4,8 Z M3,8 L2,8 L2,9 L3,9 L3,8 Z M0,8 L1,8 L1,9 L0,9 L0,8 Z M3,10 L2,10 L2,11 L3,11 L3,10 Z" id="Shape" fill="#FFFFFF" fillRule="nonzero"></path>
    </g>
</svg>