<?xml version="1.0" encoding="UTF-8"?>
<svg width="21px" height="21px" viewBox="0 0 21 21" version="1.1" xmlns="http://www.w3.org/2000/svg" xmlns:xlink="http://www.w3.org/1999/xlink">
    <!-- Generator: Sketch 55.2 (78181) - https://sketchapp.com -->
    <title>Group</title>
    <desc>Created with Sketch.</desc>
    <g id="!Icons" stroke="none" stroke-width="1" fill="none" fill-rule="evenodd">
        <g id="Search_white" fill="#FFFFFF">
            <g id="Group" transform="translate(0.820847, 0.637305)">
                <path d="M18.9696695,19.6722498 C18.7898089,19.6722498 18.6099483,19.6033969 18.4722426,19.4656912 L12.2333291,13.2253725 C11.9593227,12.949961 11.9593227,12.5059302 12.2333291,12.2319239 C12.5073354,11.9565124 12.9527713,11.9565124 13.2267777,12.2319239 L19.4656912,18.4722426 C19.7411027,18.7462489 19.7411027,19.1916849 19.4656912,19.4656912 C19.3293906,19.6033969 19.14953,19.6722498 18.9696695,19.6722498" id="Fill-101"></path>
                <path d="M7.72416838,1.4051607 C4.240775,1.4051607 1.4051607,4.23796468 1.4051607,7.72276322 C1.4051607,11.2061566 4.240775,14.0417709 7.72416838,14.0417709 C11.2075618,14.0417709 14.0417709,11.2061566 14.0417709,7.72276322 C14.0417709,4.23796468 11.2075618,1.4051607 7.72416838,1.4051607 Z M7.72416838,15.4469316 C3.46512629,15.4469316 3.4283687e-13,11.9818053 3.4283687e-13,7.72276322 C3.4283687e-13,3.46372113 3.46512629,-4.4408921e-15 7.72416838,-4.4408921e-15 C11.9818053,-4.4408921e-15 15.4469316,3.46372113 15.4469316,7.72276322 C15.4469316,11.9818053 11.9818053,15.4469316 7.72416838,15.4469316 L7.72416838,15.4469316 Z" id="Fill-102"></path>
            </g>
        </g>
    </g>
</svg>