<?xml version="1.0" encoding="UTF-8"?>
<svg width="13px" height="13px" viewBox="0 0 13 13" version="1.1" xmlns="http://www.w3.org/2000/svg" xmlns:xlink="http://www.w3.org/1999/xlink">
    <!-- Generator: Sketch 55.2 (78181) - https://sketchapp.com -->
    <title>magnifying glass</title>
    <desc>Created with Sketch.</desc>
    <g id="Symbols" stroke="none" stroke-width="1" fill="none" fill-rule="evenodd">
        <g id="atoms/icons/search" transform="translate(-10.000000, -10.000000)" fill="#FFFFFF" fill-rule="nonzero">
            <path d="M22.7842655,21.7702703 L20.4511371,19.4545455 C22.2728949,17.1228501 22.0811309,13.8009828 19.9877074,11.7088452 C18.8850645,10.6068796 17.414874,10 15.8488015,10 C14.2827289,10 12.8125384,10.6068796 11.7098955,11.7088452 C10.6072526,12.8108108 10,14.2800983 10,15.8452088 C10,17.4103194 10.6072526,18.8796069 11.7098955,19.9815725 C12.8125384,21.0835381 14.2827289,21.6904177 15.8488015,21.6904177 C17.1432084,21.6904177 18.4216349,21.2592138 19.4443762,20.4447174 L21.7615243,22.7923833 C21.9053473,22.9361179 22.0811309,23 22.2728949,23 C22.4646589,23 22.6404425,22.9201474 22.7842655,22.7923833 C23.0719115,22.5208845 23.0719115,22.0577396 22.7842655,21.7702703 Z M20.2593731,15.8452088 C20.2593731,17.027027 19.7959435,18.1289926 18.9649662,18.9594595 C18.1339889,19.7899263 17.0153657,20.2530713 15.8488015,20.2530713 C14.6822372,20.2530713 13.563614,19.7899263 12.7326368,18.9594595 C11.9016595,18.1289926 11.4382299,17.0110565 11.4382299,15.8452088 C11.4382299,14.6633907 11.9016595,13.5614251 12.7326368,12.7309582 C13.563614,11.9004914 14.6822372,11.4373464 15.8488015,11.4373464 C17.031346,11.4373464 18.1339889,11.9004914 18.9649662,12.7309582 C19.7959435,13.5614251 20.2593731,14.6633907 20.2593731,15.8452088 Z" id="magnifying-glass"></path>
        </g>
    </g>
</svg>