<svg xmlns="http://www.w3.org/2000/svg" viewBox="0 0 249.33 43.1"><defs><style>.cls-1{fill:#ca2420;}</style></defs><title>N_Logo</title><g id="Layer_2" data-name="Layer 2"><g id="Layer_1-2" data-name="Layer 1"><path class="cls-1" d="M38.73,21.56C38.73,7.19,47.67,0,58.74,0S78.67,7.19,78.67,21.56,69.73,43.07,58.74,43.07s-20-7.09-20-21.51m20,16.05c5.44,0,9.85-5.7,9.85-16.09S64.15,5.46,58.74,5.46s-9.9,5.79-9.9,16.1,4.41,16.05,9.9,16.05"/><path class="cls-1" d="M0,1.56V41.47H6.94V14.67l21.4,26.8h5.85V1.56H27.58v22L9.8,1.56Z"/><path class="cls-1" d="M223.5,1.58,207.31,41.49h7l4.46-11h14.7l4.52,11h11.34L232.91,1.58ZM221,24.78l5.07-12.51,5.07,12.51Zm-62.71,2.94c-.18,3.65-.46,7.28-4.52,8.65a12.4,12.4,0,0,1-7-.16,5.72,5.72,0,0,1-2.14-1.36,9.81,9.81,0,0,1-1.93-6V1.56h-10.4V27.72a16.37,16.37,0,0,0,3,10.17c4,5,11.43,5.7,17.4,5a15.15,15.15,0,0,0,9.58-4.43A13.71,13.71,0,0,0,165.57,31a18.19,18.19,0,0,0,.23-3.28V1.56h-7.49ZM182.86,7.19c4.59,0,9.14-.78,11.13,4,.78,1.88.83,6.15-1,8-2.2,2.16-5.53,2.37-8.41,2.62l10.63,19.72h10.95l-9.69-17.57c5.78-2,8.49-5.31,8.2-11.53-.3-6.73-6-10.81-12.4-10.81H172.5V41.49h10.35V7.19Z"/><path class="cls-1" d="M115.45,41.47,100,1.58h-8.1L77,41.47h7.26l10.08-27,10.24,27Zm.5-39.91h-8.47l-2.6,6.84,3.7,9.55,1.33-3.44,10,27h11.52Z"/><path class="cls-1" d="M97.12,27.55,91.94,41.47h6.61l1.93-5.24Z"/></g></g></svg>