<?xml version="1.0" encoding="utf-8"?>
<!-- Generator: Adobe Illustrator 22.0.1, SVG Export Plug-In . SVG Version: 6.00 Build 0)  -->
<svg version="1.1" id="Layer_1" xmlns="http://www.w3.org/2000/svg" xmlns:xlink="http://www.w3.org/1999/xlink" x="0px" y="0px"
	 width="330.2px" height="229.2px" viewBox="0 0 330.2 229.2" style="enable-background:new 0 0 330.2 229.2;" xml:space="preserve"
	>
<style type="text/css">
	.st0{fill:#0098DC;}
</style>
<path class="st0" d="M329.6,91.2c-0.9-6.8-1.1-13.8-4.3-20.2c-9.4-18.8-23.9-31.8-43.7-38.4c-14.9-5-30.1-4.5-45.2-0.3
	c-3.9,1.1-6.7,0.7-8.9-3c-2.1-3.5-5.1-6.2-8.1-8.7C202.6,6.4,183.7,1.4,162.3,7.6c-7.5,2.2-14.2,5.6-20.2,10.5
	c-3.1,2.5-6,2.5-8.7-0.6c-0.8-0.9-1.6-1.7-2.5-2.5c-9.6-9.2-21-14.2-34.4-14.4c-1.1,0-2.3,0.4-3.4-0.5c-4.3,0-8.7,0-13,0
	c-6.7,1-13.7,0.5-19.9,3.4C36.8,14.3,23,32.1,20.8,58.3c0.3,3.5,0.3,7,0,10.5c-0.1,3.8,0.3,7.8,1.6,11.3c2.2,6.1,0.2,9.9-4.7,13.5
	c-6.7,4.9-11.3,11.6-14.5,19.2c-2.3,5.5-2,11.6-3.1,17.4c0,4.3,0,8.7,0,13c1.1,6.1,0.6,12.7,3.6,18.3c10,18.5,24.8,30.3,46.6,31.9
	c3.4-0.2,6.9-0.4,10.3,0c3.8-0.2,5.4,2.3,7.1,5.2c9.3,16,21.7,27.7,41.1,29.9c2.1,0.2,4.3-0.5,6.3,0.7c4.3,0,8.7,0,13,0
	c6.1-1,12.5-0.7,18.4-3c12.4-4.8,21.7-13.4,28.5-24.7c2.1-3.4,4.3-4.5,8.2-3.3c4.4,1.4,9.1,2.2,13.7,2.3c18.3,0.6,33.5-5.9,45-20.3
	c3-3.8,6.3-5.2,11.1-4.8c16.4,1.4,31.9-2.2,45.6-11.4c16.1-10.8,27.9-24.8,30.5-45c0.4-3.3,0-6.6,1-9.8c0-4.7,0-9.3,0-14
	C329.2,93.9,329.8,92.5,329.6,91.2z"/>
</svg>
