<?xml version="1.0" encoding="UTF-8"?>
<svg width="23px" height="23px" viewBox="0 0 23 23" version="1.1" xmlns="http://www.w3.org/2000/svg" xmlns:xlink="http://www.w3.org/1999/xlink">
    <title>Share White</title>
    <g id="Share-White" stroke="none" stroke-width="1" fill="none" fill-rule="evenodd">
        <g id="Page-1" transform="translate(0.000000, 1.000000)" fill="#FFFFFF">
            <g id="Group-3" transform="translate(8.000000, 0.479100)">
                <path d="M14.3271717,6.06480859 C14.3587843,6.01822157 14.3953884,5.97662602 14.4170181,5.92504754 C14.4985454,5.72372507 14.4985454,5.49910909 14.4170181,5.29945044 C14.3953884,5.24620814 14.3587843,5.20461259 14.3271717,5.15802557 C14.3005506,5.11975766 14.2855762,5.07483447 14.2522997,5.0398942 L14.2356615,5.02491981 C14.2356615,5.02325598 14.2356615,5.02325598 14.2339977,5.02325598 L9.73502284,0.259733439 C9.41889665,-0.07136715 8.89312889,-0.0896691926 8.55870065,0.226456998 C8.22593624,0.542583188 8.21096184,1.06835096 8.52708803,1.40277919 L11.7182987,4.78033796 L2.99155206,4.78033796 C1.34104058,4.78033796 0,6.43417709 0,8.46903146 L0,10.6902339 C0,11.1511126 0.371032318,11.5221449 0.831911028,11.5221449 C1.29112591,11.5221449 1.66382206,11.1511126 1.66382206,10.6902339 L1.66382206,8.46903146 C1.66382206,7.3709089 2.27111711,6.44416002 2.99155206,6.44416002 L11.7182987,6.44416002 L8.52708803,9.82005497 C8.21096184,10.1544832 8.22593624,10.6785871 8.55870065,10.9963772 C8.72009139,11.147785 8.92640533,11.2243208 9.13105544,11.2243208 C9.35234377,11.2243208 9.57196828,11.1361382 9.73502284,10.9614369 L14.2339977,6.201242 C14.2356615,6.19957818 14.2356615,6.19957818 14.2356615,6.19957818 L14.2522997,6.18293996 C14.2855762,6.14799969 14.3005506,6.1030765 14.3271717,6.06480859" id="Fill-1"></path>
            </g>
            <g id="Group-6" transform="translate(0.000000, 2.479100)">
                <path d="M21.9707702,18.5166757 L0.831911028,18.5166757 C0.37269614,18.5166757 0,18.1439795 0,17.6847646 L0,0.831911028 C0,0.371032318 0.37269614,0 0.831911028,0 L5.40742168,0 C5.86663657,0 6.23933271,0.371032318 6.23933271,0.831911028 C6.23933271,1.29112591 5.86663657,1.66382206 5.40742168,1.66382206 L1.66382206,1.66382206 L1.66382206,16.8528536 L21.1388592,16.8528536 L21.1388592,10.7499543 C21.1388592,10.2907394 21.5115554,9.91804327 21.9707702,9.91804327 C22.4299851,9.91804327 22.8026813,10.2907394 22.8026813,10.7499543 L22.8026813,17.6847646 C22.8026813,18.1439795 22.4299851,18.5166757 21.9707702,18.5166757" id="Fill-4"></path>
            </g>
        </g>
    </g>
</svg>