<?xml version="1.0" encoding="utf-8"?>
<!-- Generator: Adobe Illustrator 20.0.0, SVG Export Plug-In . SVG Version: 6.00 Build 0)  -->
<svg version="1.1" xmlns="http://www.w3.org/2000/svg" xmlns:xlink="http://www.w3.org/1999/xlink" x="0px" y="0px"
	 viewBox="0 0 201.7 201.7" style="enable-background:new 0 0 201.7 201.7;" xml:space="preserve">
<style type="text/css">
	.st0{display:none;}
	.st1{fill:#D1D3D4;}
	.st2{fill:#398EFF;}
	.st3{clip-path:url(#XMLID_4_);fill:none;stroke:#1C2F3D;stroke-width:0.5;stroke-miterlimit:10;}
	.st4{fill:none;stroke:#FFFFFF;stroke-linecap:round;stroke-miterlimit:10;}
	.st5{fill:#86C06E;stroke:#ABD998;stroke-width:0.5;stroke-miterlimit:10;}
	.st6{fill:#B0200B;stroke:#BA361F;stroke-width:0.5;stroke-miterlimit:10;}
	.st7{clip-path:url(#XMLID_5_);fill:none;stroke:#E6E6E6;stroke-width:0.5;stroke-miterlimit:10;}
	.st8{fill:none;stroke:#231F20;stroke-linecap:round;stroke-miterlimit:10;}
</style>
<g id="Layer_1" class="st0">
</g>
<g id="Layer_2">
	<g>
		<g>
			<defs>
				<circle id="XMLID_2_" cx="103" cy="103.1" r="85.7"/>
			</defs>
			<use xlink:href="#XMLID_2_"  style="overflow:visible;fill:#FFFFFF;"/>
			<clipPath id="XMLID_4_">
				<use xlink:href="#XMLID_2_"  style="overflow:visible;"/>
			</clipPath>
			
				<line style="clip-path:url(#XMLID_4_);fill:none;stroke:#E6E6E6;stroke-width:0.5;stroke-miterlimit:10;" x1="14.6" y1="41.2" x2="191.3" y2="41.2"/>
			
				<line style="clip-path:url(#XMLID_4_);fill:none;stroke:#E6E6E6;stroke-width:0.5;stroke-miterlimit:10;" x1="14.6" y1="82.5" x2="191.3" y2="82.5"/>
			
				<line style="clip-path:url(#XMLID_4_);fill:none;stroke:#E6E6E6;stroke-width:0.5;stroke-miterlimit:10;" x1="14.6" y1="123.8" x2="191.3" y2="123.8"/>
			
				<line style="clip-path:url(#XMLID_4_);fill:none;stroke:#E6E6E6;stroke-width:0.5;stroke-miterlimit:10;" x1="14.6" y1="165.1" x2="191.3" y2="165.1"/>
			<use xlink:href="#XMLID_2_"  style="overflow:visible;fill:none;stroke:#398EFF;stroke-width:1.5;stroke-miterlimit:10;"/>
		</g>
		<line class="st8" x1="142.4" y1="149.8" x2="142.4" y2="122.8"/>
		<line class="st8" x1="142.4" y1="53.4" x2="142.4" y2="76.4"/>
		<line class="st8" x1="103" y1="166.3" x2="103" y2="139.4"/>
		<line class="st8" x1="103" y1="83" x2="103" y2="105.9"/>
		<line class="st8" x1="63.6" y1="136.3" x2="63.6" y2="109.4"/>
		<line class="st8" x1="63.6" y1="44.3" x2="63.6" y2="67.3"/>
		<path class="st5" d="M131.5,76.4h21.8c0.7,0,1.2,0.5,1.2,1.2v44.1c0,0.7-0.5,1.2-1.2,1.2h-21.8c-0.7,0-1.2-0.5-1.2-1.2V77.6
			C130.3,76.9,130.8,76.4,131.5,76.4z"/>
		<path class="st6" d="M92.1,105.9h21.8c0.7,0,1.2,0.5,1.2,1.2v31c0,0.7-0.5,1.2-1.2,1.2H92.1c-0.7,0-1.2-0.5-1.2-1.2v-31
			C90.9,106.5,91.4,105.9,92.1,105.9z"/>
		<path class="st5" d="M52.6,67.3h21.8c0.7,0,1.2,0.5,1.2,1.2v39.7c0,0.7-0.5,1.2-1.2,1.2H52.6c-0.7,0-1.2-0.5-1.2-1.2V68.5
			C51.4,67.8,52,67.3,52.6,67.3z"/>
	</g>
</g>
</svg>
