<?xml version="1.0" encoding="iso-8859-1"?>
<!-- Generator: Adobe Illustrator 24.2.1, SVG Export Plug-In . SVG Version: 6.00 Build 0)  -->
<svg version="1.1" id="Layer_1" xmlns="http://www.w3.org/2000/svg" xmlns:xlink="http://www.w3.org/1999/xlink" x="0px" y="0px"
	 viewBox="0 0 583.776 132.363" style="enable-background:new 0 0 583.776 132.363;" xml:space="preserve">
<g>
	<path style="fill:#FFFFFF;" d="M176.968,41.985V63.04h23.122v7.989h-23.122v27.822h-8.554V34.089h37.691v7.896H176.968z"/>
	<path style="fill:#FFFFFF;" d="M214.377,38.789c0-3.102,2.632-5.451,5.734-5.451c3.195,0,5.827,2.35,5.827,5.451
		s-2.632,5.452-5.827,5.452C217.009,44.241,214.377,41.89,214.377,38.789z M216.069,54.956h8.178v43.896h-8.178V54.956z"/>
	<path style="fill:#FFFFFF;" d="M276.977,73.472v25.379H268.8V73.943c0-7.332-4.512-11.844-10.622-11.844
		s-13.441,3.479-13.441,12.972v23.78h-8.178V54.956h8.178v6.674c2.632-5.357,9.775-7.613,14.569-7.613
		C270.21,54.016,277.071,61.16,276.977,73.472z"/>
	<path style="fill:#FFFFFF;" d="M287.13,85.786h7.613c0.094,3.76,3.384,6.862,8.741,6.862c5.546,0,8.836-2.538,8.836-6.11
		c0-3.29-2.538-4.981-6.016-5.733l-6.016-1.41c-7.332-1.974-11.562-5.545-11.562-12.595c0-7.237,6.204-12.783,15.039-12.783
		c7.426,0,15.133,3.947,15.133,12.783h-7.896c-0.094-3.384-3.571-5.64-7.049-5.64c-4.23,0-7.049,2.537-7.049,5.922
		c0,3.008,2.819,4.605,5.64,5.264l6.485,1.598c9.117,2.256,11.467,7.707,11.467,12.689c0,8.177-7.896,13.158-17.013,13.158
		C295.589,99.791,287.506,94.809,287.13,85.786z"/>
	<path style="fill:#FFFFFF;" d="M374.638,80.428H338.92c1.222,7.802,6.861,11.655,14.381,11.655c5.358,0,10.34-2.256,12.783-6.674
		l7.144,2.82c-3.854,7.613-11.749,11.561-20.208,11.561c-12.501,0-22.559-9.117-22.559-23.028s10.057-22.746,22.559-22.746
		s21.807,8.835,21.807,22.746C374.826,77.984,374.731,79.207,374.638,80.428z M366.648,73.378
		c-1.034-7.52-6.392-11.655-13.629-11.655c-7.425,0-12.689,3.76-14.005,11.655H366.648z"/>
	<path style="fill:#FFFFFF;" d="M455.004,73.472v25.379h-8.178V73.943c0-7.332-4.042-12.031-10.434-12.031
		c-7.801-0.094-12.501,6.485-11.749,14.945l-0.094-0.377v22.371h-8.178V73.943c0-7.426-4.042-12.031-9.869-12.031
		c-6.204,0-12.407,3.854-12.407,13.159v23.78h-8.178V54.956h8.178v6.674c2.256-4.7,7.896-7.613,14.099-7.613
		c6.392,0,11.938,3.29,14.476,9.117c3.947-7.802,10.903-9.117,15.321-9.117C448.988,54.016,455.004,61.16,455.004,73.472z"/>
	<path style="fill:#FFFFFF;" d="M512.529,76.857c0,13.816-9.964,22.934-21.995,22.934c-6.297,0-12.689-2.819-15.603-7.895v6.955
		h-8.178V30.988h8.178v30.83c2.914-5.17,9.117-7.802,15.697-7.802C502.66,54.016,512.529,62.945,512.529,76.857z M504.258,76.762
		c0-8.835-6.392-15.039-14.476-15.039c-7.144,0-14.851,5.546-14.851,15.039c0,9.399,7.049,15.321,14.851,15.321
		C497.866,92.083,504.258,85.503,504.258,76.762z"/>
	<path style="fill:#FFFFFF;" d="M521.929,30.988h8.178v67.863h-8.178V30.988z"/>
	<path style="fill:#FFFFFF;" d="M583.588,80.428h-35.718c1.222,7.802,6.862,11.655,14.381,11.655c5.357,0,10.339-2.256,12.783-6.674
		l7.144,2.82c-3.854,7.613-11.75,11.561-20.209,11.561c-12.501,0-22.559-9.117-22.559-23.028s10.058-22.746,22.559-22.746
		s21.807,8.835,21.807,22.746C583.776,77.984,583.683,79.207,583.588,80.428z M575.599,73.378
		c-1.034-7.52-6.392-11.655-13.629-11.655c-7.426,0-12.689,3.76-14.005,11.655H575.599z"/>
</g>
<g>
	<path style="fill:#43A5BA;" d="M62.835,132.363c-0.342,0-0.687-0.063-1.015-0.188l-60-23.005c-1.096-0.42-1.82-1.473-1.82-2.646
		V71.917C0,71.895,0,71.874,0,71.851c0-0.377,0.076-0.747,0.218-1.088c0-0.002,0.001-0.003,0.001-0.005
		c0.001-0.002,0.001-0.002,0.001-0.004c0.01-0.024,0.021-0.048,0.032-0.072c0,0,0-0.001,0-0.001
		c0.001-0.002,0.001-0.005,0.002-0.005c0-0.001,0-0.002,0.001-0.002c0.284-0.623,0.792-1.144,1.467-1.431
		c0.037-0.016,0.073-0.03,0.11-0.044l7.87-3.018L1.82,63.159c-1.096-0.42-1.819-1.473-1.819-2.646V25.906
		c-0.007-0.286,0.03-0.576,0.114-0.862c0.037-0.125,0.082-0.247,0.135-0.364c0.238-0.531,0.623-0.956,1.087-1.245
		c0.144-0.09,0.298-0.167,0.46-0.231c0.001,0,0.003-0.001,0.004-0.002c0,0,0,0,0,0c0.008-0.003,0.017-0.007,0.026-0.01L61.821,0.189
		c0.653-0.252,1.376-0.252,2.029,0l60,23.005c1.096,0.42,1.82,1.473,1.82,2.646s-0.724,2.227-1.82,2.646L70.753,48.846
		l53.097,20.358c1.096,0.42,1.82,1.473,1.82,2.646s-0.724,2.227-1.82,2.646L65.67,96.805v32.723c0,0.934-0.459,1.807-1.229,2.336
		C63.962,132.193,63.401,132.363,62.835,132.363z M5.67,104.574l54.331,20.831v-28.6L5.67,75.974V104.574z M10.753,71.851
		L62.835,91.82l52.082-19.969L65.67,52.969v30.548c0,0.934-0.459,1.807-1.229,2.336c-0.769,0.529-1.75,0.646-2.621,0.311
		L17.622,69.218L10.753,71.851z M18.641,63.538l41.36,15.856V50.795L5.67,29.963v28.6l12.967,4.973
		C18.638,63.536,18.64,63.537,18.641,63.538z M10.753,25.84l52.082,19.97l52.082-19.97L62.835,5.872L10.753,25.84z"/>
</g>
</svg>
