<svg xmlns="http://www.w3.org/2000/svg" width="13" height="13" viewBox="0 0 13 13">
    <g fill="none" fill-rule="evenodd">
        <g fill="#FFF">
            <g>
                <g>
                    <g>
                        <path d="M.881 2.216H12.12V.858H.88v1.358zm0 6.583H12.12V2.787H.88V8.8zM12.148 0H.852C.382 0 0 .372 0 .83v7.998c0 .457.382.83.852.83h11.296c.47 0 .852-.373.852-.83V.83C13 .372 12.618 0 12.148 0z" transform="translate(-33 -126) translate(0 115) translate(33 11) translate(0 1.486)"/>
                        <path d="M1.857 1.114c-.205 0-.371.167-.371.372s.166.371.371.371.372-.166.372-.371-.167-.372-.372-.372M2.971 1.114c-.204 0-.371.167-.371.372s.167.371.371.371c.205 0 .372-.166.372-.371s-.167-.372-.372-.372M4.086 1.114c-.205 0-.372.167-.372.372s.167.371.372.371.371-.166.371-.371-.166-.372-.371-.372" transform="translate(-33 -126) translate(0 115) translate(33 11) translate(0 1.486)"/>
                    </g>
                </g>
            </g>
        </g>
    </g>
</svg>
