<?xml version="1.0" encoding="UTF-8"?>
<svg width="35px" height="35px" viewBox="0 0 35 35" version="1.1" xmlns="http://www.w3.org/2000/svg" xmlns:xlink="http://www.w3.org/1999/xlink">
    <title>icons/app-web</title>
    <g id="icons/app-web" stroke="none" stroke-width="1" fill="none" fill-rule="evenodd">
        <path d="M5.6748,27.7873 C7.8018,30.1693 10.6108,31.8383 13.7198,32.5663 C11.8868,30.5953 10.4208,28.3123 9.3888,25.8263 C8.0888,26.3553 6.8448,27.0123 5.6748,27.7873 L5.6748,27.7873 Z M20.9948,32.5663 C24.1038,31.8393 26.9118,30.1703 29.0368,27.7873 C27.8728,27.0113 26.6328,26.3543 25.3368,25.8263 C24.3008,28.3113 22.8308,30.5933 20.9948,32.5633 L20.9948,32.5663 Z M20.7588,2.0823 C22.6698,4.0623 24.1988,6.3763 25.2708,8.9103 C26.5938,8.3783 27.8598,7.7133 29.0478,6.9243 C26.8618,4.4803 23.9618,2.7863 20.7588,2.0823 L20.7588,2.0823 Z M9.4508,8.9063 C9.9858,7.6403 10.6368,6.4263 11.3948,5.2793 C12.1528,4.1413 13.0088,3.0713 13.9528,2.0823 C10.7508,2.7903 7.8538,4.4913 5.6748,6.9413 C6.8638,7.7233 8.1288,8.3813 9.4508,8.9063 L9.4508,8.9063 Z M23.6638,9.4683 C22.4388,6.6093 20.5758,4.0693 18.2178,2.0403 L18.2178,10.4123 C20.0668,10.3383 21.8968,10.0243 23.6638,9.4783 L23.6638,9.4683 Z M11.0548,9.4683 C12.2938,9.9333 15.6598,10.5093 16.4928,10.4023 L16.4928,2.0403 C14.1378,4.0703 12.2778,6.6103 11.0548,9.4683 L11.0548,9.4683 Z M18.2148,32.8443 C20.6158,30.7743 22.5018,28.1723 23.7228,25.2463 C21.9368,24.6893 20.0848,24.3703 18.2148,24.2953 L18.2148,32.8443 Z M10.9918,25.2603 C12.2128,28.1793 14.0958,30.7733 16.4928,32.8373 L16.4928,24.2953 C15.4278,24.2263 12.0608,24.8123 10.9918,25.2603 L10.9918,25.2603 Z M24.2578,11.0683 C22.2998,11.6833 20.2688,12.0343 18.2178,12.1093 L18.2178,16.4933 L25.2608,16.4933 C25.1738,14.6483 24.8368,12.8233 24.2578,11.0683 L24.2578,11.0683 Z M16.4968,16.4833 L16.4968,12.1203 C14.4508,12.0433 12.4248,11.6933 10.4718,11.0793 C10.0128,12.0613 9.3328,15.8303 9.4858,16.5003 L16.4968,16.5003 L16.4968,16.4833 Z M25.2678,18.2183 L18.2178,18.2183 L18.2178,22.5883 C20.2828,22.6673 22.3268,23.0263 24.2958,23.6533 C24.8658,21.8943 25.1928,20.0663 25.2678,18.2183 L25.2678,18.2183 Z M16.5078,22.5843 L16.5078,18.2153 L9.4678,18.2153 C9.3708,19.1833 10.0208,22.9073 10.4128,23.6463 C12.3828,23.0203 14.4278,22.6643 16.4928,22.5883 L16.5078,22.5843 Z M1.7358,18.2113 C1.8968,21.1783 2.8998,24.0373 4.6268,26.4543 C5.9398,25.5713 7.3398,24.8243 8.8058,24.2263 C8.1748,22.2803 7.8178,20.2563 7.7468,18.2113 L1.7358,18.2113 Z M30.1028,26.4543 C31.8298,24.0393 32.8328,21.1833 32.9938,18.2183 L26.9648,18.2183 C26.8988,20.2593 26.5488,22.2823 25.9238,24.2263 C27.3888,24.8243 28.7898,25.5713 30.1028,26.4543 L30.1028,26.4543 Z M4.6128,8.2533 C2.8898,10.6713 1.8918,13.5293 1.7358,16.4933 L7.7508,16.4933 C7.8378,14.4543 8.2078,12.4363 8.8508,10.4993 C7.3628,9.8993 5.9418,9.1473 4.6098,8.2533 L4.6128,8.2533 Z M30.1028,8.2533 C28.7688,9.1473 27.3468,9.9003 25.8578,10.4993 C26.5008,12.4353 26.8708,14.4523 26.9578,16.4903 L32.9938,16.4903 C32.8308,13.5253 31.8278,10.6693 30.1028,8.2533 L30.1028,8.2533 Z M17.3538,0.0003 C26.9388,0.0003 34.7078,7.7693 34.7078,17.3543 C34.7078,26.9383 26.9388,34.7083 17.3538,34.7083 C7.7698,34.7083 -0.0002,26.9383 -0.0002,17.3543 C-0.0002,7.7693 7.7698,0.0003 17.3538,0.0003 L17.3538,0.0003 Z" id="Fill-1" fill="#FFFFFF"></path>
    </g>
</svg>