<svg xmlns="http://www.w3.org/2000/svg" width="12" height="12" viewBox="0 0 12 12">
    <g fill="none" fill-rule="evenodd">
        <g fill="#D8D8D8" fill-rule="nonzero">
            <g>
                <g>
                    <path d="M11.3 7.779c-1.986.532-4.074-.087-5.431-1.61C4.599 4.758 4.204 2.76 4.817.977c.044-.115.073-.216.117-.317L5.212 0 4.51.187C3.606.43 2.788.863 2.073 1.48 1.27 2.171.67 3.063.32 4.069c-.7 2.027-.233 4.285 1.197 5.895 2.22 2.488 6.073 2.732 8.599.532.715-.618 1.255-1.366 1.606-2.214L12 7.62l-.7.158zM9.703 9.766c-2.192 1.95-5.553 1.733-7.485-.462C.964 7.89.575 5.882 1.18 4.091c.303-.88.822-1.675 1.515-2.281.432-.39.771-.516 1.305-.733-.534 1.95-.096 4.022 1.23 5.538 1.356 1.531 3.047 2.303 5.385 2-.288.477-.464.776-.911 1.151z" transform="translate(-455 -203) translate(444.82 197) translate(10.18 6)"/>
                </g>
            </g>
        </g>
    </g>
</svg>
