<?xml version="1.0" encoding="UTF-8"?>
<svg width="31px" height="35px" viewBox="0 0 31 35" version="1.1" xmlns="http://www.w3.org/2000/svg" xmlns:xlink="http://www.w3.org/1999/xlink">
    <title>icons/app-wizard</title>
    <g id="icons/app-wizard" stroke="none" stroke-width="1" fill="none" fill-rule="evenodd">
        <g id="Group" transform="translate(-1.000000, 0.000000)" fill="#FFFFFF" fill-rule="nonzero">
            <path d="M24.7,11.4 L20.9,8.1 C20.6,7.8 20,7.8 19.7,8.2 L1.2,30 C0.9,30.3 0.9,30.9 1.3,31.2 L5.1,34.5 C5.4,34.8 6,34.8 6.3,34.4 L24.8,12.6 C25.1,12.2 25.1,11.7 24.7,11.4 Z M5.5,32.6 L3,30.4 L16.4,14.7 L19,16.9 L5.5,32.6 Z M20,15.7 L17.4,13.5 L20.4,9.9 L23,12.1 L20,15.7 Z" id="Shape"></path>
            <g transform="translate(8.000000, 5.000000)" id="Path">
                <path d="M3.9,5.7 L3,5.7 C2.8,5.7 2.7,5.5 2.7,5.4 L2.7,0.3 C2.7,0.1 2.9,-1.42108547e-14 3,-1.42108547e-14 L3.9,-1.42108547e-14 C4.1,-1.42108547e-14 4.2,0.2 4.2,0.3 L4.2,5.4 C4.3,5.5 4.1,5.7 3.9,5.7 Z"></path>
                <path d="M0.6,3.3 L0.6,2.4 C0.6,2.2 0.8,2.1 0.9,2.1 L6,2.1 C6.2,2.1 6.3,2.3 6.3,2.4 L6.3,3.3 C6.3,3.5 6.1,3.6 6,3.6 L0.9,3.6 C0.7,3.6 0.6,3.5 0.6,3.3 Z"></path>
            </g>
            <g transform="translate(16.000000, 0.000000)" id="Path">
                <path d="M3.8,6.4 L2.9,6.4 C2.7,6.4 2.6,6.2 2.6,6.1 L2.6,1 C2.6,0.8 2.8,0.7 2.9,0.7 L3.8,0.7 C4,0.7 4.1,0.9 4.1,1 L4.1,6.1 C4.1,6.2 4,6.4 3.8,6.4 Z"></path>
                <path d="M0.4,4 L0.4,3 C0.4,2.8 0.6,2.7 0.7,2.7 L5.8,2.7 C6,2.7 6.1,2.9 6.1,3 L6.1,3.9 C6.1,4.1 5.9,4.2 5.8,4.2 L0.7,4.2 C0.6,4.3 0.4,4.2 0.4,4 Z"></path>
            </g>
            <g transform="translate(26.000000, 11.000000)" id="Path">
                <path d="M3.6,6.4 L2.7,6.4 C2.5,6.4 2.4,6.2 2.4,6.1 L2.4,1 C2.4,0.8 2.6,0.7 2.7,0.7 L3.6,0.7 C3.8,0.7 3.9,0.9 3.9,1 L3.9,6.1 C4,6.2 3.8,6.4 3.6,6.4 Z"></path>
                <path d="M0.3,4 L0.3,3 C0.3,2.8 0.5,2.7 0.6,2.7 L5.7,2.7 C5.9,2.7 6,2.9 6,3 L6,3.9 C6,4.1 5.8,4.2 5.7,4.2 L0.6,4.2 C0.4,4.3 0.3,4.1 0.3,4 Z"></path>
            </g>
        </g>
    </g>
</svg>