<svg xmlns="http://www.w3.org/2000/svg" xmlns:xlink="http://www.w3.org/1999/xlink" width="13" height="13" viewBox="0 0 13 13">
    <defs>
        <path id="ex09rtf1na" d="M0 0L11.514 0 11.514 13 0 13z"/>
    </defs>
    <g fill="none" fill-rule="evenodd">
        <g>
            <g>
                <g>
                    <g transform="translate(-33 -210) translate(0 199) translate(33 11) translate(.743)">
                        <mask id="kftistxfab" fill="#fff">
                            <use xlink:href="#ex09rtf1na"/>
                        </mask>
                        <path fill="#FFF" d="M5.323 11.869c-.002.15-.127.269-.279.269h-.332c-.154 0-.279-.123-.279-.273V8.94c0-.15.122-.271.275-.273l.34.004c.151.002.273.121.275.269v2.929zm3.534-8.485c0 .524-.434.95-.97.95H1.856c-.536 0-.97-.426-.97-.95V1.816c0-.524.434-.95.97-.95h6.031c.536 0 .97.426.97.95v1.568zm1.386-1.217h-.5v-.351C9.743.813 8.912 0 7.887 0H1.856C.83 0 0 .813 0 1.816v1.568C0 4.387.83 5.2 1.856 5.2h6.031c1.025 0 1.856-.813 1.856-1.816v-.35h.5c.215 0 .39.17.39.38V5.69c-.003.209-.176.377-.39.377H5.576c-.633.002-1.145.503-1.147 1.122v.645c-.509.123-.886.57-.886 1.106v2.925c.002.627.523 1.135 1.165 1.135h.332c.64-.002 1.158-.51 1.16-1.135V8.94c0-.535-.377-.983-.886-1.106V7.19c0-.141.117-.256.262-.256h4.667c.701-.002 1.269-.558 1.271-1.243V3.415c0-.688-.568-1.246-1.27-1.248z" mask="url(#kftistxfab)"/>
                    </g>
                </g>
            </g>
        </g>
    </g>
</svg>
