<svg xmlns="http://www.w3.org/2000/svg" xmlns:xlink="http://www.w3.org/1999/xlink" width="13" height="13" viewBox="0 0 13 13">
    <defs>
        <path id="7xr9luboza" d="M0 0L13 0 13 11.514 0 11.514z"/>
    </defs>
    <g fill="none" fill-rule="evenodd">
        <g>
            <g>
                <g>
                    <g transform="translate(-33 -84) translate(0 73) translate(33 11) translate(0 .743)">
                        <mask id="m2qzrvicqb" fill="#fff">
                            <use xlink:href="#7xr9luboza"/>
                        </mask>
                        <path fill="#FFF" d="M11.964 4.805c-.486.405-1.07.662-1.702.747l-.077.007c-.629.061-1.262.032-1.883-.086-.77-.142-1.557-.176-2.336-.103-.843.072-1.648.305-2.394.692L1.307 2.397c.62-.304 1.284-.49 1.976-.55.7-.065 1.406-.033 2.097.096.704.132 1.423.163 2.138.092.787-.092 1.526-.395 2.147-.877l2.299 3.647zm.968-.171L10.156.214C10.093.113 9.992.04 9.873.014c-.119-.028-.241-.01-.345.054-.045.027-.085.062-.11.095-.528.554-1.241.902-2.009.978-.628.061-1.262.032-1.883-.087C4.756.912 3.97.878 3.19.951c-.826.071-1.617.297-2.352.672-.064-.094-.16-.16-.272-.187-.118-.029-.241-.01-.346.052-.104.063-.178.162-.207.279-.029.117-.01.238.054.341l5.66 9.19c.084.136.23.216.391.216.084 0 .166-.023.235-.065.105-.062.178-.161.208-.278.03-.116.01-.237-.053-.341L4.045 6.836c.63-.316 1.306-.507 2.013-.568.7-.064 1.406-.031 2.097.097.704.131 1.423.162 2.136.092 1-.105 1.925-.565 2.61-1.303.12-.15.132-.358.03-.52z" mask="url(#m2qzrvicqb)"/>
                    </g>
                </g>
            </g>
        </g>
    </g>
</svg>
