<?xml version="1.0" encoding="UTF-8"?>
<svg width="35px" height="35px" viewBox="0 0 35 35" version="1.1" xmlns="http://www.w3.org/2000/svg" xmlns:xlink="http://www.w3.org/1999/xlink">
    <title>icons/welcome-application</title>
    <g id="icons/welcome-application" stroke="none" stroke-width="1" fill="none" fill-rule="evenodd">
        <g id="Group-6" transform="translate(0.000000, 4.000000)" fill="#FFFFFF">
            <path d="M2.37288136,5.96506809 L32.6271186,5.96506809 L32.6271186,2.30905861 L2.37288136,2.30905861 L2.37288136,5.96506809 Z M2.37288136,23.6909414 L32.6271186,23.6909414 L32.6271186,7.5044405 L2.37288136,7.5044405 L2.37288136,23.6909414 Z M32.7062147,0 L2.29378531,0 C1.02903955,0 0,1.00136175 0,2.23208999 L0,23.76791 C0,24.9990231 1.02903955,26 2.29378531,26 L32.7062147,26 C33.9709605,26 35,24.9990231 35,23.76791 L35,2.23208999 C35,1.00136175 33.9709605,0 32.7062147,0 L32.7062147,0 Z" id="Fill-1"></path>
            <path d="M5,3 C4.44849398,3 4,3.44849398 4,4 C4,4.55150602 4.44849398,5 5,5 C5.55150602,5 6,4.55150602 6,4 C6,3.44849398 5.55150602,3 5,3" id="Fill-3"></path>
            <path d="M8,3 C7.44849398,3 7,3.44849398 7,4 C7,4.55150602 7.44849398,5 8,5 C8.55150602,5 9,4.55150602 9,4 C9,3.44849398 8.55150602,3 8,3" id="Fill-4"></path>
            <path d="M11,3 C10.448494,3 10,3.44849398 10,4 C10,4.55150602 10.448494,5 11,5 C11.551506,5 12,4.55150602 12,4 C12,3.44849398 11.551506,3 11,3" id="Fill-5"></path>
        </g>
    </g>
</svg>