<?xml version="1.0" encoding="UTF-8"?>
<svg width="13px" height="15px" viewBox="0 0 13 15" version="1.1" xmlns="http://www.w3.org/2000/svg" xmlns:xlink="http://www.w3.org/1999/xlink">
    <title>Shape</title>
    <g id="JumpStart" stroke="none" stroke-width="1" fill="none" fill-rule="evenodd">
        <g id="Maker-Mode/contents_sidebar--MVP" transform="translate(-31.000000, -183.000000)" fill="#FFFFFF">
            <g id="Group" transform="translate(2.000000, 174.000000)">
                <path d="M34.1772187,14.4530744 C34.1772187,14.7119741 33.9723988,14.9061489 33.736068,14.9061489 L32.0659975,14.9061489 C31.9399544,14.9061489 31.8454221,15.0032362 31.8454221,15.1326861 L31.719379,19.053074 C31.719379,19.1825238 31.8139113,19.279612 31.9399544,19.279612 L39.0928981,19.279612 C39.2189412,19.279612 39.3134735,19.1825238 39.3134735,19.053074 L39.1874304,15.1326861 C39.1874304,15.0032362 39.0771428,14.9061489 38.9668551,14.9061489 L37.2652737,14.9061489 C37.028943,14.9061489 36.824123,14.6957929 36.824123,14.4530744 C36.824123,14.1941748 37.028943,14 37.2652737,14 L39.4710273,14 C39.7703796,14 40.0224657,14.2427184 40.0382211,14.5501618 L40.2430411,19.9061489 C40.2430411,20.0355987 40.3060626,20.2135922 40.3690841,20.3268608 L41.8500901,22.592233 C41.9603778,22.7702265 42.0233993,23.0453074 41.9918885,23.2556634 L41.9603778,23.4983819 C41.9131116,23.789644 41.6610255,24 41.3774286,24 L29.6396685,24 C29.3560716,24 29.1039855,23.7734628 29.0567194,23.4983819 L29.0094532,23.2556634 C28.9779425,23.0453074 29.0252086,22.7702265 29.1512517,22.592233 L30.6322576,20.3268608 C30.6952792,20.2297735 30.7583007,20.0355987 30.7583007,19.9061489 L30.9631207,14.5501618 C30.9788761,14.2427184 31.2309622,14 31.5303145,14 L33.736068,14 C33.9723988,14 34.1772187,14.1941748 34.1772187,14.4530744 Z M30.2740659,23 L40.7313076,23 C40.987927,23 41.0681206,22.7857143 40.9398109,22.5324675 L39.7208686,20.2337662 C39.6567137,20.0974026 39.4963266,20 39.3680169,20 L31.6213179,20 C31.4930082,20 31.3486598,20.0974026 31.2684662,20.2337662 L30.0495239,22.5519481 C29.937253,22.8051948 30.0174465,23 30.2740659,23 Z M35.9263893,9.16846584 L38.8474996,11.7837863 C39.3106024,12.1958975 38.6159482,12.8299145 38.1350337,12.4178034 L36.1757524,10.658406 C36.0866942,10.5791539 35.9976359,10.5950043 35.9976359,10.7218077 L35.9976359,15.556188 C35.9976359,15.8097949 35.7660845,16 35.4989098,16 C35.2139234,16 35.0001836,15.7939444 35.0001836,15.556188 L35.0001836,10.7218077 C35.0001836,10.5950043 34.928937,10.5633034 34.8220671,10.658406 L32.8627859,12.4178034 C32.399683,12.8299145 31.6872171,12.2117479 32.1503199,11.7837863 L35.0536186,9.15261541 C35.28517,8.94655986 35.6948379,8.94655986 35.9263893,9.16846584 Z" id="Shape"></path>
            </g>
        </g>
    </g>
</svg>