<?xml version="1.0" encoding="utf-8"?>
<!-- Generator: Adobe Illustrator 20.0.0, SVG Export Plug-In . SVG Version: 6.00 Build 0)  -->
<svg version="1.1" xmlns="http://www.w3.org/2000/svg" xmlns:xlink="http://www.w3.org/1999/xlink" x="0px" y="0px"
	 viewBox="0 0 201.7 201.7" style="enable-background:new 0 0 201.7 201.7;" xml:space="preserve">
<style type="text/css">
	.st0{display:none;}
	.st1{fill:#D1D3D4;}
	.st2{fill:#398EFF;}
	.st3{clip-path:url(#XMLID_4_);fill:none;stroke:#1C2F3D;stroke-width:0.5;stroke-miterlimit:10;}
	.st4{fill:none;stroke:#FFFFFF;stroke-linecap:round;stroke-miterlimit:10;}
	.st5{fill:#86C06E;stroke:#ABD998;stroke-width:0.5;stroke-miterlimit:10;}
	.st6{fill:#B0200B;stroke:#BA361F;stroke-width:0.5;stroke-miterlimit:10;}
	.st7{clip-path:url(#XMLID_5_);fill:none;stroke:#E6E6E6;stroke-width:0.5;stroke-miterlimit:10;}
	.st8{fill:none;stroke:#231F20;stroke-linecap:round;stroke-miterlimit:10;}
</style>
<g id="Layer_1" class="st0">
</g>
<g id="Layer_2">
	<g>
		<g>
			<defs>
				<circle id="XMLID_1_" cx="97.7" cy="103.1" r="82.2"/>
			</defs>
			<use xlink:href="#XMLID_1_"  style="overflow:visible;fill:#17242E;"/>
			<clipPath id="XMLID_4_">
				<use xlink:href="#XMLID_1_"  style="overflow:visible;"/>
			</clipPath>
			<line class="st3" x1="9.5" y1="41.2" x2="186.2" y2="41.2"/>
			<line class="st3" x1="9.5" y1="82.5" x2="186.2" y2="82.5"/>
			<line class="st3" x1="9.5" y1="123.8" x2="186.2" y2="123.8"/>
			<line class="st3" x1="9.5" y1="165.1" x2="186.2" y2="165.1"/>
			<use xlink:href="#XMLID_1_"  style="overflow:visible;fill:none;stroke:#398EFF;stroke-width:1.5;stroke-miterlimit:10;"/>
		</g>
		<line class="st4" x1="136.8" y1="153.3" x2="136.8" y2="126.4"/>
		<line class="st4" x1="136.8" y1="56.9" x2="136.8" y2="79.9"/>
		<line class="st4" x1="97.3" y1="169.9" x2="97.3" y2="142.9"/>
		<line class="st4" x1="97.3" y1="86.5" x2="97.3" y2="109.5"/>
		<line class="st4" x1="57.9" y1="139.8" x2="57.9" y2="112.9"/>
		<line class="st4" x1="57.9" y1="47.8" x2="57.9" y2="70.8"/>
		<path class="st5" d="M125.8,79.9h21.8c0.7,0,1.2,0.5,1.2,1.2v44.1c0,0.7-0.5,1.2-1.2,1.2h-21.8c-0.7,0-1.2-0.5-1.2-1.2V81.1
			C124.6,80.5,125.2,79.9,125.8,79.9z"/>
		<path class="st6" d="M86.4,109.5h21.8c0.7,0,1.2,0.5,1.2,1.2v31c0,0.7-0.5,1.2-1.2,1.2H86.4c-0.7,0-1.2-0.5-1.2-1.2v-31
			C85.2,110,85.8,109.5,86.4,109.5z"/>
		<path class="st5" d="M47,70.8h21.8c0.7,0,1.2,0.5,1.2,1.2v39.7c0,0.7-0.5,1.2-1.2,1.2H47c-0.7,0-1.2-0.5-1.2-1.2V72
			C45.8,71.3,46.3,70.8,47,70.8z"/>
	</g>
</g>
</svg>
